Blinker-Thin.ufo
<glyph name="exclam" format="2">
  <advance width="200"/>
  <unicode hex="0021"/>
  <outline>
    <contour>
      <point x="112.0" y="627.0" type="line"/>
      <point x="88.0" y="627.0" type="line"/>
      <point x="92.0" y="145.0" type="line"/>
      <point x="108.0" y="145.0" type="line"/>
    </contour>
    <contour>
      <point x="112.0" y="0.0" type="line"/>
      <point x="112.0" y="33.0" type="line"/>
      <point x="88.0" y="33.0" type="line"/>
      <point x="88.0" y="0.0" type="line"/>
    </contour>
  </outline>
</glyph>
<glyph name="quotedbl" format="2">
  <advance width="309"/>
  <unicode hex="0022"/>
  <outline>
    <contour>
      <point x="95.0" y="627.0" type="line"/>
      <point x="74.0" y="627.0" type="line"/>
      <point x="74.0" y="399.0" type="line"/>
      <point x="95.0" y="399.0" type="line"/>
    </contour>
    <contour>
      <point x="235.0" y="627.0" type="line"/>
      <point x="214.0" y="627.0" type="line"/>
      <point x="214.0" y="399.0" type="line"/>
      <point x="235.0" y="399.0" type="line"/>
    </contour>
  </outline>
</glyph>
<glyph name="numbersign" format="2">
  <advance width="600"/>
  <unicode hex="0023"/>
  <outline>
    <contour>
      <point x="560.0" y="473.0" type="line"/>
      <point x="560.0" y="493.0" type="line"/>
      <point x="472.0" y="493.0" type="line"/>
      <point x="493.0" y="627.0" type="line"/>
      <point x="472.0" y="627.0" type="line"/>
      <point x="450.0" y="493.0" type="line"/>
      <point x="214.0" y="493.0" type="line"/>
      <point x="235.0" y="627.0" type="line"/>
      <point x="214.0" y="627.0" type="line"/>
      <point x="193.0" y="493.0" type="line"/>
      <point x="76.0" y="493.0" type="line"/>
      <point x="76.0" y="473.0" type="line"/>
      <point x="189.0" y="473.0" type="line"/>
      <point x="138.0" y="164.0" type="line"/>
      <point x="41.0" y="164.0" type="line"/>
      <point x="41.0" y="144.0" type="line"/>
      <point x="134.0" y="144.0" type="line"/>
      <point x="110.0" y="0.0" type="line"/>
      <point x="132.0" y="0.0" type="line"/>
      <point x="155.0" y="144.0" type="line"/>
      <point x="392.0" y="144.0" type="line"/>
      <point x="369.0" y="0.0" type="line"/>
      <point x="390.0" y="0.0" type="line"/>
      <point x="414.0" y="144.0" type="line"/>
      <point x="525.0" y="144.0" type="line"/>
      <point x="525.0" y="164.0" type="line"/>
      <point x="418.0" y="164.0" type="line"/>
      <point x="468.0" y="473.0" type="line"/>
    </contour>
    <contour>
      <point x="447.0" y="473.0" type="line"/>
      <point x="396.0" y="164.0" type="line"/>
      <point x="159.0" y="164.0" type="line"/>
      <point x="211.0" y="473.0" type="line"/>
    </contour>
  </outline>
</glyph>
<glyph name="dollar" format="2">
  <advance width="493"/>
  <unicode hex="0024"/>
  <outline>
    <contour>
      <point x="254.0" y="630.0" type="line"/>
      <point x="254.0" y="727.0" type="line"/>
      <point x="234.0" y="727.0" type="line"/>
      <point x="234.0" y="630.0" type="line"/>
    </contour>
    <contour>
      <point x="254.0" y="-100.0" type="line"/>
      <point x="254.0" y="-3.0" type="line"/>
      <point x="234.0" y="-3.0" type="line"/>
      <point x="234.0" y="-100.0" type="line"/>
    </contour>
    <contour>
      <point x="164.0" y="334.0" type="curve" smooth="yes"/>
      <point x="313.0" y="292.0" type="line" smooth="yes"/>
      <point x="400.0" y="268.0"/>
      <point x="424.0" y="245.0"/>
      <point x="424.0" y="169.0" type="curve"/>
      <point x="424.0" y="68.0"/>
      <point x="389.0" y="14.0"/>
      <point x="250.0" y="14.0" type="curve"/>
      <point x="155.25238095238095" y="14.0"/>
      <point x="89.49038538648725" y="34.15150704726055"/>
      <point x="53.0" y="45.0" type="curve"/>
      <point x="53.0" y="25.0" type="line"/>
      <point x="84.57957238122172" y="13.157660357041854"/>
      <point x="156.1904761904762" y="-6.0"/>
      <point x="250.0" y="-6.0" type="curve"/>
      <point x="402.0" y="-6.0"/>
      <point x="445.0" y="60.0"/>
      <point x="445.0" y="168.0" type="curve"/>
      <point x="445.0" y="257.0"/>
      <point x="413.0" y="285.0"/>
      <point x="322.0" y="311.0" type="curve" smooth="yes"/>
      <point x="173.0" y="354.0" type="line" smooth="yes"/>
      <point x="97.6205428654416" y="375.7538030656779"/>
      <point x="76.0" y="406.33644859813086"/>
      <point x="76.0" y="466.0" type="curve"/>
      <point x="76.0" y="578.2820512820513"/>
      <point x="137.0" y="617.0"/>
      <point x="256.0" y="617.0" type="curve" smooth="yes"/>
      <point x="318.0" y="617.0"/>
      <point x="369.1747669725557" y="607.2129633619211"/>
      <point x="401.0" y="599.0" type="curve"/>
      <point x="401.0" y="619.0" type="line"/>
      <point x="369.188058687658" y="628.2357248971316"/>
      <point x="323.0" y="637.0"/>
      <point x="256.0" y="637.0" type="curve" smooth="yes"/>
      <point x="123.0" y="637.0"/>
      <point x="55.0" y="587.4406779661017"/>
      <point x="55.0" y="465.0" type="curve"/>
      <point x="55.0" y="391.1825396825397"/>
      <point x="87.89185186017211" y="355.4533035025018"/>
    </contour>
  </outline>
</glyph>
<glyph name="percent" format="1">
  <advance width="634.0"/>
  <unicode hex="0025"/>
  <outline>
    <contour>
      <point x="161.0" y="612.0" type="curve"/>
      <point x="230.0" y="612.0"/>
      <point x="255.0" y="576.0"/>
      <point x="255.0" y="475.0" type="curve"/>
      <point x="255.0" y="375.0"/>
      <point x="230.0" y="339.0"/>
      <point x="161.0" y="339.0" type="curve"/>
      <point x="92.0" y="339.0"/>
      <point x="67.0" y="375.0"/>
      <point x="67.0" y="475.0" type="curve"/>
      <point x="67.0" y="576.0"/>
      <point x="92.0" y="612.0"/>
    </contour>
    <contour>
      <point x="161.0" y="320.0" type="curve"/>
      <point x="245.0" y="320.0"/>
      <point x="276.0" y="361.0"/>
      <point x="276.0" y="475.0" type="curve"/>
      <point x="276.0" y="590.0"/>
      <point x="245.0" y="631.0"/>
      <point x="161.0" y="631.0" type="curve"/>
      <point x="77.0" y="631.0"/>
      <point x="46.0" y="590.0"/>
      <point x="46.0" y="475.0" type="curve"/>
      <point x="46.0" y="361.0"/>
      <point x="77.0" y="320.0"/>
    </contour>
    <contour>
      <point x="473.0" y="289.0" type="curve"/>
      <point x="542.0" y="289.0"/>
      <point x="567.0" y="253.0"/>
      <point x="567.0" y="152.0" type="curve"/>
      <point x="567.0" y="52.0"/>
      <point x="542.0" y="16.0"/>
      <point x="473.0" y="16.0" type="curve"/>
      <point x="404.0" y="16.0"/>
      <point x="379.0" y="52.0"/>
      <point x="379.0" y="152.0" type="curve"/>
      <point x="379.0" y="253.0"/>
      <point x="404.0" y="289.0"/>
    </contour>
    <contour>
      <point x="473.0" y="-3.0" type="curve"/>
      <point x="557.0" y="-3.0"/>
      <point x="588.0" y="38.0"/>
      <point x="588.0" y="152.0" type="curve"/>
      <point x="588.0" y="267.0"/>
      <point x="557.0" y="308.0"/>
      <point x="473.0" y="308.0" type="curve"/>
      <point x="389.0" y="308.0"/>
      <point x="358.0" y="267.0"/>
      <point x="358.0" y="152.0" type="curve"/>
      <point x="358.0" y="38.0"/>
      <point x="389.0" y="-3.0"/>
    </contour>
    <component base="fraction" xOffset="253.0"/>
  </outline>
</glyph>
<glyph name="ampersand" format="1">
  <advance width="751.0"/>
  <unicode hex="0026"/>
  <outline>
    <contour>
      <point x="523.0" y="52.0" type="line"/>
      <point x="486.0" y="30.0"/>
      <point x="429.0" y="14.0"/>
      <point x="331.0" y="14.0" type="curve" smooth="yes"/>
      <point x="148.0" y="14.0"/>
      <point x="85.0" y="121.0"/>
      <point x="85.0" y="329.0" type="curve"/>
      <point x="85.0" y="535.0"/>
      <point x="161.0" y="617.0"/>
      <point x="326.0" y="617.0" type="curve"/>
      <point x="437.0" y="617.0"/>
      <point x="493.0" y="560.0"/>
      <point x="493.0" y="482.0" type="curve" smooth="yes"/>
      <point x="493.0" y="359.0"/>
      <point x="375.0" y="304.0"/>
      <point x="81.0" y="301.0" type="curve"/>
      <point x="81.0" y="281.0" type="line"/>
      <point x="401.0" y="285.0"/>
      <point x="514.0" y="350.0"/>
      <point x="514.0" y="483.0" type="curve" smooth="yes"/>
      <point x="514.0" y="573.0"/>
      <point x="450.0" y="637.0"/>
      <point x="326.0" y="637.0" type="curve"/>
      <point x="149.0" y="637.0"/>
      <point x="64.0" y="546.0"/>
      <point x="64.0" y="329.0" type="curve"/>
      <point x="64.0" y="110.0"/>
      <point x="136.0" y="-6.0"/>
      <point x="331.0" y="-6.0" type="curve"/>
      <point x="440.0" y="-6.0"/>
      <point x="496.0" y="11.0"/>
      <point x="544.0" y="40.0" type="curve"/>
      <point x="544.0" y="307.0" type="line"/>
      <point x="725.0" y="307.0" type="line"/>
      <point x="725.0" y="327.0" type="line"/>
      <point x="523.0" y="327.0" type="line"/>
    </contour>
  </outline>
</glyph>
<glyph name="parenleft" format="2">
  <advance width="211"/>
  <unicode hex="0028"/>
  <outline>
    <contour>
      <point x="84.0" y="313.0" type="curve"/>
      <point x="84.0" y="447.0"/>
      <point x="107.0" y="589.0"/>
      <point x="167.0" y="702.0" type="curve"/>
      <point x="151.0" y="707.0" type="line"/>
      <point x="87.0" y="594.0"/>
      <point x="63.0" y="451.0"/>
      <point x="63.0" y="313.0" type="curve"/>
      <point x="63.0" y="175.0"/>
      <point x="89.0" y="33.0"/>
      <point x="151.0" y="-80.0" type="curve"/>
      <point x="167.0" y="-75.0" type="line"/>
      <point x="107.0" y="38.0"/>
      <point x="84.0" y="179.0"/>
    </contour>
  </outline>
</glyph>
<glyph name="asterisk" format="2">
  <advance width="412"/>
  <unicode hex="002A"/>
  <outline>
    <contour>
      <point x="204.0" y="456.0" type="line"/>
      <point x="209.0" y="472.0" type="line"/>
      <point x="55.0" y="529.0" type="line"/>
      <point x="47.0" y="506.0" type="line"/>
    </contour>
    <contour>
      <point x="212.0" y="459.0" type="line"/>
      <point x="198.0" y="468.0" type="line"/>
      <point x="98.0" y="340.0" type="line"/>
      <point x="117.0" y="326.0" type="line"/>
    </contour>
    <contour>
      <point x="213.0" y="468.0" type="line"/>
      <point x="199.0" y="459.0" type="line"/>
      <point x="290.0" y="323.0" type="line"/>
      <point x="310.0" y="337.0" type="line"/>
    </contour>
    <contour>
      <point x="202.0" y="472.0" type="line"/>
      <point x="207.0" y="456.0" type="line"/>
      <point x="365.0" y="502.0" type="line"/>
      <point x="358.0" y="525.0" type="line"/>
    </contour>
    <contour>
      <point x="197.0" y="464.0" type="line"/>
      <point x="215.0" y="464.0" type="line"/>
      <point x="218.0" y="627.0" type="line"/>
      <point x="194.0" y="627.0" type="line"/>
    </contour>
  </outline>
</glyph>
<glyph name="plus" format="2">
  <advance width="500"/>
  <unicode hex="002B"/>
  <outline>
    <contour>
      <point x="463.0" y="312.0" type="line"/>
      <point x="463.0" y="332.0" type="line"/>
      <point x="37.0" y="332.0" type="line"/>
      <point x="37.0" y="312.0" type="line"/>
    </contour>
    <contour>
      <point x="261.0" y="532.0" type="line"/>
      <point x="241.0" y="532.0" type="line"/>
      <point x="241.0" y="110.0" type="line"/>
      <point x="261.0" y="110.0" type="line"/>
    </contour>
  </outline>
</glyph>
<glyph name="comma" format="2">
  <advance width="149"/>
  <unicode hex="002C"/>
  <outline>
    <contour>
      <point x="71.0" y="-95.0" type="curve" smooth="yes"/>
      <point x="91.0" y="38.0" type="line"/>
      <point x="65.0" y="38.0" type="line"/>
      <point x="55.0" y="-110.0" type="line"/>
      <point x="57.0" y="-110.0" type="line" smooth="yes"/>
      <point x="67.26666666666667" y="-110.0"/>
      <point x="69.0" y="-106.0"/>
    </contour>
  </outline>
</glyph>
<glyph name="hyphen" format="2">
  <advance width="445"/>
  <unicode hex="002D"/>
  <outline>
    <contour>
      <point x="382.0" y="308.0" type="line"/>
      <point x="382.0" y="328.0" type="line"/>
      <point x="63.0" y="328.0" type="line"/>
      <point x="63.0" y="308.0" type="line"/>
    </contour>
  </outline>
</glyph>
<glyph name="period" format="1">
  <advance width="130.0"/>
  <unicode hex="002E"/>
  <outline>
    <contour>
      <point x="53.0" y="0.0" type="line"/>
      <point x="77.0" y="0.0" type="line"/>
      <point x="77.0" y="33.0" type="line"/>
      <point x="53.0" y="33.0" type="line"/>
    </contour>
  </outline>
</glyph>
<glyph name="slash" format="2">
  <advance width="291"/>
  <unicode hex="002F"/>
  <outline>
    <contour>
      <point x="57.0" y="-80.0" type="line"/>
      <point x="257.0" y="707.0" type="line"/>
      <point x="235.0" y="707.0" type="line"/>
      <point x="35.0" y="-80.0" type="line"/>
    </contour>
  </outline>
</glyph>
<glyph name="zero" format="2">
  <advance width="581"/>
  <unicode hex="0030"/>
  <guideline x="596" y="341" angle="90.0" identifier="pKIreL8ell"/>
  <guideline x="2972" y="207" angle="90.0" identifier="3EMtrzk5Zd"/>
  <guideline x="395" y="315" angle="0" identifier="jFJsj6zLuq"/>
  <guideline x="8" y="252" angle="90.0" identifier="OHPocW0i00"/>
  <outline>
    <contour>
      <point x="291.0" y="617.0" type="curve"/>
      <point x="450.0" y="617.0"/>
      <point x="491.0" y="554.621710526"/>
      <point x="491.0" y="316.0" type="curve"/>
      <point x="491.0" y="88.0196078431"/>
      <point x="442.0" y="14.0"/>
      <point x="291.0" y="14.0" type="curve"/>
      <point x="131.0" y="14.0"/>
      <point x="90.0" y="77.1633986928"/>
      <point x="90.0" y="316.0" type="curve"/>
      <point x="90.0" y="542.740131579"/>
      <point x="139.0" y="617.0"/>
    </contour>
    <contour>
      <point x="291.0" y="-6.0" type="curve"/>
      <point x="455.0" y="-6.0"/>
      <point x="512.0" y="76.0"/>
      <point x="512.0" y="316.0" type="curve"/>
      <point x="512.0" y="569.0"/>
      <point x="463.0" y="637.0"/>
      <point x="291.0" y="637.0" type="curve"/>
      <point x="126.0" y="637.0"/>
      <point x="69.0" y="556.0"/>
      <point x="69.0" y="316.0" type="curve"/>
      <point x="69.0" y="62.0"/>
      <point x="119.0" y="-6.0"/>
    </contour>
  </outline>
</glyph>
<glyph name="one" format="2">
  <advance width="364"/>
  <unicode hex="0031"/>
  <guideline x="485" y="163" angle="90.0" identifier="DYI3uIO1pO"/>
  <guideline x="3676" y="-115" angle="90.0" identifier="JcsfN8MeXZ"/>
  <guideline x="1442" y="222" angle="0" identifier="Y7gFBSpJRe"/>
  <guideline x="1551" y="333" angle="90.0" identifier="xIpRGqKZov"/>
  <guideline x="987" y="689" angle="90.0" identifier="ka299Cxf3G"/>
  <guideline x="2175" y="-145" angle="90.0" identifier="7MIM81i8ON"/>
  <guideline x="1093" y="-666" angle="0" identifier="hx85eUHd4u"/>
  <guideline x="221" y="1020" angle="0" identifier="oDI2kTTzav"/>
  <outline>
    <contour>
      <point x="239.0" y="0.0" type="line"/>
      <point x="260.0" y="0.0" type="line"/>
      <point x="260.0" y="637.0" type="line"/>
      <point x="239.0" y="627.0" type="line"/>
    </contour>
    <contour>
      <point x="20.0" y="583.0" type="line"/>
      <point x="248.0" y="614.0" type="line"/>
      <point x="260.0" y="637.0" type="line"/>
      <point x="20.0" y="604.0" type="line"/>
    </contour>
  </outline>
</glyph>
<glyph name="two" format="1">
  <advance width="448.0"/>
  <unicode hex="0032"/>
  <outline>
    <contour>
      <point x="399.0" y="0.0" type="line"/>
      <point x="399.0" y="20.0" type="line"/>
      <point x="59.0" y="20.0" type="line"/>
      <point x="290.0" y="289.0" type="line" smooth="yes"/>
      <point x="343.0" y="351.0"/>
      <point x="382.0" y="410.0"/>
      <point x="382.0" y="488.0" type="curve"/>
      <point x="382.0" y="580.0"/>
      <point x="332.0" y="637.0"/>
      <point x="223.0" y="637.0" type="curve"/>
      <point x="167.0" y="637.0"/>
      <point x="117.0" y="630.0"/>
      <point x="65.0" y="615.0" type="curve"/>
      <point x="65.0" y="594.0" type="line"/>
      <point x="112.0" y="610.0"/>
      <point x="173.0" y="617.0"/>
      <point x="225.0" y="617.0" type="curve"/>
      <point x="318.0" y="617.0"/>
      <point x="361.0" y="567.0"/>
      <point x="361.0" y="488.0" type="curve"/>
      <point x="361.0" y="415.0"/>
      <point x="323.0" y="357.0"/>
      <point x="273.0" y="299.0" type="curve" smooth="yes"/>
      <point x="33.0" y="20.0" type="line"/>
      <point x="33.0" y="0.0" type="line"/>
    </contour>
  </outline>
</glyph>
<glyph name="three" format="2">
  <advance width="470"/>
  <unicode hex="0033"/>
  <outline>
    <contour>
      <point x="266.0" y="329.0" type="line"/>
      <point x="312.6103050853148" y="341.8922120448743"/>
      <point x="377.0" y="383.0"/>
      <point x="377.0" y="484.0" type="curve"/>
      <point x="377.0" y="583.0"/>
      <point x="326.31875" y="637.0"/>
      <point x="218.0" y="637.0" type="curve"/>
      <point x="146.0" y="637.0"/>
      <point x="102.0" y="627.0"/>
      <point x="66.0" y="616.0" type="curve"/>
      <point x="66.0" y="596.0" type="line"/>
      <point x="103.0" y="607.0"/>
      <point x="151.0" y="617.0"/>
      <point x="218.0" y="617.0" type="curve"/>
      <point x="314.0" y="617.0"/>
      <point x="357.0" y="571.0"/>
      <point x="357.0" y="483.0" type="curve"/>
      <point x="357.0" y="373.0"/>
      <point x="273.94871794871796" y="333.0"/>
      <point x="199.0" y="333.0" type="curve"/>
      <point x="125.0" y="333.0" type="line"/>
      <point x="125.0" y="314.0" type="line"/>
      <point x="216.0" y="314.0" type="line"/>
      <point x="342.23560209424085" y="314.0"/>
      <point x="387.0" y="262.0"/>
      <point x="387.0" y="169.0" type="curve"/>
      <point x="387.0" y="71.0"/>
      <point x="326.0" y="14.0"/>
      <point x="205.0" y="14.0" type="curve"/>
      <point x="120.0" y="14.0"/>
      <point x="78.95833460118553" y="21.281503663038734"/>
      <point x="42.0" y="33.0" type="curve"/>
      <point x="42.0" y="12.0" type="line"/>
      <point x="76.0" y="2.0"/>
      <point x="114.0" y="-6.0"/>
      <point x="205.0" y="-6.0" type="curve"/>
      <point x="341.0" y="-6.0"/>
      <point x="408.0" y="59.0"/>
      <point x="408.0" y="170.0" type="curve"/>
      <point x="408.0" y="272.0"/>
      <point x="351.7956725078401" y="322.06921422368737"/>
      <point x="266.0" y="327.0" type="curve"/>
    </contour>
  </outline>
</glyph>
<glyph name="four" format="2">
  <advance width="520"/>
  <unicode hex="0034"/>
  <guideline x="118" y="219" angle="353.74096369487773" identifier="GvE47VFjlK"/>
  <outline>
    <contour>
      <point x="485.0" y="187.0" type="line"/>
      <point x="485.0" y="207.0" type="line"/>
      <point x="382.0" y="207.0" type="line"/>
      <point x="382.0" y="517.0" type="line"/>
      <point x="361.0" y="517.0" type="line"/>
      <point x="361.0" y="207.0" type="line"/>
      <point x="69.0" y="207.0" type="line"/>
      <point x="150.0" y="627.0" type="line"/>
      <point x="129.0" y="627.0" type="line"/>
      <point x="48.0" y="206.0" type="line"/>
      <point x="48.0" y="187.0" type="line"/>
      <point x="361.0" y="187.0" type="line"/>
      <point x="361.0" y="0.0" type="line"/>
      <point x="382.0" y="0.0" type="line"/>
      <point x="382.0" y="187.0" type="line"/>
    </contour>
  </outline>
</glyph>
<glyph name="five" format="2">
  <advance width="468"/>
  <unicode hex="0035"/>
  <outline>
    <contour>
      <point x="211.0" y="-6.0" type="curve"/>
      <point x="357.0" y="-6.0"/>
      <point x="415.0" y="49.2371134021"/>
      <point x="415.0" y="182.0" type="curve" smooth="yes"/>
      <point x="415.0" y="316.094117647"/>
      <point x="331.0" y="346.0"/>
      <point x="207.0" y="346.0" type="curve" smooth="yes"/>
      <point x="163.427184466" y="346.0"/>
      <point x="129.766660863" y="340.953332173"/>
      <point x="105.0" y="336.0" type="curve"/>
      <point x="105.0" y="607.0" type="line"/>
      <point x="375.0" y="607.0" type="line"/>
      <point x="375.0" y="627.0" type="line"/>
      <point x="84.0" y="627.0" type="line"/>
      <point x="84.0" y="313.0" type="line"/>
      <point x="127.0" y="323.0"/>
      <point x="165.0" y="326.0"/>
      <point x="207.0" y="326.0" type="curve" smooth="yes"/>
      <point x="316.414893617" y="326.0"/>
      <point x="394.0" y="304.0"/>
      <point x="394.0" y="182.0" type="curve" smooth="yes"/>
      <point x="394.0" y="58.7337278107"/>
      <point x="341.0" y="14.0"/>
      <point x="211.0" y="14.0" type="curve"/>
      <point x="144.0" y="14.0"/>
      <point x="91.0" y="22.0"/>
      <point x="53.0" y="34.0" type="curve"/>
      <point x="53.0" y="13.0" type="line"/>
      <point x="86.0" y="2.0"/>
      <point x="138.0" y="-6.0"/>
    </contour>
  </outline>
</glyph>
<glyph name="six" format="2">
  <advance width="531"/>
  <unicode hex="0036"/>
  <outline>
    <contour>
      <point x="68.0" y="297.0" type="curve"/>
      <point x="68.0" y="75.0"/>
      <point x="133.0" y="-6.0"/>
      <point x="272.0" y="-6.0" type="curve"/>
      <point x="403.0" y="-6.0"/>
      <point x="481.0" y="70.91666666666669"/>
      <point x="481.0" y="207.0" type="curve"/>
      <point x="481.0" y="340.19553072625695"/>
      <point x="420.62790697674416" y="389.0"/>
      <point x="305.0" y="389.0" type="curve"/>
      <point x="214.57939914163092" y="389.0"/>
      <point x="145.0" y="359.0"/>
      <point x="76.0" y="315.0" type="curve"/>
      <point x="76.0" y="295.0" type="line"/>
      <point x="149.0" y="342.0"/>
      <point x="221.35714285714283" y="369.0"/>
      <point x="296.0" y="369.0" type="curve"/>
      <point x="409.77500000000003" y="369.0"/>
      <point x="460.0" y="325.188679245283"/>
      <point x="460.0" y="207.0" type="curve"/>
      <point x="460.0" y="84.89795918367346"/>
      <point x="396.0" y="14.0"/>
      <point x="272.0" y="14.0" type="curve"/>
      <point x="145.0" y="14.0"/>
      <point x="89.0" y="91.0"/>
      <point x="89.0" y="297.0" type="curve"/>
      <point x="89.0" y="520.302180685"/>
      <point x="140.0" y="617.0"/>
      <point x="324.0" y="617.0" type="curve"/>
      <point x="358.0" y="617.0"/>
      <point x="383.0" y="614.0"/>
      <point x="400.0" y="611.0" type="curve"/>
      <point x="400.0" y="631.0" type="line"/>
      <point x="386.171785647" y="633.96318879"/>
      <point x="353.0" y="637.0"/>
      <point x="324.0" y="637.0" type="curve"/>
      <point x="127.0" y="637.0"/>
      <point x="68.0" y="531.0"/>
    </contour>
  </outline>
</glyph>
<glyph name="seven" format="2">
  <advance width="442"/>
  <unicode hex="0037"/>
  <outline>
    <contour>
      <point x="413.0" y="608.0" type="line"/>
      <point x="413.0" y="627.0" type="line"/>
      <point x="36.0" y="627.0" type="line"/>
      <point x="36.0" y="607.0" type="line"/>
      <point x="390.0" y="607.0" type="line"/>
      <point x="56.0" y="0.0" type="line"/>
      <point x="78.0" y="0.0" type="line"/>
    </contour>
  </outline>
</glyph>
<glyph name="eight" format="2">
  <advance width="540"/>
  <unicode hex="0038"/>
  <guideline x="255" y="318" angle="0" name="mid" identifier="YJnlDbfdPy"/>
  <outline>
    <contour>
      <point x="268.0" y="-6.0" type="curve"/>
      <point x="409.0" y="-6.0"/>
      <point x="474.0" y="48.317647058823525"/>
      <point x="474.0" y="165.0" type="curve"/>
      <point x="474.0" y="256.4140127388535"/>
      <point x="423.99677637720424" y="314.00023505582885"/>
      <point x="328.0" y="321.0" type="curve"/>
      <point x="420.31752649058546" y="329.9339541765083"/>
      <point x="462.0" y="389.0"/>
      <point x="462.0" y="481.0" type="curve"/>
      <point x="462.0" y="585.0"/>
      <point x="401.3128205128205" y="637.0"/>
      <point x="268.0" y="637.0" type="curve"/>
      <point x="137.68586387434556" y="637.0"/>
      <point x="78.0" y="583.0"/>
      <point x="78.0" y="476.0" type="curve"/>
      <point x="78.0" y="389.0"/>
      <point x="118.68532329458095" y="327.94728282349377"/>
      <point x="209.0" y="321.0" type="curve"/>
      <point x="110.00484470442589" y="312.0004404276751"/>
      <point x="66.0" y="245.0"/>
      <point x="66.0" y="155.0" type="curve"/>
      <point x="66.0" y="46.0"/>
      <point x="129.0" y="-6.0"/>
    </contour>
    <contour>
      <point x="268.0" y="617.0" type="curve"/>
      <point x="391.0" y="617.0"/>
      <point x="442.0" y="574.0"/>
      <point x="442.0" y="480.0" type="curve"/>
      <point x="442.0" y="397.0"/>
      <point x="407.0" y="330.0"/>
      <point x="267.0" y="330.0" type="curve"/>
      <point x="130.80588235300002" y="330.0"/>
      <point x="98.0" y="397.0"/>
      <point x="98.0" y="477.0" type="curve"/>
      <point x="98.0" y="573.0"/>
      <point x="148.0" y="617.0"/>
    </contour>
    <contour>
      <point x="267.0" y="310.0" type="curve"/>
      <point x="395.0" y="310.0"/>
      <point x="454.0" y="263.8382352941177"/>
      <point x="454.0" y="164.0" type="curve"/>
      <point x="454.0" y="60.875"/>
      <point x="396.0" y="14.0"/>
      <point x="268.0" y="14.0" type="curve"/>
      <point x="144.0" y="14.0"/>
      <point x="87.0" y="58.0"/>
      <point x="87.0" y="155.0" type="curve"/>
      <point x="87.0" y="261.0"/>
      <point x="144.0" y="310.0"/>
    </contour>
  </outline>
</glyph>
<glyph name="nine" format="2">
  <advance width="523"/>
  <unicode hex="0039"/>
  <outline>
    <contour>
      <point x="455.0" y="334.0" type="curve"/>
      <point x="455.0" y="562.0"/>
      <point x="396.0" y="637.0"/>
      <point x="256.0" y="637.0" type="curve"/>
      <point x="128.0" y="637.0"/>
      <point x="51.0" y="563.6944444444445"/>
      <point x="51.0" y="434.0" type="curve"/>
      <point x="51.0" y="297.51149425287355"/>
      <point x="114.69613259668509" y="247.0"/>
      <point x="234.0" y="247.0" type="curve"/>
      <point x="318.2093023255814" y="247.0"/>
      <point x="386.0" y="276.0"/>
      <point x="447.0" y="322.0" type="curve"/>
      <point x="447.0" y="341.0" type="line"/>
      <point x="384.0" y="295.0"/>
      <point x="312.58878504672896" y="267.0"/>
      <point x="243.0" y="267.0" type="curve"/>
      <point x="124.04347826086956" y="267.0"/>
      <point x="72.0" y="311.461038961039"/>
      <point x="72.0" y="434.0" type="curve"/>
      <point x="72.0" y="549.7755102040817"/>
      <point x="135.0" y="617.0"/>
      <point x="256.0" y="617.0" type="curve"/>
      <point x="386.0" y="617.0"/>
      <point x="434.0" y="546.0"/>
      <point x="434.0" y="334.0" type="curve"/>
      <point x="434.0" y="111.0"/>
      <point x="383.0" y="14.0"/>
      <point x="199.0" y="14.0" type="curve"/>
      <point x="165.0" y="14.0"/>
      <point x="140.0" y="17.0"/>
      <point x="123.0" y="20.0" type="curve"/>
      <point x="123.0" y="0.0" type="line"/>
      <point x="137.0" y="-3.0"/>
      <point x="170.0" y="-6.0"/>
      <point x="199.0" y="-6.0" type="curve"/>
      <point x="396.0" y="-6.0"/>
      <point x="455.0" y="100.0"/>
    </contour>
  </outline>
</glyph>
<glyph name="less" format="1">
  <advance width="500.0"/>
  <unicode hex="003C"/>
  <outline>
    <contour>
      <point x="463.0" y="516.0" type="line"/>
      <point x="463.0" y="537.0" type="line"/>
      <point x="37.0" y="323.0" type="line"/>
      <point x="37.0" y="302.0" type="line"/>
    </contour>
    <contour>
      <point x="463.0" y="87.0" type="line"/>
      <point x="463.0" y="108.0" type="line"/>
      <point x="37.0" y="323.0" type="line"/>
      <point x="37.0" y="302.0" type="line"/>
    </contour>
  </outline>
</glyph>
<glyph name="question" format="2">
  <advance width="401"/>
  <unicode hex="003F"/>
  <guideline x="438" y="203" angle="0" identifier="IxiF93Td9f"/>
  <outline>
    <contour>
      <point x="359.0" y="504.0" type="curve" smooth="yes"/>
      <point x="359.0" y="599.0"/>
      <point x="284.0" y="637.0"/>
      <point x="187.0" y="637.0" type="curve"/>
      <point x="132.0" y="637.0"/>
      <point x="76.0" y="627.0"/>
      <point x="27.0" y="608.0" type="curve"/>
      <point x="27.0" y="588.0" type="line"/>
      <point x="66.0" y="604.0"/>
      <point x="120.0" y="618.0"/>
      <point x="187.0" y="618.0" type="curve"/>
      <point x="262.0" y="618.0"/>
      <point x="339.0" y="591.0"/>
      <point x="339.0" y="504.0" type="curve" smooth="yes"/>
      <point x="339.0" y="411.0"/>
      <point x="250.0" y="353.0"/>
      <point x="152.0" y="308.0" type="curve"/>
      <point x="152.0" y="145.0" type="line"/>
      <point x="172.0" y="145.0" type="line"/>
      <point x="172.0" y="297.0" type="line"/>
      <point x="265.0" y="341.0"/>
      <point x="359.0" y="403.0"/>
    </contour>
    <contour>
      <point x="173.0" y="0.0" type="line"/>
      <point x="173.0" y="33.0" type="line"/>
      <point x="149.0" y="33.0" type="line"/>
      <point x="149.0" y="0.0" type="line"/>
    </contour>
  </outline>
</glyph>
<glyph name="at" format="2">
  <advance width="692"/>
  <unicode hex="0040"/>
  <outline>
    <contour>
      <point x="220.0" y="171.0" type="curve"/>
      <point x="220.0" y="101.0"/>
      <point x="250.0" y="67.0"/>
      <point x="318.0" y="67.0" type="curve"/>
      <point x="386.0" y="67.0"/>
      <point x="432.0" y="89.0"/>
      <point x="464.0" y="119.0" type="curve"/>
      <point x="457.0" y="133.0" type="line"/>
      <point x="429.0" y="106.0"/>
      <point x="385.0" y="86.0"/>
      <point x="323.0" y="86.0" type="curve"/>
      <point x="263.0" y="86.0"/>
      <point x="240.0" y="114.0"/>
      <point x="240.0" y="172.0" type="curve"/>
      <point x="240.0" y="231.0"/>
      <point x="271.0" y="249.0"/>
      <point x="348.0" y="249.0" type="curve"/>
      <point x="396.0" y="249.0"/>
      <point x="429.0" y="243.0"/>
      <point x="462.0" y="238.0" type="curve"/>
      <point x="462.0" y="256.0" type="line"/>
      <point x="437.0" y="261.0"/>
      <point x="401.0" y="268.0"/>
      <point x="347.0" y="268.0" type="curve"/>
      <point x="258.0" y="268.0"/>
      <point x="220.0" y="243.0"/>
    </contour>
    <contour>
      <point x="628.0" y="284.0" type="curve"/>
      <point x="628.0" y="436.0"/>
      <point x="561.4980988593156" y="557.0"/>
      <point x="363.0" y="557.0" type="curve"/>
      <point x="162.0" y="557.0"/>
      <point x="62.0" y="464.0"/>
      <point x="62.0" y="236.0" type="curve" smooth="yes"/>
      <point x="62.0" y="9.0"/>
      <point x="165.0" y="-76.0"/>
      <point x="368.0" y="-76.0" type="curve"/>
      <point x="447.0" y="-76.0"/>
      <point x="512.0" y="-58.0"/>
      <point x="551.0" y="-36.0" type="curve"/>
      <point x="551.0" y="-16.0" type="line"/>
      <point x="499.0" y="-44.0"/>
      <point x="441.0" y="-57.0"/>
      <point x="368.0" y="-57.0" type="curve"/>
      <point x="180.0" y="-57.0"/>
      <point x="82.0" y="23.0"/>
      <point x="82.0" y="236.0" type="curve" smooth="yes"/>
      <point x="81.0" y="445.0"/>
      <point x="166.0" y="538.0"/>
      <point x="363.0" y="538.0" type="curve"/>
      <point x="556.5867768595042" y="538.0"/>
      <point x="607.0" y="419.0"/>
      <point x="607.0" y="283.0" type="curve"/>
      <point x="607.0" y="159.0"/>
      <point x="568.2083333333334" y="86.0"/>
      <point x="509.0" y="86.0" type="curve"/>
      <point x="481.0" y="86.0"/>
      <point x="474.0" y="108.0"/>
      <point x="474.0" y="137.0" type="curve" smooth="yes"/>
      <point x="474.0" y="294.0" type="line" smooth="yes"/>
      <point x="474.0" y="368.0"/>
      <point x="456.0" y="419.0"/>
      <point x="357.0" y="419.0" type="curve"/>
      <point x="313.0" y="419.0"/>
      <point x="290.0" y="415.0"/>
      <point x="257.0" y="406.0" type="curve"/>
      <point x="257.0" y="387.0" type="line"/>
      <point x="288.0" y="395.0"/>
      <point x="318.0" y="400.0"/>
      <point x="357.0" y="400.0" type="curve" smooth="yes"/>
      <point x="446.0" y="400.0"/>
      <point x="454.0" y="347.0"/>
      <point x="454.0" y="294.0" type="curve" smooth="yes"/>
      <point x="454.0" y="123.0" type="line"/>
      <point x="456.0" y="123.0" type="line"/>
      <point x="456.0" y="102.0"/>
      <point x="465.0" y="67.0"/>
      <point x="508.0" y="67.0" type="curve"/>
      <point x="585.2881355932203" y="67.0"/>
      <point x="628.0" y="150.0"/>
    </contour>
  </outline>
</glyph>
<glyph name="A" format="2">
  <advance width="592"/>
  <unicode hex="0041"/>
  <anchor x="296.0" y="645" name="top"/>
  <anchor x="569.0" y="0" name="ogonek"/>
  <outline>
    <contour>
      <point x="23.0" y="0.0" type="line"/>
      <point x="46.0" y="0.0" type="line"/>
      <point x="243.0" y="476.0" type="line" smooth="yes"/>
      <point x="265.0" y="529.0"/>
      <point x="286.0" y="573.0"/>
      <point x="302.0" y="627.0" type="curve"/>
      <point x="285.0" y="627.0" type="line"/>
    </contour>
    <contour>
      <point x="569.0" y="0.0" type="line"/>
      <point x="307.0" y="627.0" type="line"/>
      <point x="290.0" y="627.0" type="line"/>
      <point x="306.0" y="573.0"/>
      <point x="327.0" y="529.0"/>
      <point x="349.0" y="476.0" type="curve" smooth="yes"/>
      <point x="546.0" y="0.0" type="line"/>
    </contour>
    <contour>
      <point x="114.0" y="193.0" type="line"/>
      <point x="477.0" y="193.0" type="line"/>
      <point x="477.0" y="213.0" type="line"/>
      <point x="114.0" y="213.0" type="line"/>
    </contour>
  </outline>
</glyph>
<glyph name="B" format="2">
  <advance width="567"/>
  <unicode hex="0042"/>
  <outline>
    <contour>
      <point x="298.0" y="0.0" type="line" smooth="yes"/>
      <point x="468.0" y="0.0"/>
      <point x="508.0" y="64.0"/>
      <point x="508.0" y="176.0" type="curve"/>
      <point x="508.0" y="285.0"/>
      <point x="450.0" y="328.0"/>
      <point x="372.0" y="333.0" type="curve"/>
      <point x="430.0" y="341.0"/>
      <point x="482.0" y="375.0"/>
      <point x="482.0" y="479.0" type="curve"/>
      <point x="482.0" y="582.0"/>
      <point x="440.0" y="627.0"/>
      <point x="297.0" y="627.0" type="curve" smooth="yes"/>
      <point x="107.0" y="627.0" type="line"/>
      <point x="107.0" y="607.0" type="line"/>
      <point x="298.0" y="607.0" type="line" smooth="yes"/>
      <point x="426.0" y="607.0"/>
      <point x="461.0" y="570.0"/>
      <point x="461.0" y="477.0" type="curve"/>
      <point x="461.0" y="383.0"/>
      <point x="416.0" y="339.0"/>
      <point x="298.0" y="339.0" type="curve" smooth="yes"/>
      <point x="107.0" y="339.0" type="line"/>
      <point x="107.0" y="319.0" type="line"/>
      <point x="298.0" y="319.0" type="line" smooth="yes"/>
      <point x="447.0" y="319.0"/>
      <point x="487.0" y="276.0"/>
      <point x="487.0" y="176.0" type="curve"/>
      <point x="487.0" y="68.0"/>
      <point x="447.0" y="20.0"/>
      <point x="298.0" y="20.0" type="curve" smooth="yes"/>
      <point x="107.0" y="20.0" type="line"/>
      <point x="107.0" y="0.0" type="line"/>
    </contour>
    <contour>
      <point x="114.0" y="0.0" type="line"/>
      <point x="114.0" y="627.0" type="line"/>
      <point x="93.0" y="627.0" type="line"/>
      <point x="93.0" y="0.0" type="line"/>
    </contour>
  </outline>
</glyph>
<glyph name="C" format="1">
  <advance width="535.0"/>
  <unicode hex="0043"/>
  <outline>
    <contour>
      <point x="498.0" y="53.0" type="line"/>
      <point x="446.0" y="29.0"/>
      <point x="385.0" y="14.0"/>
      <point x="327.0" y="14.0" type="curve" smooth="yes"/>
      <point x="155.0" y="14.0"/>
      <point x="85.0" y="82.0"/>
      <point x="85.0" y="316.0" type="curve" smooth="yes"/>
      <point x="85.0" y="537.0"/>
      <point x="167.0" y="617.0"/>
      <point x="337.0" y="617.0" type="curve"/>
      <point x="389.0" y="617.0"/>
      <point x="435.0" y="614.0"/>
      <point x="484.0" y="607.0" type="curve"/>
      <point x="484.0" y="628.0" type="line"/>
      <point x="440.0" y="635.0"/>
      <point x="389.0" y="637.0"/>
      <point x="337.0" y="637.0" type="curve"/>
      <point x="160.0" y="637.0"/>
      <point x="64.0" y="552.0"/>
      <point x="64.0" y="316.0" type="curve" smooth="yes"/>
      <point x="64.0" y="77.0"/>
      <point x="144.0" y="-6.0"/>
      <point x="317.0" y="-6.0" type="curve" smooth="yes"/>
      <point x="395.0" y="-6.0"/>
      <point x="453.0" y="15.0"/>
      <point x="498.0" y="33.0" type="curve"/>
    </contour>
    <contour>
      <point x="310.0" y="0" type="move" name="bottom"/>
    </contour>
    <contour>
      <point x="329.0" y="655" type="move" name="top"/>
    </contour>
  </outline>
</glyph>
<glyph name="D" format="1">
  <advance width="615.0"/>
  <unicode hex="0044"/>
  <outline>
    <contour>
      <point x="94.0" y="607.0" type="line"/>
      <point x="242.0" y="607.0" type="line" smooth="yes"/>
      <point x="459.0" y="607.0"/>
      <point x="529.0" y="551.0"/>
      <point x="529.0" y="314.0" type="curve"/>
      <point x="529.0" y="100.0"/>
      <point x="437.0" y="20.0"/>
      <point x="242.0" y="20.0" type="curve" smooth="yes"/>
      <point x="96.0" y="20.0" type="line"/>
      <point x="96.0" y="0.0" type="line"/>
      <point x="242.0" y="0.0" type="line" smooth="yes"/>
      <point x="444.0" y="0.0"/>
      <point x="550.0" y="83.0"/>
      <point x="550.0" y="314.0" type="curve"/>
      <point x="550.0" y="572.0"/>
      <point x="468.0" y="627.0"/>
      <point x="242.0" y="627.0" type="curve" smooth="yes"/>
      <point x="94.0" y="627.0" type="line"/>
    </contour>
    <contour>
      <point x="114.0" y="0.0" type="line"/>
      <point x="114.0" y="627.0" type="line"/>
      <point x="93.0" y="627.0" type="line"/>
      <point x="93.0" y="0.0" type="line"/>
    </contour>
    <contour>
      <point x="293.0" y="645" type="move" name="top"/>
    </contour>
  </outline>
</glyph>
<glyph name="E" format="1">
  <advance width="538.0"/>
  <unicode hex="0045"/>
  <outline>
    <contour>
      <point x="495.0" y="0.0" type="line"/>
      <point x="495.0" y="20.0" type="line"/>
      <point x="114.0" y="20.0" type="line"/>
      <point x="114.0" y="313.0" type="line"/>
      <point x="449.0" y="313.0" type="line"/>
      <point x="449.0" y="333.0" type="line"/>
      <point x="114.0" y="333.0" type="line"/>
      <point x="114.0" y="607.0" type="line"/>
      <point x="486.0" y="607.0" type="line"/>
      <point x="486.0" y="627.0" type="line"/>
      <point x="93.0" y="627.0" type="line"/>
      <point x="93.0" y="0.0" type="line"/>
    </contour>
    <contour>
      <point x="427.0" y="0" type="move" name="ogonek"/>
    </contour>
    <contour>
      <point x="294.0" y="645" type="move" name="top"/>
    </contour>
  </outline>
</glyph>
<glyph name="F" format="2">
  <advance width="509"/>
  <unicode hex="0046"/>
  <outline>
    <contour>
      <point x="114.0" y="0.0" type="line"/>
      <point x="114.0" y="288.0" type="line"/>
      <point x="439.0" y="288.0" type="line"/>
      <point x="439.0" y="308.0" type="line"/>
      <point x="114.0" y="308.0" type="line"/>
      <point x="114.0" y="607.0" type="line"/>
      <point x="476.0" y="607.0" type="line"/>
      <point x="476.0" y="627.0" type="line"/>
      <point x="93.0" y="627.0" type="line"/>
      <point x="93.0" y="0.0" type="line"/>
    </contour>
  </outline>
</glyph>
<glyph name="G" format="2">
  <advance width="618"/>
  <unicode hex="0047"/>
  <anchor x="347.0" y="655" name="top"/>
  <anchor x="336.0" y="0" name="bottom"/>
  <outline>
    <contour>
      <point x="535.0" y="32.0" type="line"/>
      <point x="556.0" y="32.0" type="line"/>
      <point x="556.0" y="298.0" type="line"/>
      <point x="535.0" y="298.0" type="line"/>
    </contour>
    <contour>
      <point x="540.0" y="48.0" type="line"/>
      <point x="509.0" y="32.0"/>
      <point x="399.0" y="14.0"/>
      <point x="335.0" y="14.0" type="curve"/>
      <point x="154.0" y="14.0"/>
      <point x="86.0" y="65.0"/>
      <point x="86.0" y="314.0" type="curve" smooth="yes"/>
      <point x="86.0" y="522.0"/>
      <point x="166.0" y="617.0"/>
      <point x="345.0" y="617.0" type="curve" smooth="yes"/>
      <point x="413.0" y="617.0"/>
      <point x="480.0" y="612.0"/>
      <point x="522.0" y="607.0" type="curve"/>
      <point x="522.0" y="627.0" type="line"/>
      <point x="481.0" y="632.0"/>
      <point x="416.0" y="637.0"/>
      <point x="345.0" y="637.0" type="curve"/>
      <point x="162.0" y="637.0"/>
      <point x="65.0" y="541.0"/>
      <point x="65.0" y="314.0" type="curve" smooth="yes"/>
      <point x="65.0" y="63.0"/>
      <point x="137.0" y="-6.0"/>
      <point x="325.0" y="-6.0" type="curve"/>
      <point x="415.0" y="-6.0"/>
      <point x="526.0" y="18.0"/>
      <point x="556.0" y="32.0" type="curve"/>
    </contour>
    <contour>
      <point x="323.0" y="285.0" type="line"/>
      <point x="556.0" y="285.0" type="line"/>
      <point x="556.0" y="305.0" type="line"/>
      <point x="323.0" y="305.0" type="line"/>
    </contour>
  </outline>
</glyph>
<glyph name="H" format="2">
  <advance width="656"/>
  <unicode hex="0048"/>
  <guideline x="108" y="433" angle="0.0" name="mid" identifier="DgfYEkiRLl"/>
  <guideline x="302" y="627" angle="90" name="mid" identifier="In2GKgSLfo"/>
  <anchor x="328.0" y="645" name="top"/>
  <outline>
    <contour>
      <point x="93.0" y="0.0" type="line"/>
      <point x="114.0" y="0.0" type="line"/>
      <point x="114.0" y="627.0" type="line"/>
      <point x="93.0" y="627.0" type="line"/>
    </contour>
    <contour>
      <point x="542.0" y="0.0" type="line"/>
      <point x="563.0" y="0.0" type="line"/>
      <point x="563.0" y="627.0" type="line"/>
      <point x="542.0" y="627.0" type="line"/>
    </contour>
    <contour>
      <point x="108.0" y="308.0" type="line"/>
      <point x="556.0" y="308.0" type="line"/>
      <point x="556.0" y="328.0" type="line"/>
      <point x="108.0" y="328.0" type="line"/>
    </contour>
  </outline>
</glyph>
<glyph name="I" format="2">
  <advance width="207"/>
  <unicode hex="0049"/>
  <guideline x="128" y="627" angle="90" name="mid" identifier="nQuyvcvuIO"/>
  <anchor x="114.0" y="0" name="ogonek"/>
  <anchor x="104.0" y="645" name="top"/>
  <outline>
    <contour>
      <point x="114.0" y="0.0" type="line"/>
      <point x="114.0" y="627.0" type="line"/>
      <point x="93.0" y="627.0" type="line"/>
      <point x="93.0" y="0.0" type="line"/>
    </contour>
  </outline>
</glyph>
<glyph name="J" format="2">
  <advance width="445"/>
  <unicode hex="004A"/>
  <guideline x="330" y="591" angle="90" name="mid" identifier="EidjIsOgvb"/>
  <anchor x="346.0" y="645" name="top"/>
  <outline>
    <contour>
      <point x="336.0" y="627.0" type="line"/>
      <point x="336.0" y="224.0" type="line" smooth="yes"/>
      <point x="336.0" y="73.0"/>
      <point x="275.0" y="14.0"/>
      <point x="139.0" y="14.0" type="curve"/>
      <point x="84.145631068" y="14.0"/>
      <point x="49.1309351752" y="22.3911613785"/>
      <point x="26.0" y="29.0" type="curve"/>
      <point x="26.0" y="9.0" type="line"/>
      <point x="47.955593704099996" y="2.41332188878"/>
      <point x="83.9074074074" y="-6.0"/>
      <point x="144.0" y="-6.0" type="curve"/>
      <point x="285.0" y="-6.0"/>
      <point x="357.0" y="60.0"/>
      <point x="357.0" y="224.0" type="curve" smooth="yes"/>
      <point x="357.0" y="627.0" type="line"/>
    </contour>
  </outline>
</glyph>
<glyph name="K" format="2">
  <advance width="566"/>
  <unicode hex="004B"/>
  <guideline x="311" y="314" angle="0.0" name="mid" identifier="N9rvjPob4y"/>
  <anchor x="275.0" y="0" name="bottom"/>
  <outline>
    <contour>
      <point x="547.0" y="0.0" type="line"/>
      <point x="252.0" y="319.0" type="line"/>
      <point x="535.0" y="627.0" type="line"/>
      <point x="505.0" y="627.0" type="line"/>
      <point x="232.0" y="328.0" type="line"/>
      <point x="114.0" y="328.0" type="line"/>
      <point x="114.0" y="627.0" type="line"/>
      <point x="93.0" y="627.0" type="line"/>
      <point x="93.0" y="0.0" type="line"/>
      <point x="114.0" y="0.0" type="line"/>
      <point x="114.0" y="308.0" type="line"/>
      <point x="232.0" y="308.0" type="line"/>
      <point x="516.0" y="0.0" type="line"/>
    </contour>
  </outline>
</glyph>
<glyph name="L" format="2">
  <advance width="487"/>
  <unicode hex="004C"/>
  <guideline x="91" y="627" angle="90" name="mid" identifier="f6Rh29nim8"/>
  <anchor x="104.0" y="645" name="top"/>
  <anchor x="285.0" y="0" name="bottom"/>
  <anchor x="363.0" y="627" name="caronalt"/>
  <outline>
    <contour>
      <point x="463.0" y="0.0" type="line"/>
      <point x="463.0" y="20.0" type="line"/>
      <point x="114.0" y="20.0" type="line"/>
      <point x="114.0" y="627.0" type="line"/>
      <point x="93.0" y="627.0" type="line"/>
      <point x="93.0" y="0.0" type="line"/>
    </contour>
  </outline>
</glyph>
<glyph name="M" format="2">
  <advance width="743"/>
  <unicode hex="004D"/>
  <outline>
    <contour>
      <point x="650.0" y="0.0" type="line"/>
      <point x="650.0" y="627.0" type="line"/>
      <point x="619.0" y="627.0" type="line"/>
      <point x="372.0" y="153.0" type="line"/>
      <point x="124.0" y="627.0" type="line"/>
      <point x="93.0" y="627.0" type="line"/>
      <point x="93.0" y="0.0" type="line"/>
      <point x="114.0" y="0.0" type="line"/>
      <point x="114.0" y="603.0" type="line"/>
      <point x="359.0" y="130.0" type="line"/>
      <point x="384.0" y="130.0" type="line"/>
      <point x="629.0" y="602.0" type="line"/>
      <point x="629.0" y="0.0" type="line"/>
    </contour>
  </outline>
</glyph>
<glyph name="N" format="2">
  <advance width="673"/>
  <unicode hex="004E"/>
  <guideline x="185" y="268" angle="90.0" identifier="Wm6bBjOeVA"/>
  <guideline x="412" y="283" angle="90.0" identifier="eLEh89Ag2S"/>
  <guideline x="40" y="314" angle="0.0" name="mid" identifier="rU8MGSFZ1F"/>
  <guideline x="318" y="627" angle="90" name="mid" identifier="JwLAdzG5bb"/>
  <anchor x="341.0" y="645" name="top"/>
  <anchor x="341.0" y="0" name="bottom"/>
  <outline>
    <contour>
      <point x="580.0" y="0.0" type="line"/>
      <point x="580.0" y="627.0" type="line"/>
      <point x="559.0" y="627.0" type="line"/>
      <point x="559.0" y="24.0" type="line"/>
      <point x="123.0" y="627.0" type="line"/>
      <point x="93.0" y="627.0" type="line"/>
      <point x="93.0" y="0.0" type="line"/>
      <point x="114.0" y="0.0" type="line"/>
      <point x="114.0" y="603.0" type="line"/>
      <point x="550.0" y="0.0" type="line"/>
    </contour>
  </outline>
</glyph>
<glyph name="O" format="2">
  <advance width="662"/>
  <unicode hex="004F"/>
  <anchor x="332.0" y="655" name="top"/>
  <outline>
    <contour>
      <point x="332.0" y="-6.0" type="curve"/>
      <point x="511.0" y="-6.0"/>
      <point x="597.0" y="79.0"/>
      <point x="597.0" y="316.0" type="curve"/>
      <point x="597.0" y="575.0"/>
      <point x="525.0" y="637.0"/>
      <point x="332.0" y="637.0" type="curve"/>
      <point x="152.0" y="637.0"/>
      <point x="65.0" y="552.0"/>
      <point x="65.0" y="316.0" type="curve"/>
      <point x="65.0" y="56.0"/>
      <point x="137.0" y="-6.0"/>
    </contour>
    <contour>
      <point x="332.0" y="14.0" type="curve" smooth="yes"/>
      <point x="148.0" y="14.0"/>
      <point x="86.0" y="67.0"/>
      <point x="86.0" y="316.0" type="curve"/>
      <point x="86.0" y="542.0"/>
      <point x="163.0" y="617.0"/>
      <point x="332.0" y="617.0" type="curve"/>
      <point x="514.0" y="617.0"/>
      <point x="576.0" y="567.0"/>
      <point x="576.0" y="316.0" type="curve"/>
      <point x="576.0" y="92.0"/>
      <point x="500.0" y="14.0"/>
    </contour>
  </outline>
</glyph>
<glyph name="P" format="1">
  <advance width="571.0"/>
  <unicode hex="0050"/>
  <outline>
    <contour>
      <point x="295.0" y="228.0" type="line" smooth="yes"/>
      <point x="441.0" y="228.0"/>
      <point x="523.0" y="288.0"/>
      <point x="523.0" y="435.0" type="curve"/>
      <point x="523.0" y="571.0"/>
      <point x="452.0" y="627.0"/>
      <point x="292.0" y="627.0" type="curve" smooth="yes"/>
      <point x="103.0" y="627.0" type="line"/>
      <point x="103.0" y="607.0" type="line"/>
      <point x="292.0" y="607.0" type="line" smooth="yes"/>
      <point x="437.0" y="607.0"/>
      <point x="502.0" y="559.0"/>
      <point x="502.0" y="435.0" type="curve"/>
      <point x="502.0" y="299.0"/>
      <point x="427.0" y="247.0"/>
      <point x="292.0" y="247.0" type="curve" smooth="yes"/>
      <point x="103.0" y="247.0" type="line"/>
      <point x="103.0" y="228.0" type="line"/>
    </contour>
    <contour>
      <point x="114.0" y="0.0" type="line"/>
      <point x="114.0" y="627.0" type="line"/>
      <point x="93.0" y="627.0" type="line"/>
      <point x="93.0" y="0.0" type="line"/>
    </contour>
  </outline>
</glyph>
<glyph name="Q" format="2">
  <advance width="662"/>
  <unicode hex="0051"/>
  <outline>
    <contour>
      <point x="417.0" y="20.0" type="line"/>
      <point x="530.0" y="-128.0" type="line"/>
      <point x="557.0" y="-128.0" type="line"/>
      <point x="443.0" y="20.0" type="line"/>
    </contour>
    <component base="O"/>
  </outline>
</glyph>
<glyph name="R" format="1">
  <advance width="580.0"/>
  <unicode hex="0052"/>
  <outline>
    <contour>
      <point x="295.0" y="248.0" type="line" smooth="yes"/>
      <point x="441.0" y="248.0"/>
      <point x="523.0" y="305.0"/>
      <point x="523.0" y="445.0" type="curve"/>
      <point x="523.0" y="574.0"/>
      <point x="452.0" y="627.0"/>
      <point x="292.0" y="627.0" type="curve" smooth="yes"/>
      <point x="103.0" y="627.0" type="line"/>
      <point x="103.0" y="607.0" type="line"/>
      <point x="292.0" y="607.0" type="line" smooth="yes"/>
      <point x="437.0" y="607.0"/>
      <point x="502.0" y="562.0"/>
      <point x="502.0" y="445.0" type="curve"/>
      <point x="502.0" y="316.0"/>
      <point x="427.0" y="267.0"/>
      <point x="292.0" y="267.0" type="curve" smooth="yes"/>
      <point x="103.0" y="267.0" type="line"/>
      <point x="103.0" y="248.0" type="line"/>
    </contour>
    <contour>
      <point x="114.0" y="0.0" type="line"/>
      <point x="114.0" y="627.0" type="line"/>
      <point x="93.0" y="627.0" type="line"/>
      <point x="93.0" y="0.0" type="line"/>
    </contour>
    <contour>
      <point x="331.0" y="256.0" type="line"/>
      <point x="510.0" y="0.0" type="line"/>
      <point x="535.0" y="0.0" type="line"/>
      <point x="355.0" y="256.0" type="line"/>
    </contour>
    <contour>
      <point x="294.0" y="645" type="move" name="top"/>
    </contour>
    <contour>
      <point x="284.0" y="0" type="move" name="bottom"/>
    </contour>
  </outline>
</glyph>
<glyph name="S" format="2">
  <advance width="521"/>
  <unicode hex="0053"/>
  <anchor x="265.0" y="655" name="top"/>
  <anchor x="249.0" y="0" name="bottom"/>
  <outline>
    <contour>
      <point x="167.0" y="333.0" type="curve" smooth="yes"/>
      <point x="342.0" y="291.0" type="line" smooth="yes"/>
      <point x="429.0" y="270.0"/>
      <point x="453.0" y="244.0"/>
      <point x="453.0" y="169.0" type="curve"/>
      <point x="453.0" y="68.0"/>
      <point x="426.0" y="14.0"/>
      <point x="266.0" y="14.0" type="curve"/>
      <point x="165.0" y="14.0"/>
      <point x="95.0" y="33.0"/>
      <point x="56.0" y="45.0" type="curve"/>
      <point x="56.0" y="25.0" type="line"/>
      <point x="89.0" y="12.0"/>
      <point x="166.0" y="-6.0"/>
      <point x="266.0" y="-6.0" type="curve"/>
      <point x="439.0" y="-6.0"/>
      <point x="474.0" y="60.0"/>
      <point x="474.0" y="168.0" type="curve"/>
      <point x="474.0" y="257.0"/>
      <point x="442.0" y="289.0"/>
      <point x="351.0" y="311.0" type="curve" smooth="yes"/>
      <point x="176.0" y="354.0" type="line" smooth="yes"/>
      <point x="100.6246003915911" y="372.520812475209"/>
      <point x="79.0" y="409.607476635514"/>
      <point x="79.0" y="473.0" type="curve"/>
      <point x="79.0" y="575.0"/>
      <point x="131.0" y="617.0"/>
      <point x="272.0" y="617.0" type="curve" smooth="yes"/>
      <point x="338.0" y="617.0"/>
      <point x="392.0" y="608.0"/>
      <point x="426.0" y="599.0" type="curve"/>
      <point x="426.0" y="619.0" type="line"/>
      <point x="392.0" y="629.0"/>
      <point x="343.0" y="637.0"/>
      <point x="272.0" y="637.0" type="curve" smooth="yes"/>
      <point x="120.0" y="637.0"/>
      <point x="58.0" y="587.0"/>
      <point x="58.0" y="472.0" type="curve"/>
      <point x="58.0" y="393.1968503937008"/>
      <point x="90.6648783352912" y="351.3204291995301"/>
    </contour>
  </outline>
</glyph>
<glyph name="T" format="1">
  <advance width="551.0"/>
  <unicode hex="0054"/>
  <outline>
    <contour>
      <point x="528.0" y="607.0" type="line"/>
      <point x="528.0" y="627.0" type="line"/>
      <point x="23.0" y="627.0" type="line"/>
      <point x="23.0" y="607.0" type="line"/>
      <point x="265.0" y="607.0" type="line"/>
      <point x="265.0" y="0.0" type="line"/>
      <point x="286.0" y="0.0" type="line"/>
      <point x="286.0" y="607.0" type="line"/>
    </contour>
    <contour>
      <point x="276.0" y="645" type="move" name="top"/>
    </contour>
    <contour>
      <point x="276.0" y="0" type="move" name="bottom"/>
    </contour>
  </outline>
</glyph>
<glyph name="U" format="2">
  <advance width="644"/>
  <unicode hex="0055"/>
  <guideline x="311" y="627" angle="90" name="mid" identifier="iLW9Dvlpm3"/>
  <anchor x="317.0" y="645.0" name="top"/>
  <anchor x="441.0" y="14" name="ogonekalt"/>
  <outline>
    <contour>
      <point x="535.0" y="627.0" type="line"/>
      <point x="535.0" y="238.0" type="line" smooth="yes"/>
      <point x="535.0" y="85.0"/>
      <point x="479.0" y="14.0"/>
      <point x="318.0" y="14.0" type="curve"/>
      <point x="161.0" y="14.0"/>
      <point x="109.0" y="86.0"/>
      <point x="109.0" y="238.0" type="curve" smooth="yes"/>
      <point x="109.0" y="627.0" type="line"/>
      <point x="88.0" y="627.0" type="line"/>
      <point x="88.0" y="238.0" type="line" smooth="yes"/>
      <point x="88.0" y="78.0"/>
      <point x="150.0" y="-6.0"/>
      <point x="318.0" y="-6.0" type="curve"/>
      <point x="495.0" y="-6.0"/>
      <point x="556.0" y="79.0"/>
      <point x="556.0" y="238.0" type="curve" smooth="yes"/>
      <point x="556.0" y="627.0" type="line"/>
    </contour>
  </outline>
</glyph>
<glyph name="V" format="1">
  <advance width="572.0"/>
  <unicode hex="0056"/>
  <outline>
    <contour>
      <point x="549.0" y="627.0" type="line"/>
      <point x="526.0" y="627.0" type="line"/>
      <point x="337.0" y="151.0" type="line" smooth="yes"/>
      <point x="316.01073664601574" y="98.13815155292849"/>
      <point x="295.97791291056154" y="53.92545607314516"/>
      <point x="280.0" y="0.0" type="curve"/>
      <point x="297.0" y="0.0" type="line"/>
    </contour>
    <contour>
      <point x="23.0" y="627.0" type="line"/>
      <point x="275.0" y="0.0" type="line"/>
      <point x="292.0" y="0.0" type="line"/>
      <point x="276.0" y="54.0"/>
      <point x="256.0" y="98.0"/>
      <point x="235.0" y="151.0" type="curve" smooth="yes"/>
      <point x="46.0" y="627.0" type="line"/>
    </contour>
  </outline>
</glyph>
<glyph name="W" format="2">
  <advance width="866"/>
  <unicode hex="0057"/>
  <anchor x="434.0" y="645" name="top"/>
  <outline>
    <contour>
      <point x="439.0" y="627.0" type="curve"/>
      <point x="422.0" y="627.0" type="line"/>
      <point x="262.0" y="151.0" type="line" smooth="yes"/>
      <point x="244.0" y="99.0"/>
      <point x="232.0" y="53.0"/>
      <point x="216.0" y="0.0" type="curve"/>
      <point x="233.0" y="0.0" type="line"/>
      <point x="393.0" y="469.0" type="line" smooth="yes"/>
      <point x="411.0" y="523.0"/>
      <point x="427.0" y="574.0"/>
    </contour>
    <contour>
      <point x="29.0" y="627.0" type="line"/>
      <point x="211.0" y="0.0" type="line"/>
      <point x="228.0" y="0.0" type="line"/>
      <point x="215.0" y="53.0"/>
      <point x="205.0" y="97.0"/>
      <point x="189.0" y="151.0" type="curve" smooth="yes"/>
      <point x="51.0" y="627.0" type="line"/>
    </contour>
    <contour>
      <point x="837.0" y="627.0" type="line"/>
      <point x="815.0" y="627.0" type="line"/>
      <point x="678.0" y="151.0" type="line" smooth="yes"/>
      <point x="662.0" y="97.0"/>
      <point x="651.0" y="53.0"/>
      <point x="638.0" y="0.0" type="curve"/>
      <point x="655.0" y="0.0" type="line"/>
    </contour>
    <contour>
      <point x="427.0" y="627.0" type="line"/>
      <point x="439.0" y="574.0"/>
      <point x="455.0" y="523.0"/>
      <point x="473.0" y="469.0" type="curve" smooth="yes"/>
      <point x="633.0" y="0.0" type="line"/>
      <point x="650.0" y="0.0" type="line"/>
      <point x="634.0" y="53.0"/>
      <point x="622.0" y="99.0"/>
      <point x="604.0" y="151.0" type="curve" smooth="yes"/>
      <point x="444.0" y="627.0" type="line"/>
    </contour>
  </outline>
</glyph>
<glyph name="X" format="2">
  <advance width="533"/>
  <unicode hex="0058"/>
  <guideline x="278" y="432" angle="90.0" identifier="lIaPdka4lV"/>
  <anchor x="262.0" y="645" name="top"/>
  <outline>
    <contour>
      <point x="516.0" y="0.0" type="line"/>
      <point x="275.0" y="324.0" type="line"/>
      <point x="495.0" y="627.0" type="line"/>
      <point x="470.0" y="627.0" type="line"/>
      <point x="262.0" y="339.0" type="line"/>
      <point x="55.0" y="627.0" type="line"/>
      <point x="30.0" y="627.0" type="line"/>
      <point x="250.0" y="323.0" type="line"/>
      <point x="23.0" y="0.0" type="line"/>
      <point x="48.0" y="0.0" type="line"/>
      <point x="262.0" y="308.0" type="line"/>
      <point x="490.0" y="0.0" type="line"/>
    </contour>
  </outline>
</glyph>
<glyph name="Y" format="2">
  <advance width="563"/>
  <unicode hex="0059"/>
  <guideline x="293" y="451" angle="90.0" identifier="hcmUgh2Q61"/>
  <anchor x="283.0" y="645.0" name="top"/>
  <outline>
    <contour>
      <point x="539.0" y="627.0" type="line"/>
      <point x="516.0" y="627.0" type="line"/>
      <point x="283.0" y="268.0" type="line"/>
      <point x="43.0" y="627.0" type="line"/>
      <point x="20.0" y="627.0" type="line"/>
      <point x="272.0" y="248.0" type="line"/>
      <point x="272.0" y="0.0" type="line"/>
      <point x="293.0" y="0.0" type="line"/>
      <point x="293.0" y="248.0" type="line"/>
    </contour>
  </outline>
</glyph>
<glyph name="Z" format="1">
  <advance width="508.0"/>
  <unicode hex="005A"/>
  <outline>
    <contour>
      <point x="483.0" y="0.0" type="line"/>
      <point x="483.0" y="20.0" type="line"/>
      <point x="53.0" y="20.0" type="line"/>
      <point x="464.0" y="607.0" type="line"/>
      <point x="464.0" y="627.0" type="line"/>
      <point x="57.0" y="627.0" type="line"/>
      <point x="57.0" y="607.0" type="line"/>
      <point x="440.0" y="607.0" type="line"/>
      <point x="28.0" y="20.0" type="line"/>
      <point x="28.0" y="0.0" type="line"/>
    </contour>
    <contour>
      <point x="261.0" y="645" type="move" name="top"/>
    </contour>
  </outline>
</glyph>
<glyph name="bracketleft" format="2">
  <advance width="286"/>
  <unicode hex="005B"/>
  <outline>
    <contour>
      <point x="256.0" y="-82.0" type="line"/>
      <point x="256.0" y="-62.0" type="line"/>
      <point x="112.0" y="-62.0" type="line"/>
      <point x="112.0" y="687.0" type="line"/>
      <point x="256.0" y="687.0" type="line"/>
      <point x="256.0" y="707.0" type="line"/>
      <point x="91.0" y="707.0" type="line"/>
      <point x="91.0" y="-82.0" type="line"/>
    </contour>
  </outline>
</glyph>
<glyph name="backslash" format="2">
  <advance width="291"/>
  <unicode hex="005C"/>
  <outline>
    <contour>
      <point x="256.0" y="-80.0" type="line"/>
      <point x="56.0" y="707.0" type="line"/>
      <point x="34.0" y="707.0" type="line"/>
      <point x="234.0" y="-80.0" type="line"/>
    </contour>
  </outline>
</glyph>
<glyph name="asciicircum" format="2">
  <advance width="500"/>
  <unicode hex="005E"/>
  <outline>
    <contour>
      <point x="384.0" y="365.0" type="line"/>
      <point x="405.0" y="365.0" type="line"/>
      <point x="262.0" y="627.0" type="line"/>
      <point x="240.0" y="627.0" type="line"/>
    </contour>
    <contour>
      <point x="94.0" y="365.0" type="line"/>
      <point x="116.0" y="365.0" type="line"/>
      <point x="261.0" y="627.0" type="line"/>
      <point x="239.0" y="627.0" type="line"/>
    </contour>
  </outline>
</glyph>
<glyph name="grave" format="2">
  <advance width="234"/>
  <unicode hex="0060"/>
  <guideline x="152" y="549" angle="90" name="mid" identifier="orxkJooPqd"/>
  <anchor x="142" y="530" name="_top"/>
  <outline>
    <contour>
      <point x="50.0" y="682.0" type="line"/>
      <point x="162.0" y="571.0" type="line"/>
      <point x="184.0" y="571.0" type="line"/>
      <point x="84.0" y="682.0" type="line"/>
    </contour>
  </outline>
</glyph>
<glyph name="a" format="2">
  <advance width="500"/>
  <unicode hex="0061"/>
  <guideline x="219" y="172" angle="90.0" identifier="aflDOcQOlh"/>
  <guideline x="280" y="316" angle="0" identifier="MZv7eLtfeX"/>
  <anchor x="248.0" y="530.0" name="top"/>
  <anchor x="419.0" y="0.0" name="ogonek"/>
  <outline>
    <contour>
      <point x="48.0" y="141.0" type="curve"/>
      <point x="48.0" y="41.0"/>
      <point x="93.0" y="-6.0"/>
      <point x="195.0" y="-6.0" type="curve"/>
      <point x="281.0" y="-6.0"/>
      <point x="362.0" y="20.0"/>
      <point x="401.0" y="57.0" type="curve"/>
      <point x="401.0" y="76.0" type="line"/>
      <point x="360.10963747" y="39.0039577112"/>
      <point x="277.0" y="13.0"/>
      <point x="200.0" y="13.0" type="curve"/>
      <point x="106.0" y="13.0"/>
      <point x="68.0" y="53.0"/>
      <point x="68.0" y="142.0" type="curve"/>
      <point x="68.0" y="232.0"/>
      <point x="116.0" y="260.0"/>
      <point x="237.0" y="260.0" type="curve"/>
      <point x="302.0" y="260.0"/>
      <point x="358.0" y="254.0"/>
      <point x="408.0" y="245.0" type="curve"/>
      <point x="408.0" y="264.0" type="line"/>
      <point x="367.0" y="271.0"/>
      <point x="315.0" y="279.0"/>
      <point x="237.0" y="279.0" type="curve"/>
      <point x="105.0" y="279.0"/>
      <point x="48.0" y="244.0"/>
    </contour>
    <contour>
      <point x="403.0" y="0.0" type="line"/>
      <point x="419.0" y="0.0" type="line"/>
      <point x="419.0" y="327.0" type="line" smooth="yes"/>
      <point x="419.0" y="442.0"/>
      <point x="379.0" y="504.0"/>
      <point x="255.0" y="504.0" type="curve" smooth="yes"/>
      <point x="183.0" y="504.0"/>
      <point x="149.0" y="498.0"/>
      <point x="100.0" y="486.0" type="curve"/>
      <point x="100.0" y="466.0" type="line"/>
      <point x="148.0" y="479.0"/>
      <point x="188.0" y="485.0"/>
      <point x="249.0" y="485.0" type="curve" smooth="yes"/>
      <point x="371.0" y="485.0"/>
      <point x="399.0" y="426.0"/>
      <point x="399.0" y="327.0" type="curve" smooth="yes"/>
      <point x="399.0" y="56.0" type="line"/>
      <point x="401.0" y="56.0" type="line"/>
    </contour>
  </outline>
</glyph>
<glyph name="b" format="2">
  <advance width="544"/>
  <unicode hex="0062"/>
  <outline>
    <contour>
      <point x="84.0" y="18.0" type="line"/>
      <point x="104.0" y="18.0" type="line"/>
      <point x="104.0" y="665.0" type="line"/>
      <point x="84.0" y="665.0" type="line"/>
    </contour>
    <contour>
      <point x="104.0" y="428.0" type="line"/>
      <point x="158.0" y="469.0"/>
      <point x="221.0" y="485.0"/>
      <point x="281.0" y="485.0" type="curve"/>
      <point x="400.0" y="485.0"/>
      <point x="462.0" y="436.0"/>
      <point x="462.0" y="249.0" type="curve" smooth="yes"/>
      <point x="462.0" y="61.0"/>
      <point x="393.0" y="13.0"/>
      <point x="245.0" y="13.0" type="curve"/>
      <point x="185.0" y="13.0"/>
      <point x="132.0" y="22.0"/>
      <point x="96.0" y="35.0" type="curve"/>
      <point x="84.0" y="18.0" type="line"/>
      <point x="123.0" y="5.0"/>
      <point x="176.0" y="-6.0"/>
      <point x="245.0" y="-6.0" type="curve"/>
      <point x="406.0" y="-6.0"/>
      <point x="482.0" y="52.0"/>
      <point x="482.0" y="249.0" type="curve" smooth="yes"/>
      <point x="482.0" y="445.0"/>
      <point x="411.0" y="504.0"/>
      <point x="286.0" y="504.0" type="curve"/>
      <point x="220.0" y="504.0"/>
      <point x="157.0" y="488.0"/>
      <point x="100.0" y="446.0" type="curve"/>
    </contour>
  </outline>
</glyph>
<glyph name="c" format="2">
  <advance width="454"/>
  <unicode hex="0063"/>
  <anchor x="251.0" y="0" name="bottom"/>
  <anchor x="272.0" y="530" name="top"/>
  <outline>
    <contour>
      <point x="416.0" y="31.0" type="curve"/>
      <point x="416.0" y="50.0" type="line"/>
      <point x="391.0" y="36.0"/>
      <point x="327.0" y="13.0"/>
      <point x="253.0" y="13.0" type="curve"/>
      <point x="125.0" y="13.0"/>
      <point x="82.0" y="72.4957983193"/>
      <point x="82.0" y="249.0" type="curve" smooth="yes"/>
      <point x="82.0" y="426.504273504"/>
      <point x="147.0" y="485.0"/>
      <point x="294.0" y="485.0" type="curve"/>
      <point x="357.0" y="485.0"/>
      <point x="381.0" y="480.0"/>
      <point x="403.0" y="476.0" type="curve"/>
      <point x="403.0" y="495.0" type="line"/>
      <point x="384.0" y="498.0"/>
      <point x="358.0" y="504.0"/>
      <point x="294.0" y="504.0" type="curve"/>
      <point x="135.0" y="504.0"/>
      <point x="62.0" y="438.486166008"/>
      <point x="62.0" y="249.0" type="curve" smooth="yes"/>
      <point x="62.0" y="60.4785992218"/>
      <point x="109.0" y="-6.0"/>
      <point x="248.0" y="-6.0" type="curve"/>
      <point x="331.0" y="-6.0"/>
      <point x="391.0" y="15.0"/>
    </contour>
  </outline>
</glyph>
<glyph name="d" format="2">
  <advance width="545"/>
  <unicode hex="0064"/>
  <anchor x="550.0" y="665" name="caronalt"/>
  <outline>
    <contour>
      <point x="460.0" y="665.0" type="line"/>
      <point x="440.0" y="665.0" type="line"/>
      <point x="440.0" y="50.0" type="line"/>
      <point x="442.0" y="50.0" type="line"/>
      <point x="444.0" y="0.0" type="line"/>
      <point x="460.0" y="0.0" type="line"/>
    </contour>
    <contour>
      <point x="440.0" y="70.0" type="line"/>
      <point x="386.0" y="27.0"/>
      <point x="323.0" y="13.0"/>
      <point x="263.0" y="13.0" type="curve"/>
      <point x="144.0" y="13.0"/>
      <point x="82.0" y="62.0"/>
      <point x="82.0" y="249.0" type="curve" smooth="yes"/>
      <point x="82.0" y="437.0"/>
      <point x="151.0" y="485.0"/>
      <point x="299.0" y="485.0" type="curve"/>
      <point x="365.0" y="485.0"/>
      <point x="412.0" y="474.0"/>
      <point x="448.0" y="456.0" type="curve"/>
      <point x="458.0" y="472.0" type="line"/>
      <point x="419.0" y="490.0"/>
      <point x="374.0" y="504.0"/>
      <point x="299.0" y="504.0" type="curve"/>
      <point x="138.0" y="504.0"/>
      <point x="62.0" y="446.0"/>
      <point x="62.0" y="249.0" type="curve" smooth="yes"/>
      <point x="62.0" y="53.0"/>
      <point x="133.0" y="-6.0"/>
      <point x="258.0" y="-6.0" type="curve"/>
      <point x="324.0" y="-6.0"/>
      <point x="387.0" y="8.0"/>
      <point x="444.0" y="52.0" type="curve"/>
    </contour>
  </outline>
</glyph>
<glyph name="e" format="2">
  <advance width="503"/>
  <unicode hex="0065"/>
  <guideline x="295" y="180" angle="90.0" identifier="D3BaUBB0Jt"/>
  <anchor x="267.0" y="530" name="top"/>
  <anchor x="389.0" y="14" name="ogonekalt"/>
  <outline>
    <contour>
      <point x="266.0" y="485.0" type="curve"/>
      <point x="388.4878048780488" y="485.0"/>
      <point x="428.0" y="419.0"/>
      <point x="428.0" y="302.0" type="curve"/>
      <point x="428.0" y="286.0"/>
      <point x="427.0" y="274.0"/>
      <point x="426.0" y="265.0" type="curve"/>
      <point x="82.0" y="265.0" type="line"/>
      <point x="82.0" y="419.0"/>
      <point x="133.56043956043956" y="485.0"/>
    </contour>
    <contour>
      <point x="427.0" y="27.0" type="curve"/>
      <point x="427.0" y="47.0" type="line"/>
      <point x="398.0" y="32.0"/>
      <point x="334.0" y="13.0"/>
      <point x="272.0" y="13.0" type="curve" smooth="yes"/>
      <point x="147.0" y="13.0"/>
      <point x="82.0" y="65.0"/>
      <point x="82.0" y="246.0" type="curve"/>
      <point x="444.0" y="246.0" type="line"/>
      <point x="446.0" y="262.0"/>
      <point x="448.0" y="282.0"/>
      <point x="448.0" y="302.0" type="curve"/>
      <point x="448.0" y="444.0"/>
      <point x="390.6304347826087" y="504.0"/>
      <point x="266.0" y="504.0" type="curve"/>
      <point x="125.62376237623764" y="504.0"/>
      <point x="62.0" y="434.8235294117647"/>
      <point x="62.0" y="252.0" type="curve" smooth="yes"/>
      <point x="62.0" y="61.78823529411764"/>
      <point x="125.0" y="-6.0"/>
      <point x="268.0" y="-6.0" type="curve" smooth="yes"/>
      <point x="339.0" y="-6.0"/>
      <point x="402.0" y="15.0"/>
    </contour>
  </outline>
</glyph>
<glyph name="f" format="1">
  <advance width="348.0"/>
  <unicode hex="0066"/>
  <outline>
    <contour>
      <point x="342.0" y="668.0" type="line"/>
      <point x="327.0" y="671.0"/>
      <point x="304.0" y="675.0"/>
      <point x="266.0" y="675.0" type="curve"/>
      <point x="150.0" y="675.0"/>
      <point x="114.0" y="618.0"/>
      <point x="114.0" y="518.0" type="curve"/>
      <point x="114.0" y="0.0" type="line"/>
      <point x="134.0" y="0.0" type="line"/>
      <point x="134.0" y="518.0" type="line"/>
      <point x="134.0" y="611.0"/>
      <point x="163.0" y="656.0"/>
      <point x="262.0" y="656.0" type="curve"/>
      <point x="297.0" y="656.0"/>
      <point x="327.0" y="653.0"/>
      <point x="342.0" y="649.0" type="curve"/>
    </contour>
    <contour>
      <point x="26.0" y="475.0" type="line"/>
      <point x="327.0" y="475.0" type="line"/>
      <point x="327.0" y="494.0" type="line"/>
      <point x="26.0" y="494.0" type="line"/>
    </contour>
  </outline>
</glyph>
<glyph name="g" format="2">
  <advance width="539"/>
  <unicode hex="0067"/>
  <anchor x="274.0" y="530" name="top"/>
  <outline>
    <contour>
      <point x="121.0" y="-139.0" type="line"/>
      <point x="149.0" y="-150.0"/>
      <point x="200.0" y="-162.0"/>
      <point x="272.0" y="-162.0" type="curve"/>
      <point x="412.0" y="-162.0"/>
      <point x="454.0" y="-99.0"/>
      <point x="454.0" y="50.0" type="curve" smooth="yes"/>
      <point x="454.0" y="485.0" type="line"/>
      <point x="434.0" y="485.0" type="line"/>
      <point x="434.0" y="48.0" type="line" smooth="yes"/>
      <point x="434.0" y="-90.0"/>
      <point x="397.0" y="-143.0"/>
      <point x="266.0" y="-143.0" type="curve"/>
      <point x="202.0" y="-143.0"/>
      <point x="144.0" y="-129.0"/>
      <point x="121.0" y="-119.0" type="curve"/>
    </contour>
    <contour>
      <point x="434.0" y="110.0" type="line"/>
      <point x="381.0" y="68.0"/>
      <point x="319.64406779661016" y="53.0"/>
      <point x="261.0" y="53.0" type="curve"/>
      <point x="143.0" y="53.0"/>
      <point x="82.0" y="98.0"/>
      <point x="82.0" y="269.0" type="curve" smooth="yes"/>
      <point x="82.0" y="441.0"/>
      <point x="150.0" y="485.0"/>
      <point x="297.0" y="485.0" type="curve"/>
      <point x="359.0" y="485.0"/>
      <point x="413.0" y="475.0"/>
      <point x="444.0" y="468.0" type="curve"/>
      <point x="454.0" y="485.0" type="line"/>
      <point x="420.0" y="493.0"/>
      <point x="368.0" y="504.0"/>
      <point x="297.0" y="504.0" type="curve"/>
      <point x="137.0" y="504.0"/>
      <point x="62.0" y="451.0"/>
      <point x="62.0" y="269.0" type="curve" smooth="yes"/>
      <point x="62.0" y="88.0"/>
      <point x="132.0" y="34.0"/>
      <point x="256.0" y="34.0" type="curve"/>
      <point x="320.5806451612903" y="34.0"/>
      <point x="382.0" y="49.0"/>
      <point x="438.0" y="92.0" type="curve"/>
    </contour>
  </outline>
</glyph>
<glyph name="h" format="2">
  <advance width="552"/>
  <unicode hex="0068"/>
  <guideline x="202" y="239" angle="0" identifier="ehuyup7cUb"/>
  <anchor x="96.0" y="680" name="top"/>
  <outline>
    <contour>
      <point x="85.0" y="0.0" type="line"/>
      <point x="105.0" y="0.0" type="line"/>
      <point x="105.0" y="665.0" type="line"/>
      <point x="85.0" y="665.0" type="line"/>
    </contour>
    <contour>
      <point x="97.0" y="422.0" type="line"/>
      <point x="166.0" y="462.0"/>
      <point x="233.01" y="485.0"/>
      <point x="300.0" y="485.0" type="curve" smooth="yes"/>
      <point x="403.0" y="485.0"/>
      <point x="451.0" y="440.0"/>
      <point x="451.0" y="342.0" type="curve" smooth="yes"/>
      <point x="451.0" y="0.0" type="line"/>
      <point x="471.0" y="0.0" type="line"/>
      <point x="471.0" y="342.0" type="line" smooth="yes"/>
      <point x="471.0" y="451.0"/>
      <point x="410.0" y="504.0"/>
      <point x="307.0" y="504.0" type="curve" smooth="yes"/>
      <point x="226.85507246376812" y="504.0"/>
      <point x="164.0" y="479.0"/>
      <point x="97.0" y="442.0" type="curve"/>
    </contour>
  </outline>
</glyph>
<glyph name="i" format="2">
  <advance width="190"/>
  <unicode hex="0069"/>
  <guideline x="1481" y="844" angle="0" identifier="8SYb9IUV3s"/>
  <guideline x="101" y="247" angle="90.0" name="mid" identifier="4cLAFjQsKE"/>
  <anchor x="105.0" y="0" name="ogonek"/>
  <outline>
    <contour>
      <point x="85.0" y="0.0" type="line"/>
      <point x="105.0" y="0.0" type="line"/>
      <point x="105.0" y="494.0" type="line"/>
      <point x="85.0" y="494.0" type="line"/>
    </contour>
    <contour>
      <point x="83.0" y="631.0" type="line"/>
      <point x="107.0" y="631.0" type="line"/>
      <point x="107.0" y="664.0" type="line"/>
      <point x="83.0" y="664.0" type="line"/>
    </contour>
  </outline>
</glyph>
<glyph name="k" format="2">
  <advance width="474"/>
  <unicode hex="006B"/>
  <guideline x="514" y="77" angle="225.0" identifier="V3Ao8DIXbw"/>
  <anchor x="244.0" y="0" name="bottom"/>
  <outline>
    <contour>
      <point x="421.0" y="0.0" type="line"/>
      <point x="451.0" y="0.0" type="line"/>
      <point x="207.0" y="252.0" type="line"/>
      <point x="179.0" y="251.0" type="line"/>
    </contour>
    <contour>
      <point x="413.0" y="494.0" type="line"/>
      <point x="179.0" y="251.0" type="line"/>
      <point x="207.0" y="252.0" type="line"/>
      <point x="441.0" y="494.0" type="line"/>
    </contour>
    <contour>
      <point x="99.0" y="240.0" type="line"/>
      <point x="192.0" y="240.0" type="line"/>
      <point x="192.0" y="259.0" type="line"/>
      <point x="99.0" y="259.0" type="line"/>
    </contour>
    <component base="l"/>
  </outline>
</glyph>
<glyph name="l" format="2">
  <advance width="190"/>
  <unicode hex="006C"/>
  <anchor x="95.0" y="680" name="top"/>
  <anchor x="95.0" y="0" name="bottom"/>
  <anchor x="195.0" y="665" name="caronalt"/>
  <outline>
    <contour>
      <point x="105.0" y="0.0" type="line"/>
      <point x="105.0" y="665.0" type="line"/>
      <point x="85.0" y="665.0" type="line"/>
      <point x="85.0" y="0.0" type="line"/>
    </contour>
  </outline>
</glyph>
<glyph name="m" format="2">
  <advance width="812"/>
  <unicode hex="006D"/>
  <outline>
    <contour>
      <point x="85.0" y="0.0" type="line"/>
      <point x="105.0" y="0.0" type="line"/>
      <point x="105.0" y="429.0" type="line"/>
      <point x="101.0" y="494.0" type="line"/>
      <point x="85.0" y="494.0" type="line"/>
    </contour>
    <contour>
      <point x="97.0" y="423.0" type="line"/>
      <point x="157.0" y="458.0"/>
      <point x="211.0" y="485.0"/>
      <point x="267.0" y="485.0" type="curve" smooth="yes"/>
      <point x="357.0" y="485.0"/>
      <point x="398.0" y="448.0"/>
      <point x="398.0" y="368.0" type="curve" smooth="yes"/>
      <point x="398.0" y="0.0" type="line"/>
      <point x="418.0" y="0.0" type="line"/>
      <point x="418.0" y="368.0" type="line" smooth="yes"/>
      <point x="418.0" y="459.0"/>
      <point x="364.0" y="504.0"/>
      <point x="274.0" y="504.0" type="curve" smooth="yes"/>
      <point x="206.0" y="504.0"/>
      <point x="157.0" y="477.0"/>
      <point x="106.0" y="448.0" type="curve"/>
      <point x="97.0" y="448.0" type="line"/>
    </contour>
    <contour>
      <point x="396.0" y="425.0" type="line"/>
      <point x="459.0" y="462.0"/>
      <point x="520.0" y="485.0"/>
      <point x="580.0" y="485.0" type="curve" smooth="yes"/>
      <point x="670.0" y="485.0"/>
      <point x="711.0" y="448.0"/>
      <point x="711.0" y="368.0" type="curve" smooth="yes"/>
      <point x="711.0" y="0.0" type="line"/>
      <point x="731.0" y="0.0" type="line"/>
      <point x="731.0" y="368.0" type="line" smooth="yes"/>
      <point x="731.0" y="459.0"/>
      <point x="677.0" y="504.0"/>
      <point x="587.0" y="504.0" type="curve" smooth="yes"/>
      <point x="511.0" y="504.0"/>
      <point x="457.0" y="480.0"/>
      <point x="401.0" y="448.0" type="curve"/>
      <point x="393.0" y="448.0" type="line"/>
    </contour>
  </outline>
</glyph>
<glyph name="n" format="2">
  <advance width="552"/>
  <unicode hex="006E"/>
  <guideline x="202" y="239" angle="0" identifier="zvSbNjuAeS"/>
  <guideline x="272" y="0" angle="90" name="mid" identifier="qqnfgYvKxf"/>
  <anchor x="277.0" y="0" name="bottom"/>
  <anchor x="277.0" y="530" name="top"/>
  <anchor x="15.0" y="665" name="caronalt"/>
  <outline>
    <contour>
      <point x="85.0" y="0.0" type="line"/>
      <point x="105.0" y="0.0" type="line"/>
      <point x="105.0" y="446.0" type="line"/>
      <point x="103.0" y="446.0" type="line"/>
      <point x="101.0" y="494.0" type="line"/>
      <point x="85.0" y="494.0" type="line"/>
    </contour>
    <contour>
      <point x="97.0" y="422.0" type="line"/>
      <point x="166.0" y="462.0"/>
      <point x="233.0" y="485.0"/>
      <point x="300.0" y="485.0" type="curve" smooth="yes"/>
      <point x="403.0" y="485.0"/>
      <point x="451.0" y="440.0"/>
      <point x="451.0" y="342.0" type="curve" smooth="yes"/>
      <point x="451.0" y="0.0" type="line"/>
      <point x="471.0" y="0.0" type="line"/>
      <point x="471.0" y="342.0" type="line" smooth="yes"/>
      <point x="471.0" y="451.0"/>
      <point x="413.0" y="504.0"/>
      <point x="307.0" y="504.0" type="curve" smooth="yes"/>
      <point x="227.0" y="504.0"/>
      <point x="166.0" y="479.0"/>
      <point x="97.0" y="442.0" type="curve"/>
    </contour>
  </outline>
</glyph>
<glyph name="o" format="2">
  <advance width="554"/>
  <unicode hex="006F"/>
  <guideline x="31" y="220" angle="90.0" identifier="hi07OPf4V2"/>
  <guideline x="175" y="255" angle="90.0" identifier="jmEQsPrvOL"/>
  <guideline x="359" y="227" angle="90.0" identifier="9RngfHjMhW"/>
  <guideline x="503" y="286" angle="90.0" identifier="ZPuWTwD1SO"/>
  <anchor x="277.0" y="530.0" name="top"/>
  <outline>
    <contour>
      <point x="277.0" y="-6.0" type="curve" smooth="yes"/>
      <point x="436.0" y="-6.0"/>
      <point x="491.0" y="61.0"/>
      <point x="491.0" y="249.0" type="curve" smooth="yes"/>
      <point x="491.0" y="449.0"/>
      <point x="445.0" y="504.0"/>
      <point x="277.0" y="504.0" type="curve" smooth="yes"/>
      <point x="118.0" y="504.0"/>
      <point x="63.0" y="437.0"/>
      <point x="63.0" y="249.0" type="curve" smooth="yes"/>
      <point x="63.0" y="49.0"/>
      <point x="109.0" y="-6.0"/>
    </contour>
    <contour>
      <point x="277.0" y="13.0" type="curve" smooth="yes"/>
      <point x="123.0" y="13.0"/>
      <point x="83.0" y="62.0"/>
      <point x="83.0" y="249.0" type="curve" smooth="yes"/>
      <point x="83.0" y="428.0"/>
      <point x="130.0" y="485.0"/>
      <point x="277.0" y="485.0" type="curve" smooth="yes"/>
      <point x="431.0" y="485.0"/>
      <point x="471.0" y="436.0"/>
      <point x="471.0" y="249.0" type="curve" smooth="yes"/>
      <point x="471.0" y="70.0"/>
      <point x="424.0" y="13.0"/>
    </contour>
  </outline>
</glyph>
<glyph name="p" format="2">
  <advance width="545"/>
  <unicode hex="0070"/>
  <guideline x="303" y="247" angle="0" identifier="D6xmLA3M7I"/>
  <outline>
    <contour>
      <point x="85.0" y="-152.0" type="line"/>
      <point x="105.0" y="-152.0" type="line"/>
      <point x="105.0" y="448.0" type="line"/>
      <point x="103.0" y="448.0" type="line"/>
      <point x="101.0" y="494.0" type="line"/>
      <point x="85.0" y="494.0" type="line"/>
    </contour>
    <contour>
      <point x="105.0" y="428.0" type="line"/>
      <point x="159.0" y="470.0"/>
      <point x="222.0" y="485.0"/>
      <point x="282.0" y="485.0" type="curve"/>
      <point x="401.0" y="485.0"/>
      <point x="463.0" y="436.0"/>
      <point x="463.0" y="249.0" type="curve" smooth="yes"/>
      <point x="463.0" y="61.0"/>
      <point x="394.0" y="13.0"/>
      <point x="246.0" y="13.0" type="curve"/>
      <point x="180.0" y="13.0"/>
      <point x="133.0" y="24.0"/>
      <point x="97.0" y="42.0" type="curve"/>
      <point x="87.0" y="26.0" type="line"/>
      <point x="126.0" y="8.0"/>
      <point x="171.0" y="-6.0"/>
      <point x="246.0" y="-6.0" type="curve"/>
      <point x="407.0" y="-6.0"/>
      <point x="483.0" y="52.0"/>
      <point x="483.0" y="249.0" type="curve" smooth="yes"/>
      <point x="483.0" y="445.0"/>
      <point x="412.0" y="504.0"/>
      <point x="287.0" y="504.0" type="curve"/>
      <point x="221.0" y="504.0"/>
      <point x="158.0" y="489.0"/>
      <point x="101.0" y="446.0" type="curve"/>
    </contour>
  </outline>
</glyph>
<glyph name="q" format="1">
  <advance width="545.0"/>
  <unicode hex="0071"/>
  <outline>
    <contour>
      <point x="460.0" y="-152.0" type="line"/>
      <point x="460.0" y="485.0" type="line"/>
      <point x="440.0" y="485.0" type="line"/>
      <point x="440.0" y="-152.0" type="line"/>
    </contour>
    <contour>
      <point x="440.0" y="70.0" type="line"/>
      <point x="389.0" y="27.0"/>
      <point x="323.0" y="13.0"/>
      <point x="263.0" y="13.0" type="curve"/>
      <point x="144.0" y="13.0"/>
      <point x="82.0" y="62.0"/>
      <point x="82.0" y="249.0" type="curve" smooth="yes"/>
      <point x="82.0" y="437.0"/>
      <point x="151.0" y="485.0"/>
      <point x="299.0" y="485.0" type="curve"/>
      <point x="363.0" y="485.0"/>
      <point x="416.0" y="476.0"/>
      <point x="450.0" y="468.0" type="curve"/>
      <point x="460.0" y="485.0" type="line"/>
      <point x="423.0" y="494.0"/>
      <point x="372.0" y="504.0"/>
      <point x="299.0" y="504.0" type="curve"/>
      <point x="138.0" y="504.0"/>
      <point x="62.0" y="446.0"/>
      <point x="62.0" y="249.0" type="curve" smooth="yes"/>
      <point x="62.0" y="53.0"/>
      <point x="133.0" y="-6.0"/>
      <point x="258.0" y="-6.0" type="curve"/>
      <point x="324.0" y="-6.0"/>
      <point x="390.0" y="8.0"/>
      <point x="444.0" y="52.0" type="curve"/>
    </contour>
  </outline>
</glyph>
<glyph name="r" format="2">
  <advance width="349"/>
  <unicode hex="0072"/>
  <anchor x="95.0" y="0.0" name="bottom"/>
  <anchor x="205.0" y="530" name="top"/>
  <outline>
    <contour>
      <point x="85.0" y="0.0" type="line"/>
      <point x="105.0" y="0.0" type="line"/>
      <point x="105.0" y="429.0" type="line"/>
      <point x="101.0" y="494.0" type="line"/>
      <point x="85.0" y="494.0" type="line"/>
    </contour>
    <contour>
      <point x="97.0" y="422.0" type="line"/>
      <point x="157.0" y="459.0"/>
      <point x="227.0" y="477.0"/>
      <point x="277.0" y="477.0" type="curve"/>
      <point x="288.0" y="477.0"/>
      <point x="311.0" y="478.0"/>
      <point x="325.0" y="475.0" type="curve"/>
      <point x="325.0" y="494.0" type="line"/>
      <point x="317.0" y="495.0"/>
      <point x="299.0" y="496.0"/>
      <point x="284.0" y="496.0" type="curve"/>
      <point x="226.0" y="496.0"/>
      <point x="164.0" y="478.0"/>
      <point x="106.0" y="446.0" type="curve"/>
      <point x="97.0" y="446.0" type="line"/>
    </contour>
  </outline>
</glyph>
<glyph name="s" format="2">
  <advance width="449"/>
  <unicode hex="0073"/>
  <guideline x="226" y="291" angle="81.98290692634467" identifier="M7860KlHzF"/>
  <anchor x="217.0" y="0" name="bottom"/>
  <anchor x="233.0" y="530.0" name="top"/>
  <outline>
    <contour>
      <point x="82.0" y="362.0" type="curve" smooth="yes"/>
      <point x="82.0" y="438.0"/>
      <point x="105.0" y="485.0"/>
      <point x="234.0" y="485.0" type="curve" smooth="yes"/>
      <point x="296.0" y="485.0"/>
      <point x="340.0" y="479.0"/>
      <point x="366.0" y="475.0" type="curve"/>
      <point x="366.0" y="494.0" type="line"/>
      <point x="344.0" y="497.0"/>
      <point x="314.0" y="504.0"/>
      <point x="234.0" y="504.0" type="curve" smooth="yes"/>
      <point x="95.0" y="504.0"/>
      <point x="62.0" y="447.0"/>
      <point x="62.0" y="361.0" type="curve" smooth="yes"/>
      <point x="62.0" y="303.145631068"/>
      <point x="85.0343092185" y="270.994281797"/>
      <point x="151.0" y="260.0" type="curve" smooth="yes"/>
      <point x="283.0" y="238.0" type="line" smooth="yes"/>
      <point x="357.0" y="226.0"/>
      <point x="380.0" y="205.0"/>
      <point x="380.0" y="138.0" type="curve" smooth="yes"/>
      <point x="380.0" y="44.0"/>
      <point x="335.0" y="13.0"/>
      <point x="238.0" y="13.0" type="curve" smooth="yes"/>
      <point x="149.0" y="13.0"/>
      <point x="83.0" y="27.0"/>
      <point x="51.0" y="40.0" type="curve"/>
      <point x="51.0" y="20.0" type="line"/>
      <point x="77.0" y="9.0"/>
      <point x="143.0" y="-6.0"/>
      <point x="238.0" y="-6.0" type="curve" smooth="yes"/>
      <point x="352.0" y="-6.0"/>
      <point x="400.0" y="37.0"/>
      <point x="400.0" y="138.0" type="curve" smooth="yes"/>
      <point x="400.0" y="217.0"/>
      <point x="373.0" y="244.0"/>
      <point x="289.0" y="258.0" type="curve" smooth="yes"/>
      <point x="155.0" y="280.0" type="line" smooth="yes"/>
      <point x="101.0127266277" y="288.863582195"/>
      <point x="82.0" y="313.19047619"/>
    </contour>
  </outline>
</glyph>
<glyph name="t" format="1">
  <advance width="366.0"/>
  <unicode hex="0074"/>
  <outline>
    <contour>
      <point x="349.0" y="6.0" type="curve"/>
      <point x="349.0" y="24.0" type="line"/>
      <point x="331.0" y="18.0"/>
      <point x="295.0" y="13.0"/>
      <point x="265.0" y="13.0" type="curve" smooth="yes"/>
      <point x="157.0" y="13.0"/>
      <point x="133.0" y="63.0"/>
      <point x="133.0" y="170.0" type="curve" smooth="yes"/>
      <point x="133.0" y="619.0" type="line"/>
      <point x="118.0" y="619.0" type="line"/>
      <point x="113.0" y="494.0" type="line"/>
      <point x="113.0" y="170.0" type="line" smooth="yes"/>
      <point x="113.0" y="53.0"/>
      <point x="139.0" y="-6.0"/>
      <point x="262.0" y="-6.0" type="curve" smooth="yes"/>
      <point x="300.0" y="-6.0"/>
      <point x="330.0" y="0.0"/>
    </contour>
    <contour>
      <point x="25.0" y="475.0" type="line"/>
      <point x="343.0" y="475.0" type="line"/>
      <point x="343.0" y="494.0" type="line"/>
      <point x="25.0" y="494.0" type="line"/>
    </contour>
    <contour>
      <point x="239.0" y="0" type="move" name="bottom"/>
    </contour>
    <contour>
      <point x="223.0" y="715" type="move" name="caronalt"/>
    </contour>
  </outline>
</glyph>
<glyph name="u" format="1">
  <advance width="542.0"/>
  <unicode hex="0075"/>
  <outline>
    <contour>
      <point x="81.0" y="156.0" type="line" smooth="yes"/>
      <point x="81.0" y="47.0"/>
      <point x="138.0" y="-6.0"/>
      <point x="243.0" y="-6.0" type="curve" smooth="yes"/>
      <point x="316.0" y="-6.0"/>
      <point x="384.0" y="19.0"/>
      <point x="445.0" y="58.0" type="curve"/>
      <point x="445.0" y="76.0" type="line"/>
      <point x="378.0" y="36.0"/>
      <point x="314.0" y="13.0"/>
      <point x="250.0" y="13.0" type="curve" smooth="yes"/>
      <point x="147.0" y="13.0"/>
      <point x="101.0" y="58.0"/>
      <point x="101.0" y="156.0" type="curve" smooth="yes"/>
      <point x="101.0" y="494.0" type="line"/>
      <point x="81.0" y="494.0" type="line"/>
    </contour>
    <contour>
      <point x="457.0" y="494.0" type="line"/>
      <point x="437.0" y="494.0" type="line"/>
      <point x="437.0" y="53.0" type="line"/>
      <point x="439.0" y="53.0" type="line"/>
      <point x="441.0" y="0.0" type="line"/>
      <point x="457.0" y="0.0" type="line"/>
    </contour>
    <contour>
      <point x="268.0" y="520.0" type="move" name="top"/>
    </contour>
    <contour>
      <point x="457.0" y="0.0" type="move" name="ogonek"/>
    </contour>
  </outline>
</glyph>
<glyph name="v" format="2">
  <advance width="487"/>
  <unicode hex="0076"/>
  <guideline x="252" y="494" angle="90.0" name="mid" identifier="1lanCfaWOG"/>
  <guideline x="115" y="459" angle="202.99727096438093" identifier="omUG37XCsR"/>
  <outline>
    <contour>
      <point x="463.0" y="494.0" type="line"/>
      <point x="440.0" y="494.0" type="line"/>
      <point x="244.0" y="20.0" type="line"/>
      <point x="47.0" y="494.0" type="line"/>
      <point x="24.0" y="494.0" type="line"/>
      <point x="232.0" y="0.0" type="line"/>
      <point x="255.0" y="0.0" type="line"/>
    </contour>
  </outline>
</glyph>
<glyph name="w" format="1">
  <advance width="683.0"/>
  <unicode hex="0077"/>
  <outline>
    <contour>
      <point x="650.0" y="494.0" type="line"/>
      <point x="629.0" y="494.0" type="line"/>
      <point x="497.0" y="24.0" type="line"/>
      <point x="349.0" y="494.0" type="line"/>
      <point x="320.0" y="494.0" type="line"/>
      <point x="186.0" y="24.0" type="line"/>
      <point x="54.0" y="494.0" type="line"/>
      <point x="33.0" y="494.0" type="line"/>
      <point x="173.0" y="0.0" type="line"/>
      <point x="199.0" y="0.0" type="line"/>
      <point x="335.0" y="475.0" type="line"/>
      <point x="483.0" y="0.0" type="line"/>
      <point x="509.0" y="0.0" type="line"/>
    </contour>
    <contour>
      <point x="335.0" y="520" type="move" name="top"/>
    </contour>
  </outline>
</glyph>
<glyph name="x" format="2">
  <advance width="431"/>
  <unicode hex="0078"/>
  <guideline x="248" y="257" angle="90" name="mid" identifier="eLbcrTStbP"/>
  <anchor x="215.0" y="520" name="top"/>
  <outline>
    <contour>
      <point x="405.0" y="0.0" type="line"/>
      <point x="228.0" y="257.0" type="line"/>
      <point x="393.0" y="494.0" type="line"/>
      <point x="368.0" y="494.0" type="line"/>
      <point x="215.0" y="272.0" type="line"/>
      <point x="63.0" y="494.0" type="line"/>
      <point x="38.0" y="494.0" type="line"/>
      <point x="202.0" y="256.0" type="line"/>
      <point x="26.0" y="0.0" type="line"/>
      <point x="51.0" y="0.0" type="line"/>
      <point x="215.0" y="242.0" type="line"/>
      <point x="380.0" y="0.0" type="line"/>
    </contour>
  </outline>
</glyph>
<glyph name="y" format="1">
  <advance width="489.0"/>
  <unicode hex="0079"/>
  <outline>
    <contour>
      <point x="239.0" y="4.0" type="line"/>
      <point x="199.0" y="-98.0"/>
      <point x="185.0" y="-143.0"/>
      <point x="117.0" y="-143.0" type="curve"/>
      <point x="97.0" y="-143.0"/>
      <point x="76.0" y="-141.0"/>
      <point x="56.0" y="-136.0" type="curve"/>
      <point x="56.0" y="-155.0" type="line"/>
      <point x="77.0" y="-160.0"/>
      <point x="96.0" y="-162.0"/>
      <point x="117.0" y="-162.0" type="curve"/>
      <point x="194.0" y="-162.0"/>
      <point x="215.0" y="-110.0"/>
      <point x="238.0" y="-54.0" type="curve" smooth="yes"/>
      <point x="465.0" y="494.0" type="line"/>
      <point x="443.0" y="494.0" type="line"/>
      <point x="250.0" y="27.0" type="line"/>
      <point x="45.0" y="494.0" type="line"/>
      <point x="22.0" y="494.0" type="line"/>
    </contour>
    <contour>
      <point x="250.0" y="520" type="move" name="top"/>
    </contour>
  </outline>
</glyph>
<glyph name="z" format="2">
  <advance width="425"/>
  <unicode hex="007A"/>
  <guideline x="281" y="225" angle="148.07391885825038" identifier="maZnOu3oKB"/>
  <anchor x="214.0" y="520" name="top"/>
  <outline>
    <contour>
      <point x="395.0" y="0.0" type="line"/>
      <point x="395.0" y="19.0" type="line"/>
      <point x="59.0" y="19.0" type="line"/>
      <point x="378.0" y="475.0" type="line"/>
      <point x="378.0" y="494.0" type="line"/>
      <point x="54.0" y="494.0" type="line"/>
      <point x="54.0" y="475.0" type="line"/>
      <point x="355.0" y="475.0" type="line"/>
      <point x="36.0" y="19.0" type="line"/>
      <point x="36.0" y="0.0" type="line"/>
    </contour>
  </outline>
</glyph>
<glyph name="braceleft" format="2">
  <advance width="291"/>
  <unicode hex="007B"/>
  <guideline x="301" y="313" angle="0" name="mid" identifier="Ulx70414ad"/>
  <outline>
    <contour>
      <point x="59.0" y="317.0" type="line"/>
      <point x="103.0" y="325.0"/>
      <point x="140.0" y="370.0"/>
      <point x="140.0" y="473.0" type="curve" smooth="yes"/>
      <point x="140.0" y="583.0" type="line"/>
      <point x="140.0" y="654.0"/>
      <point x="181.0" y="698.0"/>
      <point x="263.0" y="698.0" type="curve"/>
      <point x="263.0" y="718.0" type="line"/>
      <point x="169.0" y="718.0"/>
      <point x="119.0" y="665.0"/>
      <point x="119.0" y="583.0" type="curve"/>
      <point x="119.0" y="473.0" type="line" smooth="yes"/>
      <point x="119.0" y="358.0"/>
      <point x="67.0" y="325.0"/>
      <point x="30.0" y="325.0" type="curve"/>
      <point x="22.0" y="325.0" type="line"/>
      <point x="22.0" y="305.0" type="line"/>
      <point x="30.0" y="305.0" type="line"/>
      <point x="67.0" y="305.0"/>
      <point x="119.0" y="272.0"/>
      <point x="119.0" y="157.0" type="curve" smooth="yes"/>
      <point x="119.0" y="43.0" type="line"/>
      <point x="119.0" y="-39.0"/>
      <point x="169.0" y="-92.0"/>
      <point x="263.0" y="-92.0" type="curve"/>
      <point x="263.0" y="-72.0" type="line"/>
      <point x="181.0" y="-72.0"/>
      <point x="140.0" y="-28.0"/>
      <point x="140.0" y="43.0" type="curve"/>
      <point x="140.0" y="157.0" type="line"/>
      <point x="140.0" y="260.0"/>
      <point x="103.0" y="307.0"/>
      <point x="59.0" y="315.0" type="curve"/>
    </contour>
  </outline>
</glyph>
<glyph name="bar" format="2">
  <advance width="203"/>
  <unicode hex="007C"/>
  <outline>
    <contour>
      <point x="112.0" y="-80.0" type="line"/>
      <point x="112.0" y="707.0" type="line"/>
      <point x="91.0" y="707.0" type="line"/>
      <point x="91.0" y="-80.0" type="line"/>
    </contour>
  </outline>
</glyph>
<glyph name="asciitilde" format="2">
  <advance width="665"/>
  <unicode hex="007E"/>
  <guideline x="161.0" y="0.0" angle="90.0" name="mid" identifier="LS4wow04VB"/>
  <outline>
    <contour>
      <point x="601.0" y="458.0" type="curve"/>
      <point x="581.0" y="458.0" type="line"/>
      <point x="581.0" y="369.0"/>
      <point x="558.0" y="266.0"/>
      <point x="471.0" y="266.0" type="curve"/>
      <point x="368.0" y="266.0"/>
      <point x="321.0" y="466.0"/>
      <point x="206.0" y="466.0" type="curve"/>
      <point x="95.0" y="466.0"/>
      <point x="64.0" y="354.0"/>
      <point x="64.0" y="255.0" type="curve"/>
      <point x="84.0" y="255.0" type="line"/>
      <point x="84.0" y="340.0"/>
      <point x="102.0" y="447.0"/>
      <point x="204.0" y="447.0" type="curve"/>
      <point x="309.0" y="447.0"/>
      <point x="353.0" y="247.0"/>
      <point x="469.0" y="247.0" type="curve"/>
      <point x="574.0" y="247.0"/>
      <point x="601.0" y="359.0"/>
    </contour>
  </outline>
</glyph>
<glyph name="cent" format="1">
  <advance width="452.0"/>
  <unicode hex="00A2"/>
  <outline>
    <contour>
      <point x="276.0" y="574.0" type="line"/>
      <point x="276.0" y="671.0" type="line"/>
      <point x="256.0" y="671.0" type="line"/>
      <point x="256.0" y="574.0" type="line"/>
    </contour>
    <contour>
      <point x="276.0" y="-23.0" type="line"/>
      <point x="276.0" y="80.0" type="line"/>
      <point x="256.0" y="80.0" type="line"/>
      <point x="256.0" y="-23.0" type="line"/>
    </contour>
    <component base="c" xOffset="-8.0" yOffset="77.0"/>
  </outline>
</glyph>
<glyph name="sterling" format="2">
  <advance width="512"/>
  <unicode hex="00A3"/>
  <outline>
    <contour>
      <point x="471.0" y="0.0" type="line"/>
      <point x="471.0" y="20.0" type="line"/>
      <point x="77.0" y="20.0" type="line"/>
      <point x="77.0" y="23.0" type="line"/>
      <point x="125.82250308533146" y="52.95926325669072"/>
      <point x="154.0" y="96.88732394366197"/>
      <point x="154.0" y="195.0" type="curve"/>
      <point x="154.0" y="456.0" type="line" smooth="yes"/>
      <point x="154.0" y="568.0"/>
      <point x="201.0" y="617.0"/>
      <point x="312.0" y="617.0" type="curve" smooth="yes"/>
      <point x="375.0" y="617.0"/>
      <point x="416.0" y="607.0"/>
      <point x="455.0" y="598.0" type="curve"/>
      <point x="455.0" y="618.0" type="line"/>
      <point x="420.0" y="627.0"/>
      <point x="375.0" y="637.0"/>
      <point x="312.0" y="637.0" type="curve" smooth="yes"/>
      <point x="189.0" y="637.0"/>
      <point x="133.0" y="579.0"/>
      <point x="133.0" y="456.0" type="curve" smooth="yes"/>
      <point x="133.0" y="195.0" type="line"/>
      <point x="133.0" y="105.58333333333334"/>
      <point x="108.78530106032271" y="57.10488739281454"/>
      <point x="45.0" y="21.0" type="curve"/>
      <point x="45.0" y="0.0" type="line"/>
    </contour>
    <contour>
      <point x="45.0" y="309.0" type="line"/>
      <point x="45.0" y="289.0" type="line"/>
      <point x="421.0" y="289.0" type="line"/>
      <point x="421.0" y="309.0" type="line"/>
    </contour>
  </outline>
</glyph>
<glyph name="currency" format="2">
  <advance width="668"/>
  <unicode hex="00A4"/>
  <guideline x="129" y="442" angle="44.620563298581025" identifier="JkDyWwzOZ0"/>
  <outline>
    <contour>
      <point x="594.0" y="563.0" type="line"/>
      <point x="580.0" y="578.0" type="line"/>
      <point x="500.0" y="498.0" type="line"/>
      <point x="514.0" y="484.0" type="line"/>
    </contour>
    <contour>
      <point x="583.0" y="55.0" type="line"/>
      <point x="597.0" y="69.0" type="line"/>
      <point x="518.0" y="148.0" type="line"/>
      <point x="504.0" y="134.0" type="line"/>
    </contour>
    <contour>
      <point x="72.0" y="67.0" type="line"/>
      <point x="86.0" y="53.0" type="line"/>
      <point x="166.0" y="133.0" type="line"/>
      <point x="152.0" y="147.0" type="line"/>
    </contour>
    <contour>
      <point x="88.0" y="578.0" type="line"/>
      <point x="74.0" y="564.0" type="line"/>
      <point x="153.0" y="485.0" type="line"/>
      <point x="167.0" y="499.0" type="line"/>
    </contour>
    <contour>
      <point x="332.0" y="575.0" type="curve" smooth="yes"/>
      <point x="183.0" y="575.0"/>
      <point x="73.0" y="465.0"/>
      <point x="73.0" y="316.0" type="curve" smooth="yes"/>
      <point x="73.0" y="167.0"/>
      <point x="184.0" y="56.0"/>
      <point x="334.0" y="56.0" type="curve" smooth="yes"/>
      <point x="483.0" y="56.0"/>
      <point x="595.0" y="166.0"/>
      <point x="595.0" y="315.0" type="curve" smooth="yes"/>
      <point x="595.0" y="464.0"/>
      <point x="483.0" y="575.0"/>
    </contour>
    <contour>
      <point x="93.0" y="316.0" type="curve" smooth="yes"/>
      <point x="93.0" y="453.0"/>
      <point x="197.0" y="556.0"/>
      <point x="332.0" y="556.0" type="curve" smooth="yes"/>
      <point x="471.0" y="556.0"/>
      <point x="575.0" y="453.0"/>
      <point x="575.0" y="316.0" type="curve" smooth="yes"/>
      <point x="575.0" y="177.0"/>
      <point x="472.0" y="75.0"/>
      <point x="334.0" y="75.0" type="curve" smooth="yes"/>
      <point x="198.0" y="75.0"/>
      <point x="93.0" y="177.0"/>
    </contour>
  </outline>
</glyph>
<glyph name="yen" format="2">
  <advance width="559"/>
  <unicode hex="00A5"/>
  <guideline x="293" y="451" angle="90.0" identifier="vWR59pwf12"/>
  <outline>
    <contour>
      <point x="67.0" y="272.0" type="line"/>
      <point x="67.0" y="252.0" type="line"/>
      <point x="494.0" y="252.0" type="line"/>
      <point x="494.0" y="272.0" type="line"/>
    </contour>
    <contour>
      <point x="67.0" y="142.0" type="line"/>
      <point x="67.0" y="122.0" type="line"/>
      <point x="494.0" y="122.0" type="line"/>
      <point x="494.0" y="142.0" type="line"/>
    </contour>
    <contour>
      <point x="515.0" y="627.0" type="line"/>
      <point x="492.0" y="627.0" type="line"/>
      <point x="281.0" y="278.0" type="line"/>
      <point x="63.0" y="627.0" type="line"/>
      <point x="40.0" y="627.0" type="line"/>
      <point x="270.0" y="258.0" type="line"/>
      <point x="270.0" y="0.0" type="line"/>
      <point x="291.0" y="0.0" type="line"/>
      <point x="291.0" y="258.0" type="line"/>
    </contour>
  </outline>
</glyph>
<glyph name="brokenbar" format="1">
  <advance width="203.0"/>
  <unicode hex="00A6"/>
  <outline>
    <contour>
      <point x="112.0" y="380.0" type="line"/>
      <point x="112.0" y="707.0" type="line"/>
      <point x="91.0" y="707.0" type="line"/>
      <point x="91.0" y="380.0" type="line"/>
    </contour>
    <contour>
      <point x="112.0" y="-80.0" type="line"/>
      <point x="112.0" y="247.0" type="line"/>
      <point x="91.0" y="247.0" type="line"/>
      <point x="91.0" y="-80.0" type="line"/>
    </contour>
  </outline>
</glyph>
<glyph name="section" format="2">
  <advance width="516"/>
  <unicode hex="00A7"/>
  <outline>
    <contour>
      <point x="143.0" y="464.0" type="line"/>
      <point x="90.4090745949" y="434.231551657"/>
      <point x="46.0" y="395.0"/>
      <point x="46.0" y="336.0" type="curve"/>
      <point x="46.0" y="282.0"/>
      <point x="70.0" y="260.0"/>
      <point x="121.0" y="241.0" type="curve" smooth="yes"/>
      <point x="333.0" y="163.0" type="line" smooth="yes"/>
      <point x="390.0" y="142.0"/>
      <point x="411.0" y="124.0"/>
      <point x="411.0" y="88.0" type="curve"/>
      <point x="411.0" y="27.0"/>
      <point x="352.0" y="9.0"/>
      <point x="256.0" y="9.0" type="curve"/>
      <point x="193.0" y="8.0"/>
      <point x="135.0" y="18.0"/>
      <point x="98.0" y="31.0" type="curve"/>
      <point x="98.0" y="10.0" type="line"/>
      <point x="132.0" y="0.0"/>
      <point x="184.0" y="-10.0"/>
      <point x="256.0" y="-10.0" type="curve"/>
      <point x="377.0" y="-10.0"/>
      <point x="431.0" y="22.0"/>
      <point x="431.0" y="90.0" type="curve"/>
      <point x="431.0" y="133.0"/>
      <point x="407.0" y="157.0"/>
      <point x="341.0" y="181.0" type="curve" smooth="yes"/>
      <point x="132.0" y="258.0" type="line" smooth="yes"/>
      <point x="85.0" y="275.0"/>
      <point x="66.0" y="292.0"/>
      <point x="66.0" y="339.0" type="curve"/>
      <point x="66.0" y="391.0"/>
      <point x="108.85336511" y="426.45828867"/>
      <point x="162.0" y="455.0" type="curve"/>
    </contour>
    <contour>
      <point x="260.0" y="618.0" type="curve"/>
      <point x="323.0" y="619.0"/>
      <point x="381.0" y="609.0"/>
      <point x="418.0" y="596.0" type="curve"/>
      <point x="418.0" y="617.0" type="line"/>
      <point x="384.0" y="627.0"/>
      <point x="332.0" y="637.0"/>
      <point x="260.0" y="637.0" type="curve"/>
      <point x="139.0" y="637.0"/>
      <point x="85.0" y="605.0"/>
      <point x="85.0" y="537.0" type="curve"/>
      <point x="85.0" y="494.0"/>
      <point x="109.0" y="470.0"/>
      <point x="175.0" y="446.0" type="curve" smooth="yes"/>
      <point x="384.0" y="369.0" type="line" smooth="yes"/>
      <point x="431.0" y="352.0"/>
      <point x="450.0" y="335.0"/>
      <point x="450.0" y="288.0" type="curve"/>
      <point x="450.0" y="236.0"/>
      <point x="407.14663489" y="200.54171133"/>
      <point x="354.0" y="172.0" type="curve"/>
      <point x="373.0" y="163.0" type="line"/>
      <point x="425.590925405" y="192.768448343"/>
      <point x="470.0" y="232.0"/>
      <point x="470.0" y="291.0" type="curve"/>
      <point x="470.0" y="345.0"/>
      <point x="446.0" y="367.0"/>
      <point x="395.0" y="386.0" type="curve" smooth="yes"/>
      <point x="183.0" y="464.0" type="line" smooth="yes"/>
      <point x="126.0" y="485.0"/>
      <point x="105.0" y="503.0"/>
      <point x="105.0" y="539.0" type="curve"/>
      <point x="105.0" y="600.0"/>
      <point x="164.0" y="618.0"/>
    </contour>
  </outline>
</glyph>
<glyph name="dieresis" format="2">
  <advance width="296"/>
  <unicode hex="00A8"/>
  <guideline x="148" y="581" angle="90" name="mid" identifier="IeSaaVdx8v"/>
  <anchor x="148" y="530" name="_top"/>
  <outline>
    <contour>
      <point x="246.0" y="571.0" type="line"/>
      <point x="246.0" y="602.0" type="line"/>
      <point x="218.0" y="602.0" type="line"/>
      <point x="218.0" y="571.0" type="line"/>
    </contour>
    <contour>
      <point x="78.0" y="571.0" type="line"/>
      <point x="78.0" y="602.0" type="line"/>
      <point x="50.0" y="602.0" type="line"/>
      <point x="50.0" y="571.0" type="line"/>
    </contour>
  </outline>
</glyph>
<glyph name="copyright" format="2">
  <advance width="736"/>
  <unicode hex="00A9"/>
  <outline>
    <contour>
      <point x="369.0" y="-10.0" type="curve"/>
      <point x="573.6451612903226" y="-10.0"/>
      <point x="674.0" y="96.0"/>
      <point x="674.0" y="314.0" type="curve"/>
      <point x="674.0" y="531.0"/>
      <point x="573.6451612903226" y="637.0"/>
      <point x="369.0" y="637.0" type="curve"/>
      <point x="162.3653846153846" y="637.0"/>
      <point x="62.0" y="531.0"/>
      <point x="62.0" y="314.0" type="curve"/>
      <point x="62.0" y="96.0"/>
      <point x="162.3653846153846" y="-10.0"/>
    </contour>
    <contour>
      <point x="369.0" y="618.0" type="curve"/>
      <point x="560.6494845360825" y="618.0"/>
      <point x="655.0" y="518.0"/>
      <point x="655.0" y="314.0" type="curve"/>
      <point x="655.0" y="109.0"/>
      <point x="560.6494845360825" y="9.0"/>
      <point x="369.0" y="9.0" type="curve"/>
      <point x="176.35616438356163" y="9.0"/>
      <point x="82.0" y="109.0"/>
      <point x="82.0" y="314.0" type="curve"/>
      <point x="82.0" y="518.0"/>
      <point x="176.35616438356163" y="618.0"/>
    </contour>
    <contour>
      <point x="480.0" y="177.0" type="line"/>
      <point x="450.256718190988" y="163.56755015076877"/>
      <point x="417.2352941176471" y="156.0"/>
      <point x="383.0" y="156.0" type="curve"/>
      <point x="267.0" y="156.0"/>
      <point x="227.0" y="193.0"/>
      <point x="227.0" y="316.0" type="curve" smooth="yes"/>
      <point x="227.0" y="431.0"/>
      <point x="276.0" y="475.0"/>
      <point x="386.0" y="475.0" type="curve"/>
      <point x="419.05555555555554" y="475.0"/>
      <point x="444.46152817954663" y="471.63461795511336"/>
      <point x="471.0" y="465.0" type="curve"/>
      <point x="471.0" y="484.0" type="line"/>
      <point x="444.5020137634442" y="489.6781399078334"/>
      <point x="420.03370786516854" y="494.0"/>
      <point x="387.0" y="494.0" type="curve"/>
      <point x="271.0" y="494.0"/>
      <point x="207.0" y="446.0"/>
      <point x="207.0" y="316.0" type="curve" smooth="yes"/>
      <point x="207.0" y="181.0"/>
      <point x="253.0" y="137.0"/>
      <point x="378.0" y="137.0" type="curve"/>
      <point x="424.7102803738318" y="137.0"/>
      <point x="459.201814940256" y="147.10571258775315"/>
      <point x="480.0" y="158.0" type="curve"/>
    </contour>
  </outline>
</glyph>
<glyph name="ordfeminine" format="1">
  <advance width="374.0"/>
  <unicode hex="00AA"/>
  <outline>
    <contour>
      <point x="74.0" y="277.0" type="line"/>
      <point x="294.0" y="277.0" type="line"/>
      <point x="294.0" y="296.0" type="line"/>
      <point x="74.0" y="296.0" type="line"/>
    </contour>
    <contour>
      <point x="71.0" y="435.0" type="curve"/>
      <point x="71.0" y="378.0"/>
      <point x="99.0" y="351.0"/>
      <point x="160.0" y="351.0" type="curve"/>
      <point x="202.0" y="351.0"/>
      <point x="244.0" y="365.0"/>
      <point x="274.0" y="387.0" type="curve"/>
      <point x="274.0" y="405.0" type="line"/>
      <point x="253.0" y="387.0"/>
      <point x="206.0" y="370.0"/>
      <point x="163.0" y="370.0" type="curve"/>
      <point x="112.0" y="370.0"/>
      <point x="91.0" y="390.0"/>
      <point x="91.0" y="436.0" type="curve"/>
      <point x="91.0" y="480.0"/>
      <point x="117.0" y="495.0"/>
      <point x="183.0" y="495.0" type="curve"/>
      <point x="223.0" y="495.0"/>
      <point x="253.0" y="491.0"/>
      <point x="278.0" y="487.0" type="curve"/>
      <point x="278.0" y="506.0" type="line"/>
      <point x="258.0" y="509.0"/>
      <point x="228.0" y="514.0"/>
      <point x="182.0" y="514.0" type="curve"/>
      <point x="106.0" y="514.0"/>
      <point x="71.0" y="494.0"/>
    </contour>
    <contour>
      <point x="275.0" y="355.0" type="line"/>
      <point x="292.0" y="355.0" type="line"/>
      <point x="292.0" y="539.0" type="line" smooth="yes"/>
      <point x="292.0" y="593.0"/>
      <point x="274.0" y="637.0"/>
      <point x="189.0" y="637.0" type="curve"/>
      <point x="151.0" y="637.0"/>
      <point x="127.0" y="634.0"/>
      <point x="100.0" y="628.0" type="curve"/>
      <point x="100.0" y="608.0" type="line"/>
      <point x="126.0" y="615.0"/>
      <point x="148.0" y="618.0"/>
      <point x="186.0" y="618.0" type="curve" smooth="yes"/>
      <point x="264.0" y="618.0"/>
      <point x="272.0" y="578.0"/>
      <point x="272.0" y="538.0" type="curve" smooth="yes"/>
      <point x="272.0" y="386.0" type="line"/>
      <point x="274.0" y="386.0" type="line"/>
    </contour>
  </outline>
</glyph>
<glyph name="guillemotleft" format="2">
  <advance width="451"/>
  <unicode hex="00AB"/>
  <outline>
    <contour>
      <point x="207.0" y="494.0" type="line"/>
      <point x="186.0" y="494.0" type="line"/>
      <point x="37.0" y="281.0" type="line"/>
      <point x="55.0" y="276.0" type="line"/>
    </contour>
    <contour>
      <point x="186.0" y="64.0" type="line"/>
      <point x="207.0" y="64.0" type="line"/>
      <point x="55.0" y="287.0" type="line"/>
      <point x="37.0" y="281.0" type="line"/>
    </contour>
    <contour>
      <point x="401.0" y="494.0" type="line"/>
      <point x="380.0" y="494.0" type="line"/>
      <point x="231.0" y="281.0" type="line"/>
      <point x="249.0" y="276.0" type="line"/>
    </contour>
    <contour>
      <point x="380.0" y="64.0" type="line"/>
      <point x="401.0" y="64.0" type="line"/>
      <point x="249.0" y="287.0" type="line"/>
      <point x="231.0" y="281.0" type="line"/>
    </contour>
  </outline>
</glyph>
<glyph name="logicalnot" format="2">
  <advance width="500"/>
  <unicode hex="00AC"/>
  <outline>
    <contour>
      <point x="463.0" y="150.0" type="line"/>
      <point x="463.0" y="392.0" type="line"/>
      <point x="37.0" y="392.0" type="line"/>
      <point x="37.0" y="372.0" type="line"/>
      <point x="443.0" y="372.0" type="line"/>
      <point x="443.0" y="150.0" type="line"/>
    </contour>
  </outline>
</glyph>
<glyph name="registered" format="1">
  <advance width="472.0"/>
  <unicode hex="00AE"/>
  <outline>
    <contour>
      <point x="237.0" y="270.0" type="curve"/>
      <point x="356.0" y="270.0"/>
      <point x="413.0" y="329.0"/>
      <point x="413.0" y="454.0" type="curve"/>
      <point x="413.0" y="578.0"/>
      <point x="356.0" y="637.0"/>
      <point x="237.0" y="637.0" type="curve"/>
      <point x="117.0" y="637.0"/>
      <point x="60.0" y="578.0"/>
      <point x="60.0" y="454.0" type="curve"/>
      <point x="60.0" y="329.0"/>
      <point x="117.0" y="270.0"/>
    </contour>
    <contour>
      <point x="237.0" y="618.0" type="curve"/>
      <point x="343.0" y="618.0"/>
      <point x="393.0" y="565.0"/>
      <point x="393.0" y="454.0" type="curve"/>
      <point x="393.0" y="342.0"/>
      <point x="343.0" y="289.0"/>
      <point x="237.0" y="289.0" type="curve"/>
      <point x="131.0" y="289.0"/>
      <point x="80.0" y="342.0"/>
      <point x="80.0" y="454.0" type="curve"/>
      <point x="80.0" y="565.0"/>
      <point x="131.0" y="618.0"/>
    </contour>
    <contour>
      <point x="238.0" y="429.0" type="line" smooth="yes"/>
      <point x="288.0" y="429.0"/>
      <point x="315.0" y="448.0"/>
      <point x="315.0" y="494.0" type="curve"/>
      <point x="315.0" y="539.0"/>
      <point x="292.0" y="556.0"/>
      <point x="237.0" y="556.0" type="curve" smooth="yes"/>
      <point x="183.0" y="556.0" type="line"/>
      <point x="183.0" y="537.0" type="line"/>
      <point x="237.0" y="537.0" type="line" smooth="yes"/>
      <point x="276.0" y="537.0"/>
      <point x="295.0" y="525.0"/>
      <point x="295.0" y="494.0" type="curve"/>
      <point x="295.0" y="459.0"/>
      <point x="274.0" y="446.0"/>
      <point x="237.0" y="446.0" type="curve" smooth="yes"/>
      <point x="183.0" y="446.0" type="line"/>
      <point x="183.0" y="429.0" type="line"/>
    </contour>
    <contour>
      <point x="190.0" y="354.0" type="line"/>
      <point x="190.0" y="556.0" type="line"/>
      <point x="170.0" y="556.0" type="line"/>
      <point x="170.0" y="354.0" type="line"/>
    </contour>
    <contour>
      <point x="241.0" y="434.0" type="line"/>
      <point x="295.0" y="354.0" type="line"/>
      <point x="320.0" y="354.0" type="line"/>
      <point x="264.0" y="434.0" type="line"/>
    </contour>
  </outline>
</glyph>
<glyph name="macron" format="2">
  <advance width="333"/>
  <unicode hex="00AF"/>
  <guideline x="177" y="575" angle="90" name="mid" identifier="YojaFaDhcV"/>
  <guideline x="167" y="576" angle="90" name="mid" identifier="ufV2q2LYjV"/>
  <anchor x="167" y="530" name="_top"/>
  <outline>
    <contour>
      <point x="283.0" y="576.0" type="line"/>
      <point x="283.0" y="595.0" type="line"/>
      <point x="50.0" y="595.0" type="line"/>
      <point x="50.0" y="576.0" type="line"/>
    </contour>
  </outline>
</glyph>
<glyph name="degree" format="2">
  <advance width="376"/>
  <unicode hex="00B0"/>
  <outline>
    <contour>
      <point x="188.0" y="366.0" type="curve" smooth="yes"/>
      <point x="267.0" y="366.0"/>
      <point x="320.0" y="417.38345864661653"/>
      <point x="320.0" y="500.0" type="curve" smooth="yes"/>
      <point x="320.0" y="581.3925925925926"/>
      <point x="267.0" y="634.0"/>
      <point x="188.0" y="634.0" type="curve" smooth="yes"/>
      <point x="109.0" y="634.0"/>
      <point x="56.0" y="581.3925925925926"/>
      <point x="56.0" y="500.0" type="curve" smooth="yes"/>
      <point x="56.0" y="417.38345864661653"/>
      <point x="109.0" y="366.0"/>
    </contour>
    <contour>
      <point x="188.0" y="385.0" type="curve" smooth="yes"/>
      <point x="122.0" y="385.0"/>
      <point x="76.0" y="428.3771929824561"/>
      <point x="76.0" y="500.0" type="curve" smooth="yes"/>
      <point x="76.0" y="569.3965517241379"/>
      <point x="122.0" y="615.0"/>
      <point x="188.0" y="615.0" type="curve" smooth="yes"/>
      <point x="254.0" y="615.0"/>
      <point x="300.0" y="569.3965517241379"/>
      <point x="300.0" y="500.0" type="curve" smooth="yes"/>
      <point x="300.0" y="428.3771929824561"/>
      <point x="254.0" y="385.0"/>
    </contour>
  </outline>
</glyph>
<glyph name="uni00B2" format="1">
  <advance width="297.0"/>
  <unicode hex="00B2"/>
  <outline>
    <contour>
      <point x="257.0" y="270.0" type="line"/>
      <point x="257.0" y="290.0" type="line"/>
      <point x="57.0" y="290.0" type="line"/>
      <point x="194.0" y="436.0" type="line" smooth="yes"/>
      <point x="227.0" y="471.0"/>
      <point x="247.0" y="504.0"/>
      <point x="247.0" y="547.0" type="curve"/>
      <point x="247.0" y="600.0"/>
      <point x="216.0" y="633.0"/>
      <point x="149.0" y="633.0" type="curve"/>
      <point x="115.0" y="633.0"/>
      <point x="82.0" y="629.0"/>
      <point x="50.0" y="620.0" type="curve"/>
      <point x="50.0" y="601.0" type="line"/>
      <point x="76.0" y="609.0"/>
      <point x="116.0" y="614.0"/>
      <point x="149.0" y="614.0" type="curve"/>
      <point x="202.0" y="614.0"/>
      <point x="226.0" y="587.0"/>
      <point x="226.0" y="546.0" type="curve"/>
      <point x="226.0" y="506.0"/>
      <point x="205.0" y="476.0"/>
      <point x="176.0" y="445.0" type="curve" smooth="yes"/>
      <point x="31.0" y="290.0" type="line"/>
      <point x="31.0" y="270.0" type="line"/>
    </contour>
  </outline>
</glyph>
<glyph name="uni00B2" format="2">
  <advance width="297"/>
  <unicode hex="00B2"/>
  <outline>
    <contour>
      <point x="257.0" y="270.0" type="line"/>
      <point x="257.0" y="290.0" type="line"/>
      <point x="57.0" y="290.0" type="line"/>
      <point x="194.0" y="436.0" type="line" smooth="yes"/>
      <point x="227.0" y="471.0"/>
      <point x="247.0" y="504.0"/>
      <point x="247.0" y="547.0" type="curve"/>
      <point x="247.0" y="600.0"/>
      <point x="216.0" y="633.0"/>
      <point x="149.0" y="633.0" type="curve"/>
      <point x="115.0" y="633.0"/>
      <point x="82.0" y="629.0"/>
      <point x="50.0" y="620.0" type="curve"/>
      <point x="50.0" y="601.0" type="line"/>
      <point x="76.0" y="609.0"/>
      <point x="116.0" y="614.0"/>
      <point x="149.0" y="614.0" type="curve"/>
      <point x="202.0" y="614.0"/>
      <point x="226.0" y="587.0"/>
      <point x="226.0" y="546.0" type="curve"/>
      <point x="226.0" y="506.0"/>
      <point x="205.0" y="476.0"/>
      <point x="176.0" y="445.0" type="curve" smooth="yes"/>
      <point x="31.0" y="290.0" type="line"/>
      <point x="31.0" y="270.0" type="line"/>
    </contour>
  </outline>
</glyph>
<glyph name="uni00B3" format="2">
  <advance width="306"/>
  <unicode hex="00B3"/>
  <outline>
    <contour>
      <point x="176.0" y="459.0" type="line"/>
      <point x="204.98174766775898" y="465.99559426463145"/>
      <point x="243.0" y="490.632183908046"/>
      <point x="243.0" y="545.0" type="curve"/>
      <point x="243.0" y="602.0"/>
      <point x="211.0" y="633.0"/>
      <point x="145.0" y="633.0" type="curve"/>
      <point x="99.0" y="633.0"/>
      <point x="72.0" y="627.0"/>
      <point x="50.0" y="621.0" type="curve"/>
      <point x="50.0" y="602.0" type="line"/>
      <point x="70.0" y="608.0"/>
      <point x="103.0" y="614.0"/>
      <point x="142.0" y="614.0" type="curve"/>
      <point x="198.0" y="614.0"/>
      <point x="223.0" y="590.0"/>
      <point x="223.0" y="543.0" type="curve"/>
      <point x="223.0" y="485.0"/>
      <point x="176.0" y="463.0"/>
      <point x="131.0" y="463.0" type="curve"/>
      <point x="86.0" y="463.0" type="line"/>
      <point x="86.0" y="445.0" type="line"/>
      <point x="142.0" y="445.0" type="line"/>
      <point x="215.0" y="445.0"/>
      <point x="241.0" y="418.0"/>
      <point x="241.0" y="368.0" type="curve"/>
      <point x="241.0" y="315.0"/>
      <point x="206.0" y="286.0"/>
      <point x="135.0" y="286.0" type="curve"/>
      <point x="88.0" y="286.0"/>
      <point x="61.0" y="289.0"/>
      <point x="36.0" y="296.0" type="curve"/>
      <point x="36.0" y="277.0" type="line"/>
      <point x="57.0" y="271.0"/>
      <point x="81.0" y="266.0"/>
      <point x="136.0" y="266.0" type="curve"/>
      <point x="219.0" y="266.0"/>
      <point x="261.0" y="303.0"/>
      <point x="261.0" y="368.0" type="curve"/>
      <point x="261.0" y="424.0"/>
      <point x="228.0" y="454.0"/>
      <point x="176.0" y="457.0" type="curve"/>
    </contour>
  </outline>
</glyph>
<glyph name="acute" format="2">
  <advance width="234"/>
  <unicode hex="00B4"/>
  <guideline x="135" y="559" angle="90" name="mid" identifier="4Ba0NHPRj7"/>
  <anchor x="92" y="530" name="_top"/>
  <outline>
    <contour>
      <point x="184.0" y="682.0" type="line"/>
      <point x="150.0" y="682.0" type="line"/>
      <point x="50.0" y="571.0" type="line"/>
      <point x="72.0" y="571.0" type="line"/>
    </contour>
  </outline>
</glyph>
<glyph name="paragraph" format="2">
  <advance width="491"/>
  <unicode hex="00B6"/>
  <outline>
    <contour>
      <point x="402.0" y="-5.0" type="curve" smooth="yes"/>
      <point x="402.0" y="627.0" type="line"/>
      <point x="377.0" y="632.0"/>
      <point x="343.0" y="639.0"/>
      <point x="279.0" y="639.0" type="curve"/>
      <point x="120.0" y="639.0"/>
      <point x="47.0" y="573.0"/>
      <point x="47.0" y="384.0" type="curve" smooth="yes"/>
      <point x="47.0" y="195.0"/>
      <point x="94.0" y="129.0"/>
      <point x="233.0" y="129.0" type="curve"/>
      <point x="299.0" y="129.0"/>
      <point x="351.0" y="142.0"/>
      <point x="382.0" y="156.0" type="curve"/>
      <point x="382.0" y="-5.0" type="line" smooth="yes"/>
      <point x="382.0" y="-96.0"/>
      <point x="348.0" y="-143.0"/>
      <point x="258.0" y="-143.0" type="curve"/>
      <point x="233.0" y="-143.0"/>
      <point x="211.0" y="-141.0"/>
      <point x="187.0" y="-137.0" type="curve"/>
      <point x="187.0" y="-156.0" type="line"/>
      <point x="210.0" y="-160.0"/>
      <point x="234.0" y="-162.0"/>
      <point x="262.0" y="-162.0" type="curve"/>
      <point x="358.0" y="-162.0"/>
      <point x="402.0" y="-109.0"/>
    </contour>
    <contour>
      <point x="67.0" y="384.0" type="curve" smooth="yes"/>
      <point x="67.0" y="562.0"/>
      <point x="132.0" y="620.0"/>
      <point x="279.0" y="620.0" type="curve"/>
      <point x="336.0" y="620.0"/>
      <point x="361.0" y="616.0"/>
      <point x="382.0" y="612.0" type="curve"/>
      <point x="382.0" y="176.0" type="line"/>
      <point x="351.0" y="163.0"/>
      <point x="297.0" y="148.0"/>
      <point x="238.0" y="148.0" type="curve"/>
      <point x="110.0" y="148.0"/>
      <point x="67.0" y="207.0"/>
    </contour>
  </outline>
</glyph>
<glyph name="cedilla" format="2">
  <advance width="318"/>
  <unicode hex="00B8"/>
  <anchor x="149" y="0" name="_bottom"/>
  <outline>
    <contour>
      <point x="275.0" y="-122.0" type="curve"/>
      <point x="274.0" y="-74.0"/>
      <point x="236.0" y="-52.0"/>
      <point x="142.0" y="-58.0" type="curve"/>
      <point x="158.0" y="8.0" type="line"/>
      <point x="137.0" y="9.0" type="line"/>
      <point x="118.0" y="-76.0" type="line"/>
      <point x="132.0" y="-75.0"/>
      <point x="151.0" y="-74.0"/>
      <point x="167.0" y="-74.0" type="curve"/>
      <point x="216.0" y="-74.0"/>
      <point x="255.0" y="-83.0"/>
      <point x="255.0" y="-122.0" type="curve"/>
      <point x="255.0" y="-159.0"/>
      <point x="239.0" y="-176.0"/>
      <point x="175.0" y="-176.0" type="curve" smooth="yes"/>
      <point x="119.0" y="-176.0"/>
      <point x="84.0" y="-171.0"/>
      <point x="60.0" y="-164.0" type="curve"/>
      <point x="60.0" y="-183.0" type="line"/>
      <point x="81.0" y="-189.0"/>
      <point x="112.0" y="-195.0"/>
      <point x="171.0" y="-195.0" type="curve" smooth="yes"/>
      <point x="251.0" y="-195.0"/>
      <point x="275.0" y="-170.0"/>
    </contour>
  </outline>
</glyph>
<glyph name="uni00B9" format="2">
  <advance width="241"/>
  <unicode hex="00B9"/>
  <guideline x="485" y="163" angle="90" identifier="b9S2k5vIzT"/>
  <guideline x="3676" y="-115" angle="90" identifier="cjNmnp00O9"/>
  <guideline x="1442" y="222" angle="0" identifier="QJ7wj1Vdtd"/>
  <guideline x="1551" y="333" angle="90" identifier="V3hu0ZMceR"/>
  <guideline x="987" y="689" angle="90" identifier="C4sO5shBSN"/>
  <guideline x="2175" y="-145" angle="90" identifier="7crFnOUrK9"/>
  <guideline x="1093" y="-666" angle="0" identifier="bglvIKZYrK"/>
  <guideline x="221" y="1020" angle="0" identifier="vxi0de7E9o"/>
  <outline>
    <contour>
      <point x="151.0" y="270.0" type="line"/>
      <point x="172.0" y="270.0" type="line"/>
      <point x="172.0" y="633.0" type="line"/>
      <point x="151.0" y="625.0" type="line"/>
    </contour>
    <contour>
      <point x="22.0" y="595.0" type="line"/>
      <point x="156.0" y="612.0" type="line"/>
      <point x="172.0" y="633.0" type="line"/>
      <point x="22.0" y="614.0" type="line"/>
    </contour>
  </outline>
</glyph>
<glyph name="ordmasculine" format="1">
  <advance width="406.0"/>
  <unicode hex="00BA"/>
  <outline>
    <contour>
      <point x="81.0" y="277.0" type="line"/>
      <point x="324.0" y="277.0" type="line"/>
      <point x="324.0" y="296.0" type="line"/>
      <point x="81.0" y="296.0" type="line"/>
    </contour>
    <contour>
      <point x="204.0" y="351.0" type="curve" smooth="yes"/>
      <point x="294.0" y="351.0"/>
      <point x="332.0" y="397.0"/>
      <point x="332.0" y="494.0" type="curve" smooth="yes"/>
      <point x="332.0" y="598.0"/>
      <point x="298.0" y="637.0"/>
      <point x="204.0" y="637.0" type="curve" smooth="yes"/>
      <point x="112.0" y="637.0"/>
      <point x="75.0" y="592.0"/>
      <point x="75.0" y="494.0" type="curve" smooth="yes"/>
      <point x="75.0" y="392.0"/>
      <point x="107.0" y="351.0"/>
    </contour>
    <contour>
      <point x="204.0" y="370.0" type="curve" smooth="yes"/>
      <point x="121.0" y="370.0"/>
      <point x="96.0" y="403.0"/>
      <point x="96.0" y="494.0" type="curve" smooth="yes"/>
      <point x="96.0" y="582.0"/>
      <point x="124.0" y="618.0"/>
      <point x="204.0" y="618.0" type="curve" smooth="yes"/>
      <point x="285.0" y="618.0"/>
      <point x="311.0" y="586.0"/>
      <point x="311.0" y="494.0" type="curve" smooth="yes"/>
      <point x="311.0" y="407.0"/>
      <point x="282.0" y="370.0"/>
    </contour>
  </outline>
</glyph>
<glyph name="AE" format="1">
  <advance width="745.0"/>
  <unicode hex="00C6"/>
  <outline>
    <contour>
      <point x="23.0" y="0.0" type="line"/>
      <point x="46.0" y="0.0" type="line"/>
      <point x="237.0" y="476.0" type="line" smooth="yes"/>
      <point x="258.0" y="529.0"/>
      <point x="276.0" y="573.0"/>
      <point x="292.0" y="627.0" type="curve"/>
      <point x="275.0" y="627.0" type="line"/>
    </contour>
    <contour>
      <point x="549.0" y="0.0" type="line"/>
      <point x="297.0" y="627.0" type="line"/>
      <point x="280.0" y="627.0" type="line"/>
      <point x="296.0" y="573.0"/>
      <point x="314.0" y="529.0"/>
      <point x="335.0" y="476.0" type="curve" smooth="yes"/>
      <point x="526.0" y="0.0" type="line"/>
    </contour>
    <contour>
      <point x="114.0" y="193.0" type="line"/>
      <point x="459.0" y="193.0" type="line"/>
      <point x="459.0" y="213.0" type="line"/>
      <point x="114.0" y="213.0" type="line"/>
    </contour>
    <contour>
      <point x="294.0" y="607.0" type="line"/>
      <point x="693.0" y="607.0" type="line"/>
      <point x="693.0" y="627.0" type="line"/>
      <point x="294.0" y="627.0" type="line"/>
    </contour>
    <contour>
      <point x="408.0" y="314.0" type="line"/>
      <point x="656.0" y="314.0" type="line"/>
      <point x="656.0" y="334.0" type="line"/>
      <point x="408.0" y="334.0" type="line"/>
    </contour>
    <contour>
      <point x="536.0" y="0.0" type="line"/>
      <point x="702.0" y="0.0" type="line"/>
      <point x="702.0" y="20.0" type="line"/>
      <point x="536.0" y="20.0" type="line"/>
    </contour>
    <contour>
      <point x="484.0" y="645" type="move" name="top"/>
    </contour>
    <contour>
      <point x="589.0" y="3.0" type="move" name="bottom"/>
    </contour>
  </outline>
</glyph>
<glyph name="AE" format="2">
  <advance width="745"/>
  <unicode hex="00C6"/>
  <anchor x="484.0" y="645" name="top"/>
  <outline>
    <contour>
      <point x="23.0" y="0.0" type="line"/>
      <point x="46.0" y="0.0" type="line"/>
      <point x="237.0" y="476.0" type="line" smooth="yes"/>
      <point x="258.0" y="529.0"/>
      <point x="276.0" y="573.0"/>
      <point x="292.0" y="627.0" type="curve"/>
      <point x="275.0" y="627.0" type="line"/>
    </contour>
    <contour>
      <point x="549.0" y="0.0" type="line"/>
      <point x="297.0" y="627.0" type="line"/>
      <point x="280.0" y="627.0" type="line"/>
      <point x="296.0" y="573.0"/>
      <point x="314.0" y="529.0"/>
      <point x="335.0" y="476.0" type="curve" smooth="yes"/>
      <point x="526.0" y="0.0" type="line"/>
    </contour>
    <contour>
      <point x="114.0" y="193.0" type="line"/>
      <point x="459.0" y="193.0" type="line"/>
      <point x="459.0" y="213.0" type="line"/>
      <point x="114.0" y="213.0" type="line"/>
    </contour>
    <contour>
      <point x="294.0" y="607.0" type="line"/>
      <point x="693.0" y="607.0" type="line"/>
      <point x="693.0" y="627.0" type="line"/>
      <point x="294.0" y="627.0" type="line"/>
    </contour>
    <contour>
      <point x="408.0" y="314.0" type="line"/>
      <point x="656.0" y="314.0" type="line"/>
      <point x="656.0" y="334.0" type="line"/>
      <point x="408.0" y="334.0" type="line"/>
    </contour>
    <contour>
      <point x="536.0" y="0.0" type="line"/>
      <point x="702.0" y="0.0" type="line"/>
      <point x="702.0" y="20.0" type="line"/>
      <point x="536.0" y="20.0" type="line"/>
    </contour>
  </outline>
</glyph>
<glyph name="multiply" format="1">
  <advance width="500.0"/>
  <unicode hex="00D7"/>
  <outline>
    <contour>
      <point x="449.0" y="506.0" type="line"/>
      <point x="435.0" y="521.0" type="line"/>
      <point x="51.0" y="137.0" type="line"/>
      <point x="66.0" y="123.0" type="line"/>
    </contour>
    <contour>
      <point x="68.0" y="519.0" type="line"/>
      <point x="54.0" y="505.0" type="line"/>
      <point x="435.0" y="124.0" type="line"/>
      <point x="449.0" y="138.0" type="line"/>
    </contour>
  </outline>
</glyph>
<glyph name="Oslash" format="2">
  <advance width="662"/>
  <unicode hex="00D8"/>
  <anchor x="332.0" y="655" name="top"/>
  <outline>
    <contour>
      <point x="67.0" y="-32.0" type="line"/>
      <point x="84.0" y="-43.0" type="line"/>
      <point x="150.0" y="52.0" type="line"/>
      <point x="134.0" y="64.0" type="line"/>
    </contour>
    <contour>
      <point x="515.0" y="579.0" type="line"/>
      <point x="582.0" y="675.0" type="line"/>
      <point x="565.0" y="686.0" type="line"/>
      <point x="500.0" y="592.0" type="line"/>
    </contour>
    <contour>
      <point x="150.0" y="52.0" type="line"/>
      <point x="515.0" y="579.0" type="line"/>
      <point x="500.0" y="592.0" type="line"/>
      <point x="134.0" y="64.0" type="line"/>
    </contour>
    <component base="O"/>
  </outline>
</glyph>
<glyph name="Thorn" format="2">
  <advance width="581"/>
  <unicode hex="00DE"/>
  <outline>
    <contour>
      <point x="295.0" y="118.0" type="line" smooth="yes"/>
      <point x="441.0" y="118.0"/>
      <point x="523.0" y="178.0"/>
      <point x="523.0" y="325.0" type="curve"/>
      <point x="523.0" y="461.0"/>
      <point x="452.0" y="517.0"/>
      <point x="292.0" y="517.0" type="curve" smooth="yes"/>
      <point x="103.0" y="517.0" type="line"/>
      <point x="103.0" y="497.0" type="line"/>
      <point x="292.0" y="497.0" type="line" smooth="yes"/>
      <point x="437.0" y="497.0"/>
      <point x="502.0" y="449.0"/>
      <point x="502.0" y="325.0" type="curve"/>
      <point x="502.0" y="189.0"/>
      <point x="427.0" y="137.0"/>
      <point x="292.0" y="137.0" type="curve" smooth="yes"/>
      <point x="103.0" y="137.0" type="line"/>
      <point x="103.0" y="118.0" type="line"/>
    </contour>
    <contour>
      <point x="114.0" y="0.0" type="line"/>
      <point x="114.0" y="627.0" type="line"/>
      <point x="93.0" y="627.0" type="line"/>
      <point x="93.0" y="0.0" type="line"/>
    </contour>
  </outline>
</glyph>
<glyph name="germandbls" format="2">
  <advance width="592"/>
  <unicode hex="00DF"/>
  <guideline x="426" y="353" angle="163.62645067294972" identifier="ZZ7MrGVzZK"/>
  <guideline x="377" y="251" angle="69.35300917502964" identifier="6udlodCb41"/>
  <outline>
    <contour>
      <point x="270.0" y="677.0" type="curve"/>
      <point x="130.0" y="677.0"/>
      <point x="85.0" y="617.3516483516484"/>
      <point x="85.0" y="493.0" type="curve" smooth="yes"/>
      <point x="85.0" y="0.0" type="line"/>
      <point x="105.0" y="0.0" type="line"/>
      <point x="105.0" y="493.0" type="line" smooth="yes"/>
      <point x="105.0" y="607.3865030674847"/>
      <point x="141.0" y="658.0"/>
      <point x="270.0" y="658.0" type="curve"/>
      <point x="381.0" y="658.0"/>
      <point x="422.0" y="620.3333333333334"/>
      <point x="422.0" y="545.0" type="curve" smooth="yes"/>
      <point x="422.0" y="510.0"/>
      <point x="412.0" y="474.0"/>
      <point x="399.0" y="439.0" type="curve" smooth="yes"/>
      <point x="357.0" y="324.0" type="line"/>
      <point x="443.0" y="294.0" type="line" smooth="yes"/>
      <point x="492.52573912957524" y="276.723579373404"/>
      <point x="518.0" y="253.26605504587155"/>
      <point x="518.0" y="174.0" type="curve" smooth="yes"/>
      <point x="518.0" y="39.0"/>
      <point x="459.0" y="9.0"/>
      <point x="369.0" y="9.0" type="curve" smooth="yes"/>
      <point x="306.0" y="9.0"/>
      <point x="275.0" y="17.0"/>
      <point x="253.0" y="23.0" type="curve"/>
      <point x="253.0" y="3.0" type="line"/>
      <point x="280.0" y="-5.0"/>
      <point x="322.0" y="-10.0"/>
      <point x="369.0" y="-10.0" type="curve" smooth="yes"/>
      <point x="471.0" y="-10.0"/>
      <point x="538.0" y="27.0"/>
      <point x="538.0" y="174.0" type="curve" smooth="yes"/>
      <point x="538.0" y="265.21875"/>
      <point x="505.7188094933158" y="293.23435426748085"/>
      <point x="449.0" y="313.0" type="curve" smooth="yes"/>
      <point x="383.0" y="336.0" type="line"/>
      <point x="419.0" y="436.0" type="line" smooth="yes"/>
      <point x="432.0" y="472.0"/>
      <point x="442.0" y="508.0"/>
      <point x="442.0" y="545.0" type="curve" smooth="yes"/>
      <point x="442.0" y="629.276923076923"/>
      <point x="396.0" y="677.0"/>
    </contour>
  </outline>
</glyph>
<glyph name="ae" format="2">
  <advance width="799"/>
  <unicode hex="00E6"/>
  <guideline x="219" y="172" angle="90.0" identifier="pNhJsjb8mc"/>
  <guideline x="451" y="265" angle="0" identifier="dlilRXq5Nn"/>
  <guideline x="368" y="246" angle="0" identifier="YiQXdWwI4Z"/>
  <anchor x="395.0" y="530.0" name="top"/>
  <outline>
    <contour>
      <point x="572" y="485" type="curve" smooth="yes"/>
      <point x="686" y="485"/>
      <point x="724" y="419"/>
      <point x="724" y="302" type="curve" smooth="yes"/>
      <point x="724" y="286"/>
      <point x="723" y="274"/>
      <point x="722" y="265" type="curve"/>
      <point x="398" y="265" type="line"/>
      <point x="398" y="419"/>
      <point x="447" y="485"/>
    </contour>
    <contour>
      <point x="723" y="27" type="curve"/>
      <point x="723" y="47" type="line"/>
      <point x="695" y="33"/>
      <point x="636" y="13"/>
      <point x="578" y="13" type="curve" smooth="yes"/>
      <point x="460" y="13"/>
      <point x="398" y="65"/>
      <point x="398" y="246" type="curve"/>
      <point x="740" y="246" type="line"/>
      <point x="742" y="262"/>
      <point x="744" y="282"/>
      <point x="744" y="302" type="curve" smooth="yes"/>
      <point x="744" y="444"/>
      <point x="686" y="504"/>
      <point x="572" y="504" type="curve" smooth="yes"/>
      <point x="442" y="504"/>
      <point x="378" y="435"/>
      <point x="378" y="252" type="curve" smooth="yes"/>
      <point x="378" y="62"/>
      <point x="438" y="-6"/>
      <point x="574" y="-6" type="curve" smooth="yes"/>
      <point x="641" y="-6"/>
      <point x="699" y="16"/>
    </contour>
    <contour>
      <point x="47" y="134" type="curve" smooth="yes"/>
      <point x="47" y="39"/>
      <point x="92" y="-6"/>
      <point x="194" y="-6" type="curve" smooth="yes"/>
      <point x="293" y="-6"/>
      <point x="363" y="36"/>
      <point x="411" y="81" type="curve"/>
      <point x="411" y="104" type="line"/>
      <point x="360" y="55"/>
      <point x="290" y="13"/>
      <point x="199" y="13" type="curve" smooth="yes"/>
      <point x="105" y="13"/>
      <point x="67" y="51"/>
      <point x="67" y="135" type="curve" smooth="yes"/>
      <point x="67" y="220"/>
      <point x="112" y="246"/>
      <point x="226" y="246" type="curve" smooth="yes"/>
      <point x="281" y="246"/>
      <point x="334" y="246"/>
      <point x="387" y="246" type="curve"/>
      <point x="387" y="265" type="line"/>
      <point x="335" y="265"/>
      <point x="280" y="265"/>
      <point x="226" y="265" type="curve" smooth="yes"/>
      <point x="101" y="265"/>
      <point x="47" y="232"/>
    </contour>
    <contour>
      <point x="395" y="328" type="line"/>
      <point x="395" y="442"/>
      <point x="363" y="504"/>
      <point x="244" y="504" type="curve" smooth="yes"/>
      <point x="177" y="504"/>
      <point x="145" y="497"/>
      <point x="99" y="486" type="curve"/>
      <point x="99" y="466" type="line"/>
      <point x="144" y="478"/>
      <point x="181" y="485"/>
      <point x="238" y="485" type="curve" smooth="yes"/>
      <point x="352" y="485"/>
      <point x="378" y="426"/>
      <point x="378" y="327" type="curve" smooth="yes"/>
      <point x="378" y="252" type="line"/>
    </contour>
  </outline>
</glyph>
<glyph name="eth" format="2">
  <advance width="558"/>
  <unicode hex="00F0"/>
  <outline>
    <contour>
      <point x="469.0" y="619.0" type="line"/>
      <point x="469.0" y="638.0" type="line"/>
      <point x="173.0" y="568.0" type="line"/>
      <point x="173.0" y="549.0" type="line"/>
    </contour>
    <contour>
      <point x="277.0" y="-6.0" type="curve" smooth="yes"/>
      <point x="436.0" y="-6.0"/>
      <point x="491.0" y="61.0"/>
      <point x="491.0" y="249.0" type="curve" smooth="yes"/>
      <point x="491.0" y="449.0"/>
      <point x="445.0" y="504.0"/>
      <point x="277.0" y="504.0" type="curve" smooth="yes"/>
      <point x="118.0" y="504.0"/>
      <point x="63.0" y="437.0"/>
      <point x="63.0" y="249.0" type="curve" smooth="yes"/>
      <point x="63.0" y="49.0"/>
      <point x="109.0" y="-6.0"/>
    </contour>
    <contour>
      <point x="277.0" y="13.0" type="curve" smooth="yes"/>
      <point x="123.0" y="13.0"/>
      <point x="83.0" y="62.0"/>
      <point x="83.0" y="249.0" type="curve" smooth="yes"/>
      <point x="83.0" y="428.0"/>
      <point x="130.0" y="485.0"/>
      <point x="277.0" y="485.0" type="curve" smooth="yes"/>
      <point x="431.0" y="485.0"/>
      <point x="471.0" y="436.0"/>
      <point x="471.0" y="249.0" type="curve" smooth="yes"/>
      <point x="471.0" y="70.0"/>
      <point x="424.0" y="13.0"/>
    </contour>
    <contour>
      <point x="321.0" y="665.0" type="curve"/>
      <point x="290.0" y="665.0" type="line"/>
      <point x="413.1208551428852" y="562.8997786619976"/>
      <point x="478.0" y="435.44819277108434"/>
      <point x="478.0" y="249.0" type="curve"/>
      <point x="491.0" y="249.0" type="line"/>
      <point x="491.0" y="459.50602409638554"/>
      <point x="433.1301155677065" y="556.8745314168544"/>
    </contour>
  </outline>
</glyph>
<glyph name="oslash" format="2">
  <advance width="554"/>
  <unicode hex="00F8"/>
  <guideline x="60" y="464" angle="90.0" identifier="fgUCaTqHvj"/>
  <guideline x="494" y="142" angle="90.0" identifier="rIbfDS8IiD"/>
  <anchor x="277.0" y="530.0" name="top"/>
  <outline>
    <contour>
      <point x="67.0" y="-41.0" type="line"/>
      <point x="83.0" y="-52.0" type="line"/>
      <point x="135.0" y="22.0" type="line"/>
      <point x="142.0" y="32.0" type="line"/>
      <point x="432.0" y="453.0" type="line"/>
      <point x="439.0" y="463.0" type="line"/>
      <point x="489.0" y="534.0" type="line"/>
      <point x="473.0" y="545.0" type="line"/>
      <point x="424.0" y="475.0" type="line"/>
      <point x="416.0" y="464.0" type="line"/>
      <point x="127.0" y="45.0" type="line"/>
      <point x="118.0" y="32.0" type="line"/>
    </contour>
    <component base="o"/>
  </outline>
</glyph>
<glyph name="thorn" format="2">
  <advance width="545"/>
  <unicode hex="00FE"/>
  <guideline x="303" y="247" angle="0" identifier="vhsuovZ8lF"/>
  <outline>
    <contour>
      <point x="85.0" y="-152.0" type="line"/>
      <point x="105.0" y="-152.0" type="line"/>
      <point x="105.0" y="665.0" type="line"/>
      <point x="85.0" y="665.0" type="line"/>
    </contour>
    <contour>
      <point x="105.0" y="428.0" type="line"/>
      <point x="159.0" y="470.0"/>
      <point x="222.0" y="485.0"/>
      <point x="282.0" y="485.0" type="curve"/>
      <point x="401.0" y="485.0"/>
      <point x="463.0" y="436.0"/>
      <point x="463.0" y="249.0" type="curve" smooth="yes"/>
      <point x="463.0" y="61.0"/>
      <point x="394.0" y="13.0"/>
      <point x="246.0" y="13.0" type="curve"/>
      <point x="180.0" y="13.0"/>
      <point x="133.0" y="24.0"/>
      <point x="97.0" y="42.0" type="curve"/>
      <point x="87.0" y="26.0" type="line"/>
      <point x="126.0" y="8.0"/>
      <point x="171.0" y="-6.0"/>
      <point x="246.0" y="-6.0" type="curve"/>
      <point x="407.0" y="-6.0"/>
      <point x="483.0" y="52.0"/>
      <point x="483.0" y="249.0" type="curve" smooth="yes"/>
      <point x="483.0" y="445.0"/>
      <point x="412.0" y="504.0"/>
      <point x="287.0" y="504.0" type="curve"/>
      <point x="221.0" y="504.0"/>
      <point x="158.0" y="489.0"/>
      <point x="101.0" y="446.0" type="curve"/>
    </contour>
  </outline>
</glyph>
<glyph name="Dcroat" format="2">
  <advance width="620"/>
  <unicode hex="0110"/>
  <outline>
    <contour>
      <point x="324.0" y="311.0" type="line"/>
      <point x="324.0" y="331.0" type="line"/>
      <point x="28.0" y="331.0" type="line"/>
      <point x="28.0" y="311.0" type="line"/>
    </contour>
    <component base="D" xOffset="5"/>
  </outline>
</glyph>
<glyph name="dcroat" format="2">
  <advance width="545"/>
  <unicode hex="0111"/>
  <outline>
    <contour>
      <point x="530.0" y="591.0" type="line"/>
      <point x="530.0" y="610.0" type="line"/>
      <point x="234.0" y="610.0" type="line"/>
      <point x="234.0" y="591.0" type="line"/>
    </contour>
    <contour>
      <point x="460.0" y="665.0" type="line"/>
      <point x="440.0" y="665.0" type="line"/>
      <point x="440.0" y="50.0" type="line"/>
      <point x="442.0" y="50.0" type="line"/>
      <point x="444.0" y="0.0" type="line"/>
      <point x="460.0" y="0.0" type="line"/>
    </contour>
    <contour>
      <point x="440.0" y="70.0" type="line"/>
      <point x="386.0" y="27.0"/>
      <point x="323.0" y="13.0"/>
      <point x="263.0" y="13.0" type="curve"/>
      <point x="144.0" y="13.0"/>
      <point x="82.0" y="60.754237288135585"/>
      <point x="82.0" y="243.0" type="curve" smooth="yes"/>
      <point x="82.0" y="426.22033898305085"/>
      <point x="151.0" y="473.0"/>
      <point x="299.0" y="473.0" type="curve"/>
      <point x="365.0" y="473.0"/>
      <point x="412.0" y="462.0"/>
      <point x="448.0" y="444.0" type="curve"/>
      <point x="458.0" y="460.0" type="line"/>
      <point x="419.0" y="478.0"/>
      <point x="374.0" y="492.0"/>
      <point x="299.0" y="492.0" type="curve"/>
      <point x="138.0" y="492.0"/>
      <point x="62.0" y="435.36470588235295"/>
      <point x="62.0" y="243.0" type="curve" smooth="yes"/>
      <point x="62.0" y="51.61176470588234"/>
      <point x="133.0" y="-6.0"/>
      <point x="258.0" y="-6.0" type="curve"/>
      <point x="324.0" y="-6.0"/>
      <point x="387.0" y="8.0"/>
      <point x="444.0" y="52.0" type="curve"/>
    </contour>
  </outline>
</glyph>
<glyph name="Hbar" format="2">
  <advance width="666"/>
  <unicode hex="0126"/>
  <outline>
    <contour>
      <point x="638.0" y="487.0" type="line"/>
      <point x="638.0" y="506.0" type="line"/>
      <point x="28.0" y="506.0" type="line"/>
      <point x="28.0" y="487.0" type="line"/>
    </contour>
    <component base="H" xOffset="5"/>
  </outline>
</glyph>
<glyph name="hbar" format="2">
  <advance width="552"/>
  <unicode hex="0127"/>
  <outline>
    <contour>
      <point x="311.0" y="591.0" type="line"/>
      <point x="311.0" y="610.0" type="line"/>
      <point x="15.0" y="610.0" type="line"/>
      <point x="15.0" y="591.0" type="line"/>
    </contour>
    <contour>
      <point x="85.0" y="0.0" type="line"/>
      <point x="105.0" y="0.0" type="line"/>
      <point x="105.0" y="665.0" type="line"/>
      <point x="85.0" y="665.0" type="line"/>
    </contour>
    <contour>
      <point x="97.0" y="422.0" type="line"/>
      <point x="166.0" y="462.0"/>
      <point x="233.0" y="485.0"/>
      <point x="300.0" y="485.0" type="curve" smooth="yes"/>
      <point x="403.0" y="485.0"/>
      <point x="451.0" y="440.0"/>
      <point x="451.0" y="342.0" type="curve" smooth="yes"/>
      <point x="451.0" y="0.0" type="line"/>
      <point x="471.0" y="0.0" type="line"/>
      <point x="471.0" y="342.0" type="line" smooth="yes"/>
      <point x="471.0" y="451.0"/>
      <point x="410.0" y="504.0"/>
      <point x="307.0" y="504.0" type="curve" smooth="yes"/>
      <point x="227.0" y="504.0"/>
      <point x="164.0" y="479.0"/>
      <point x="97.0" y="442.0" type="curve"/>
    </contour>
  </outline>
</glyph>
<glyph name="dotlessi" format="2">
  <advance width="190"/>
  <unicode hex="0131"/>
  <anchor x="95.0" y="520" name="top"/>
  <outline>
    <contour>
      <point x="85.0" y="0.0" type="line"/>
      <point x="105.0" y="0.0" type="line"/>
      <point x="105.0" y="494.0" type="line"/>
      <point x="85.0" y="494.0" type="line"/>
    </contour>
  </outline>
</glyph>
<glyph name="Lslash" format="2">
  <advance width="506"/>
  <unicode hex="0141"/>
  <outline>
    <contour>
      <point x="352.0" y="372.0" type="line"/>
      <point x="352.0" y="393.0" type="line"/>
      <point x="42.0" y="304.0" type="line"/>
      <point x="42.0" y="283.0" type="line"/>
    </contour>
    <component base="L" xOffset="19"/>
  </outline>
</glyph>
<glyph name="lslash" format="2">
  <advance width="251"/>
  <unicode hex="0142"/>
  <outline>
    <contour>
      <point x="218.0" y="346.0" type="line"/>
      <point x="218.0" y="367.0" type="line"/>
      <point x="37.0" y="312.0" type="line"/>
      <point x="37.0" y="291.0" type="line"/>
    </contour>
    <component base="l" xOffset="21"/>
  </outline>
</glyph>
<glyph name="Eng" format="2">
  <advance width="673"/>
  <unicode hex="014A"/>
  <guideline x="185" y="268" angle="90.0" identifier="Cnu5NzJCsF"/>
  <guideline x="412" y="283" angle="90.0" identifier="2PIunmo8JD"/>
  <guideline x="40" y="314" angle="0.0" name="mid" identifier="m6HvC5LRnN"/>
  <guideline x="320" y="627" angle="90" name="mid" identifier="UaNRIrqsuP"/>
  <outline>
    <contour>
      <point x="580.0" y="0.0" type="curve" smooth="yes"/>
      <point x="580.0" y="627.0" type="line"/>
      <point x="559.0" y="627.0" type="line"/>
      <point x="559.0" y="41.0" type="line"/>
      <point x="123.0" y="627.0" type="line"/>
      <point x="93.0" y="627.0" type="line"/>
      <point x="93.0" y="0.0" type="line"/>
      <point x="114.0" y="0.0" type="line"/>
      <point x="114.0" y="603.0" type="line"/>
      <point x="559.0" y="5.0" type="line"/>
      <point x="559.0" y="-93.0"/>
      <point x="525.0" y="-143.0"/>
      <point x="435.0" y="-143.0" type="curve"/>
      <point x="410.0" y="-143.0"/>
      <point x="388.0" y="-141.0"/>
      <point x="364.0" y="-137.0" type="curve"/>
      <point x="364.0" y="-156.0" type="line"/>
      <point x="387.0" y="-160.0"/>
      <point x="411.0" y="-162.0"/>
      <point x="439.0" y="-162.0" type="curve"/>
      <point x="534.0" y="-162.0"/>
      <point x="580.0" y="-108.0"/>
    </contour>
  </outline>
</glyph>
<glyph name="Eng" format="1">
  <advance width="673.0"/>
  <unicode hex="014A"/>
  <outline>
    <contour>
      <point x="580.0" y="0.0" type="curve" smooth="yes"/>
      <point x="580.0" y="627.0" type="line"/>
      <point x="559.0" y="627.0" type="line"/>
      <point x="559.0" y="41.0" type="line"/>
      <point x="123.0" y="627.0" type="line"/>
      <point x="93.0" y="627.0" type="line"/>
      <point x="93.0" y="0.0" type="line"/>
      <point x="114.0" y="0.0" type="line"/>
      <point x="114.0" y="603.0" type="line"/>
      <point x="559.0" y="5.0" type="line"/>
      <point x="559.0" y="-93.0"/>
      <point x="525.0" y="-143.0"/>
      <point x="435.0" y="-143.0" type="curve"/>
      <point x="410.0" y="-143.0"/>
      <point x="388.0" y="-141.0"/>
      <point x="364.0" y="-137.0" type="curve"/>
      <point x="364.0" y="-156.0" type="line"/>
      <point x="387.0" y="-160.0"/>
      <point x="411.0" y="-162.0"/>
      <point x="439.0" y="-162.0" type="curve"/>
      <point x="534.0" y="-162.0"/>
      <point x="580.0" y="-108.0"/>
    </contour>
    <contour>
      <point x="343.0" y="645.0" type="move" name="top"/>
    </contour>
  </outline>
</glyph>
<glyph name="eng" format="2">
  <advance width="552"/>
  <unicode hex="014B"/>
  <guideline x="202" y="239" angle="0" identifier="Pti0b5Z2af"/>
  <guideline x="272" y="0" angle="90" name="mid" identifier="FjejAob2Vm"/>
  <outline>
    <contour>
      <point x="85.0" y="0.0" type="line"/>
      <point x="105.0" y="0.0" type="line"/>
      <point x="105.0" y="446.0" type="line"/>
      <point x="103.0" y="446.0" type="line"/>
      <point x="101.0" y="494.0" type="line"/>
      <point x="85.0" y="494.0" type="line"/>
    </contour>
    <contour>
      <point x="471.0" y="5.0" type="curve" smooth="yes"/>
      <point x="471.0" y="342.0" type="line" smooth="yes"/>
      <point x="471.0" y="451.0"/>
      <point x="413.0" y="504.0"/>
      <point x="307.0" y="504.0" type="curve" smooth="yes"/>
      <point x="227.0" y="504.0"/>
      <point x="166.0" y="479.0"/>
      <point x="97.0" y="442.0" type="curve"/>
      <point x="97.0" y="422.0" type="line"/>
      <point x="166.0" y="462.0"/>
      <point x="233.0" y="485.0"/>
      <point x="300.0" y="485.0" type="curve" smooth="yes"/>
      <point x="403.0" y="485.0"/>
      <point x="451.0" y="440.0"/>
      <point x="451.0" y="342.0" type="curve" smooth="yes"/>
      <point x="451.0" y="5.0" type="line" smooth="yes"/>
      <point x="451.0" y="-93.0"/>
      <point x="417.0" y="-143.0"/>
      <point x="327.0" y="-143.0" type="curve"/>
      <point x="302.0" y="-143.0"/>
      <point x="280.0" y="-141.0"/>
      <point x="256.0" y="-137.0" type="curve"/>
      <point x="256.0" y="-156.0" type="line"/>
      <point x="279.0" y="-160.0"/>
      <point x="303.0" y="-162.0"/>
      <point x="331.0" y="-162.0" type="curve"/>
      <point x="427.0" y="-162.0"/>
      <point x="471.0" y="-106.0"/>
    </contour>
  </outline>
</glyph>
<glyph name="OE" format="2">
  <advance width="906"/>
  <unicode hex="0152"/>
  <outline>
    <contour>
      <point x="318.0" y="-6.0" type="curve"/>
      <point x="495.0" y="-6.0"/>
      <point x="568.0" y="79.0"/>
      <point x="568.0" y="316.0" type="curve"/>
      <point x="568.0" y="575.0"/>
      <point x="511.0" y="637.0"/>
      <point x="318.0" y="637.0" type="curve"/>
      <point x="138.0" y="637.0"/>
      <point x="66.0" y="552.0"/>
      <point x="66.0" y="316.0" type="curve"/>
      <point x="66.0" y="56.0"/>
      <point x="123.0" y="-6.0"/>
    </contour>
    <contour>
      <point x="318.0" y="14.0" type="curve"/>
      <point x="134.0" y="14.0"/>
      <point x="87.0" y="67.0"/>
      <point x="87.0" y="316.0" type="curve"/>
      <point x="87.0" y="542.0"/>
      <point x="149.0" y="617.0"/>
      <point x="318.0" y="617.0" type="curve"/>
      <point x="500.0" y="617.0"/>
      <point x="547.0" y="567.0"/>
      <point x="547.0" y="316.0" type="curve"/>
      <point x="547.0" y="92.0"/>
      <point x="486.0" y="14.0"/>
    </contour>
    <contour>
      <point x="431.0" y="607.0" type="line"/>
      <point x="854.0" y="607.0" type="line"/>
      <point x="854.0" y="627.0" type="line"/>
      <point x="421.0" y="627.0" type="line"/>
    </contour>
    <contour>
      <point x="555.0" y="313.0" type="line"/>
      <point x="817.0" y="313.0" type="line"/>
      <point x="817.0" y="333.0" type="line"/>
      <point x="555.0" y="333.0" type="line"/>
    </contour>
    <contour>
      <point x="382.0" y="0.0" type="line"/>
      <point x="863.0" y="0.0" type="line"/>
      <point x="863.0" y="20.0" type="line"/>
      <point x="402.0" y="20.0" type="line"/>
    </contour>
  </outline>
</glyph>
<glyph name="oe" format="2">
  <advance width="877"/>
  <unicode hex="0153"/>
  <guideline x="31" y="220" angle="90.0" identifier="isxzxSRP31"/>
  <guideline x="175" y="255" angle="90.0" identifier="INfopK4Ifz"/>
  <guideline x="359" y="227" angle="90.0" identifier="75Fg52WIh8"/>
  <guideline x="503" y="286" angle="90.0" identifier="uAXm32c1xv"/>
  <guideline x="482" y="341" angle="90.0" identifier="Y49OYQSWzd"/>
  <outline>
    <contour>
      <point x="270.0" y="-6.0" type="curve" smooth="yes"/>
      <point x="422.97156398104266" y="-6.0"/>
      <point x="473.0" y="61.0"/>
      <point x="473.0" y="249.0" type="curve" smooth="yes"/>
      <point x="473.0" y="449.0"/>
      <point x="431.6303317535545" y="504.0"/>
      <point x="270.0" y="504.0" type="curve" smooth="yes"/>
      <point x="116.94392523364485" y="504.0"/>
      <point x="64.0" y="437.0"/>
      <point x="64.0" y="249.0" type="curve" smooth="yes"/>
      <point x="64.0" y="49.0"/>
      <point x="108.2803738317757" y="-6.0"/>
    </contour>
    <contour>
      <point x="270.0" y="13.0" type="curve" smooth="yes"/>
      <point x="122.35051546391753" y="13.0"/>
      <point x="84.0" y="62.0"/>
      <point x="84.0" y="249.0" type="curve" smooth="yes"/>
      <point x="84.0" y="428.0"/>
      <point x="129.06185567010309" y="485.0"/>
      <point x="270.0" y="485.0" type="curve" smooth="yes"/>
      <point x="417.64948453608247" y="485.0"/>
      <point x="456.0" y="436.0"/>
      <point x="456.0" y="249.0" type="curve" smooth="yes"/>
      <point x="456.0" y="70.0"/>
      <point x="410.9381443298969" y="13.0"/>
    </contour>
    <contour>
      <point x="650.0" y="485.0" type="curve"/>
      <point x="764.4935064935064" y="485.0"/>
      <point x="802.0" y="419.0"/>
      <point x="802.0" y="302.0" type="curve"/>
      <point x="802.0" y="286.0"/>
      <point x="801.0" y="274.0"/>
      <point x="800.0" y="265.0" type="curve"/>
      <point x="476.0" y="265.0" type="line"/>
      <point x="476.0" y="419.0"/>
      <point x="525.1525423728814" y="485.0"/>
    </contour>
    <contour>
      <point x="801.0" y="27.0" type="curve"/>
      <point x="801.0" y="47.0" type="line"/>
      <point x="772.8443370167795" y="32.92216850838976"/>
      <point x="714.1972789115647" y="13.0"/>
      <point x="656.0" y="13.0" type="curve" smooth="yes"/>
      <point x="537.9672131147541" y="13.0"/>
      <point x="476.0" y="65.0"/>
      <point x="476.0" y="246.0" type="curve"/>
      <point x="818.0" y="246.0" type="line"/>
      <point x="820.0" y="262.0"/>
      <point x="822.0" y="282.0"/>
      <point x="822.0" y="302.0" type="curve"/>
      <point x="822.0" y="444.0"/>
      <point x="768.6206896551724" y="504.0"/>
      <point x="650.0" y="504.0" type="curve"/>
      <point x="517.0769230769231" y="504.0"/>
      <point x="458.0" y="435.0"/>
      <point x="458.0" y="252.0" type="curve" smooth="yes"/>
      <point x="458.0" y="62.0"/>
      <point x="516.1015228426396" y="-6.0"/>
      <point x="652.0" y="-6.0" type="curve" smooth="yes"/>
      <point x="718.1125827814569" y="-6.0"/>
      <point x="776.8701830864696" y="14.935091543234801"/>
    </contour>
  </outline>
</glyph>
<glyph name="tbar" format="2">
  <advance width="381"/>
  <unicode hex="0167"/>
  <outline>
    <contour>
      <point x="353.0" y="282.0" type="line"/>
      <point x="353.0" y="301.0" type="line"/>
      <point x="37.0" y="301.0" type="line"/>
      <point x="37.0" y="282.0" type="line"/>
    </contour>
    <component base="t" xOffset="10"/>
  </outline>
</glyph>
<glyph name="uni018F" format="1">
  <advance width="616.0"/>
  <unicode hex="018F"/>
  <outline>
    <contour>
      <point x="551.0" y="314.0" type="curve" smooth="yes"/>
      <point x="551.0" y="551.0"/>
      <point x="477.0" y="637.0"/>
      <point x="271.0" y="637.0" type="curve"/>
      <point x="200.0" y="637.0"/>
      <point x="150.0" y="626.0"/>
      <point x="114.0" y="612.0" type="curve"/>
      <point x="114.0" y="592.0" type="line"/>
      <point x="159.0" y="608.0"/>
      <point x="203.0" y="617.0"/>
      <point x="271.0" y="617.0" type="curve" smooth="yes"/>
      <point x="461.0" y="617.0"/>
      <point x="530.0" y="537.0"/>
      <point x="530.0" y="314.0" type="curve" smooth="yes"/>
      <point x="530.0" y="85.0"/>
      <point x="457.0" y="14.0"/>
      <point x="296.0" y="14.0" type="curve"/>
      <point x="148.0" y="14.0"/>
      <point x="76.0" y="85.0"/>
      <point x="76.0" y="237.0" type="curve"/>
      <point x="76.0" y="268.0"/>
      <point x="77.0" y="292.0"/>
      <point x="79.0" y="308.0" type="curve"/>
      <point x="539.0" y="308.0" type="line"/>
      <point x="539.0" y="328.0" type="line"/>
      <point x="60.0" y="328.0" type="line"/>
      <point x="58.0" y="305.0"/>
      <point x="55.0" y="279.0"/>
      <point x="55.0" y="236.0" type="curve"/>
      <point x="55.0" y="71.0"/>
      <point x="136.0" y="-6.0"/>
      <point x="296.0" y="-6.0" type="curve"/>
      <point x="466.0" y="-6.0"/>
      <point x="551.0" y="72.0"/>
    </contour>
  </outline>
</glyph>
<glyph name="florin" format="2">
  <advance width="405"/>
  <unicode hex="0192"/>
  <outline>
    <contour>
      <point x="379.0" y="628.0" type="line"/>
      <point x="364.0" y="631.0"/>
      <point x="341.0" y="635.0"/>
      <point x="303.0" y="635.0" type="curve"/>
      <point x="186.23684210526315" y="635.0"/>
      <point x="166.0" y="578.0"/>
      <point x="150.0" y="478.0" type="curve" smooth="yes"/>
      <point x="50.0" y="-152.0" type="line"/>
      <point x="71.0" y="-152.0" type="line"/>
      <point x="171.0" y="478.0" type="line" smooth="yes"/>
      <point x="186.0" y="570.0"/>
      <point x="200.0" y="615.0"/>
      <point x="299.0" y="615.0" type="curve"/>
      <point x="334.0" y="615.0"/>
      <point x="364.0" y="612.0"/>
      <point x="379.0" y="608.0" type="curve"/>
    </contour>
    <contour>
      <point x="47.0" y="334.0" type="line"/>
      <point x="353.0" y="334.0" type="line"/>
      <point x="353.0" y="354.0" type="line"/>
      <point x="47.0" y="354.0" type="line"/>
    </contour>
  </outline>
</glyph>
<glyph name="uni01B5" format="2">
  <advance width="528"/>
  <unicode hex="01B5"/>
  <outline>
    <contour>
      <point x="469.0" y="316.0" type="line"/>
      <point x="469.0" y="336.0" type="line"/>
      <point x="63.0" y="336.0" type="line"/>
      <point x="63.0" y="316.0" type="line"/>
    </contour>
    <component base="Z" xOffset="11"/>
  </outline>
</glyph>
<glyph name="uni01B6" format="2">
  <advance width="440"/>
  <unicode hex="01B6"/>
  <outline>
    <contour>
      <point x="384.0" y="251.0" type="line"/>
      <point x="384.0" y="270.0" type="line"/>
      <point x="64.0" y="270.0" type="line"/>
      <point x="64.0" y="251.0" type="line"/>
    </contour>
    <component base="z" xOffset="7"/>
  </outline>
</glyph>
<glyph name="uni0237" format="2">
  <advance width="202"/>
  <unicode hex="0237"/>
  <anchor x="107.0" y="520.0" name="top"/>
  <outline>
    <contour>
      <point x="-98.0" y="-156.0" type="line"/>
      <point x="-75.0" y="-160.0"/>
      <point x="-51.24675324675" y="-162.0"/>
      <point x="-23.0" y="-162.0" type="curve"/>
      <point x="73.376811594" y="-162.0"/>
      <point x="117.0" y="-106.333333333"/>
      <point x="117.0" y="5.0" type="curve"/>
      <point x="117.0" y="494.0" type="line"/>
      <point x="97.0" y="494.0" type="line"/>
      <point x="97.0" y="5.0" type="line"/>
      <point x="97.0" y="-93.3216783217"/>
      <point x="63.459016393" y="-143.0"/>
      <point x="-27.0" y="-143.0" type="curve"/>
      <point x="-52.28767123288" y="-143.0"/>
      <point x="-74.0" y="-141.0"/>
      <point x="-98.0" y="-137.0" type="curve"/>
    </contour>
  </outline>
</glyph>
<glyph name="uni0259" format="2">
  <advance width="504"/>
  <unicode hex="0259"/>
  <outline>
    <contour>
      <point x="238.0" y="13.0" type="curve"/>
      <point x="116.0" y="13.0"/>
      <point x="76.0" y="79.0"/>
      <point x="76.0" y="196.0" type="curve"/>
      <point x="76.0" y="218.48648648648648"/>
      <point x="76.59883187827842" y="235.38948690450573"/>
      <point x="78.0" y="248.0" type="curve"/>
      <point x="422.0" y="248.0" type="line"/>
      <point x="422.0" y="83.5"/>
      <point x="370.0" y="13.0"/>
    </contour>
    <contour>
      <point x="77.0" y="471.0" type="curve"/>
      <point x="77.0" y="451.0" type="line"/>
      <point x="106.0" y="466.0"/>
      <point x="170.0" y="485.0"/>
      <point x="232.0" y="485.0" type="curve" smooth="yes"/>
      <point x="357.0" y="485.0"/>
      <point x="422.0" y="431.0"/>
      <point x="422.0" y="267.0" type="curve"/>
      <point x="60.0" y="267.0" type="line"/>
      <point x="57.47166760923747" y="246.77334087389977"/>
      <point x="56.0" y="221.35714285714286"/>
      <point x="56.0" y="196.0" type="curve"/>
      <point x="56.0" y="54.0"/>
      <point x="113.0" y="-6.0"/>
      <point x="238.0" y="-6.0" type="curve"/>
      <point x="378.0" y="-6.0"/>
      <point x="442.0" y="67.0"/>
      <point x="442.0" y="261.0" type="curve" smooth="yes"/>
      <point x="442.0" y="435.0"/>
      <point x="379.0" y="504.0"/>
      <point x="236.0" y="504.0" type="curve" smooth="yes"/>
      <point x="165.0" y="504.0"/>
      <point x="102.0" y="483.0"/>
    </contour>
  </outline>
</glyph>
<glyph name="circumflex" format="2">
  <advance width="384"/>
  <unicode hex="02C6"/>
  <anchor x="192" y="530" name="_top"/>
  <outline>
    <contour>
      <point x="308.0" y="571.0" type="line"/>
      <point x="334.0" y="571.0" type="line"/>
      <point x="204.0" y="682.0" type="line"/>
      <point x="180.0" y="682.0" type="line"/>
      <point x="50.0" y="571.0" type="line"/>
      <point x="76.0" y="571.0" type="line"/>
      <point x="192.0" y="664.0" type="line"/>
    </contour>
  </outline>
</glyph>
<glyph name="ring" format="1">
  <advance width="317.0"/>
  <unicode hex="02DA"/>
  <outline>
    <contour>
      <point x="158.0" y="562.0" type="curve" smooth="yes"/>
      <point x="102.0" y="562.0"/>
      <point x="73.0" y="588.0"/>
      <point x="73.0" y="627.0" type="curve" smooth="yes"/>
      <point x="73.0" y="664.0"/>
      <point x="102.0" y="689.0"/>
      <point x="158.0" y="689.0" type="curve" smooth="yes"/>
      <point x="214.0" y="689.0"/>
      <point x="244.0" y="664.0"/>
      <point x="244.0" y="627.0" type="curve" smooth="yes"/>
      <point x="244.0" y="588.0"/>
      <point x="214.0" y="562.0"/>
    </contour>
    <contour>
      <point x="158.0" y="543.0" type="curve" smooth="yes"/>
      <point x="225.0" y="543.0"/>
      <point x="264.0" y="579.0"/>
      <point x="264.0" y="627.0" type="curve" smooth="yes"/>
      <point x="264.0" y="674.0"/>
      <point x="223.0" y="708.0"/>
      <point x="158.0" y="708.0" type="curve" smooth="yes"/>
      <point x="94.0" y="708.0"/>
      <point x="53.0" y="674.0"/>
      <point x="53.0" y="627.0" type="curve" smooth="yes"/>
      <point x="53.0" y="579.0"/>
      <point x="91.0" y="543.0"/>
    </contour>
    <contour>
      <point x="157" y="530" type="move" name="_top"/>
    </contour>
  </outline>
</glyph>
<glyph name="ogonek" format="2">
  <advance width="294"/>
  <unicode hex="02DB"/>
  <anchor x="244" y="9" name="_ogonek"/>
  <outline>
    <contour>
      <point x="244.0" y="9.0" type="curve"/>
      <point x="229.0" y="23.0" type="line"/>
      <point x="149.36789932345562" y="3.9968850658246353"/>
      <point x="68.0" y="-30.0"/>
      <point x="68.0" y="-116.0" type="curve"/>
      <point x="68.0" y="-157.0"/>
      <point x="95.87096774193549" y="-195.0"/>
      <point x="164.0" y="-195.0" type="curve"/>
      <point x="199.53947368421052" y="-195.0"/>
      <point x="216.76520051102395" y="-189.78137128256458"/>
      <point x="237.0" y="-184.0" type="curve"/>
      <point x="237.0" y="-164.0" type="line"/>
      <point x="219.63816512435085" y="-169.78727829188304"/>
      <point x="199.53947368421052" y="-176.0"/>
      <point x="164.0" y="-176.0" type="curve"/>
      <point x="115.06849315068493" y="-176.0"/>
      <point x="88.0" y="-151.0"/>
      <point x="88.0" y="-114.0" type="curve"/>
      <point x="88.0" y="-36.0"/>
      <point x="176.37579507065956" y="-6.328153117317159"/>
    </contour>
  </outline>
</glyph>
<glyph name="tilde" format="2">
  <advance width="383"/>
  <unicode hex="02DC"/>
  <guideline x="161" y="609" angle="90" name="mid" identifier="XQS8BW5LCk"/>
  <guideline x="192" y="625" angle="90" name="mid" identifier="2IGVC3T7p3"/>
  <anchor x="192" y="530" name="_top"/>
  <outline>
    <contour>
      <point x="333.0" y="678.0" type="curve"/>
      <point x="313.0" y="678.0" type="line"/>
      <point x="313.0" y="640.0"/>
      <point x="302.0" y="586.0"/>
      <point x="259.0" y="586.0" type="curve"/>
      <point x="212.0" y="586.0"/>
      <point x="189.0" y="682.0"/>
      <point x="130.0" y="682.0" type="curve"/>
      <point x="69.0" y="682.0"/>
      <point x="50.0" y="623.0"/>
      <point x="50.0" y="571.0" type="curve"/>
      <point x="70.0" y="571.0" type="line"/>
      <point x="70.0" y="607.0"/>
      <point x="79.0" y="663.0"/>
      <point x="129.0" y="663.0" type="curve"/>
      <point x="177.0" y="663.0"/>
      <point x="198.0" y="567.0"/>
      <point x="258.0" y="567.0" type="curve"/>
      <point x="316.0" y="567.0"/>
      <point x="333.0" y="626.0"/>
    </contour>
  </outline>
</glyph>
<glyph name="hungarumlaut" format="2">
  <advance width="418"/>
  <unicode hex="02DD"/>
  <guideline x="247" y="634" angle="90" name="mid" identifier="sf1AXasJoO"/>
  <anchor x="177" y="530" name="_top"/>
  <outline>
    <contour>
      <point x="189.0" y="682.0" type="line"/>
      <point x="155.0" y="682.0" type="line"/>
      <point x="55.0" y="571.0" type="line"/>
      <point x="77.0" y="571.0" type="line"/>
    </contour>
    <contour>
      <point x="363.0" y="682.0" type="line"/>
      <point x="329.0" y="682.0" type="line"/>
      <point x="229.0" y="571.0" type="line"/>
      <point x="251.0" y="571.0" type="line"/>
    </contour>
  </outline>
</glyph>
<glyph name="uni0312" format="2">
  <advance width="136"/>
  <unicode hex="0312"/>
  <guideline x="311" y="551" angle="90" name="mid" identifier="8M2p2c8Q4w"/>
  <anchor x="64.0" y="530.0" name="_top"/>
  <outline>
    <contour>
      <point x="70.0" y="704.0" type="curve" smooth="yes"/>
      <point x="50.0" y="571.0" type="line"/>
      <point x="76.0" y="571.0" type="line"/>
      <point x="86.0" y="719.0" type="line"/>
      <point x="84.0" y="719.0" type="line" smooth="yes"/>
      <point x="74.0" y="719.0"/>
      <point x="72.0" y="715.0"/>
    </contour>
  </outline>
</glyph>
<glyph name="uni0326" format="2">
  <advance width="136"/>
  <unicode hex="0326"/>
  <guideline x="104" y="-62" angle="90" name="mid" identifier="qZH0GoPVX6"/>
  <anchor x="72.0" y="0.0" name="_bottom"/>
  <outline>
    <contour>
      <point x="64.0" y="-213.0" type="curve" smooth="yes"/>
      <point x="84.0" y="-80.0" type="line"/>
      <point x="58.0" y="-80.0" type="line"/>
      <point x="48.0" y="-228.0" type="line"/>
      <point x="50.0" y="-228.0" type="line" smooth="yes"/>
      <point x="60.0" y="-228.0"/>
      <point x="62.0" y="-224.0"/>
    </contour>
  </outline>
</glyph>
<glyph name="uni0394" format="2">
  <advance width="612"/>
  <unicode hex="0394"/>
  <outline>
    <contour>
      <point x="574.0" y="0.0" type="line"/>
      <point x="585.0" y="0.0" type="line"/>
      <point x="585.0" y="20.0" type="line"/>
      <point x="317.0" y="627.0" type="line"/>
      <point x="297.0" y="627.0" type="line"/>
    </contour>
    <contour>
      <point x="38.0" y="0.0" type="line"/>
      <point x="315.0" y="627.0" type="line"/>
      <point x="295.0" y="627.0" type="line"/>
      <point x="27.0" y="20.0" type="line"/>
      <point x="27.0" y="0.0" type="line"/>
    </contour>
    <contour>
      <point x="32.0" y="20.0" type="line"/>
      <point x="32.0" y="0.0" type="line"/>
      <point x="574.0" y="0.0" type="line"/>
      <point x="574.0" y="20.0" type="line"/>
    </contour>
  </outline>
</glyph>
<glyph name="uni03A9" format="1">
  <advance width="707.0"/>
  <unicode hex="03A9"/>
  <outline>
    <contour>
      <point x="276.0" y="0.0" type="line"/>
      <point x="276.0" y="129.0" type="line"/>
      <point x="255.0" y="129.0" type="line"/>
      <point x="255.0" y="0.0" type="line"/>
    </contour>
    <contour>
      <point x="89.0" y="21.0" type="line"/>
      <point x="89.0" y="0.0" type="line"/>
      <point x="276.0" y="0.0" type="line"/>
      <point x="276.0" y="21.0" type="line"/>
    </contour>
    <contour>
      <point x="276.0" y="110.0" type="curve"/>
      <point x="276.0" y="129.0" type="line"/>
      <point x="147.23969435480024" y="163.9349666479224"/>
      <point x="77.0" y="239.87058823529412"/>
      <point x="77.0" y="377.0" type="curve"/>
      <point x="77.0" y="525.1652892561983"/>
      <point x="168.68989547038325" y="626.0"/>
      <point x="354.0" y="626.0" type="curve" smooth="yes"/>
      <point x="538.3216783216783" y="626.0"/>
      <point x="630.0" y="525.1652892561983"/>
      <point x="630.0" y="377.0" type="curve"/>
      <point x="630.0" y="238.89803921568628"/>
      <point x="559.771397027625" y="162.9392773354629"/>
      <point x="432.0" y="129.0" type="curve"/>
      <point x="432.0" y="110.0" type="line"/>
      <point x="568.8418038915279" y="139.96535851639294"/>
      <point x="651.0" y="225.95985401459853"/>
      <point x="651.0" y="377.0" type="curve"/>
      <point x="651.0" y="535.0988593155894"/>
      <point x="552.3224755700326" y="647.0"/>
      <point x="354.0" y="647.0" type="curve" smooth="yes"/>
      <point x="154.6883116883117" y="647.0"/>
      <point x="56.0" y="533.0456273764258"/>
      <point x="56.0" y="377.0" type="curve"/>
      <point x="56.0" y="225.95985401459853"/>
      <point x="138.14728057908056" y="138.9690497333816"/>
    </contour>
    <contour>
      <point x="432.0" y="0.0" type="line"/>
      <point x="453.0" y="0.0" type="line"/>
      <point x="453.0" y="129.0" type="line"/>
      <point x="432.0" y="129.0" type="line"/>
    </contour>
    <contour>
      <point x="619.0" y="21.0" type="line"/>
      <point x="432.0" y="21.0" type="line"/>
      <point x="432.0" y="0.0" type="line"/>
      <point x="619.0" y="0.0" type="line"/>
    </contour>
  </outline>
</glyph>
<glyph name="uni03A9" format="2">
  <advance width="707"/>
  <unicode hex="03A9"/>
  <outline>
    <contour>
      <point x="276.0" y="0.0" type="line"/>
      <point x="276.0" y="129.0" type="line"/>
      <point x="255.0" y="129.0" type="line"/>
      <point x="255.0" y="0.0" type="line"/>
    </contour>
    <contour>
      <point x="89.0" y="21.0" type="line"/>
      <point x="89.0" y="0.0" type="line"/>
      <point x="276.0" y="0.0" type="line"/>
      <point x="276.0" y="21.0" type="line"/>
    </contour>
    <contour>
      <point x="276.0" y="110.0" type="curve"/>
      <point x="276.0" y="129.0" type="line"/>
      <point x="147.23969435480024" y="163.9349666479224"/>
      <point x="77.0" y="239.87058823529412"/>
      <point x="77.0" y="377.0" type="curve"/>
      <point x="77.0" y="525.1652892561983"/>
      <point x="168.68989547038325" y="626.0"/>
      <point x="354.0" y="626.0" type="curve" smooth="yes"/>
      <point x="538.3216783216783" y="626.0"/>
      <point x="630.0" y="525.1652892561983"/>
      <point x="630.0" y="377.0" type="curve"/>
      <point x="630.0" y="238.89803921568628"/>
      <point x="559.771397027625" y="162.9392773354629"/>
      <point x="432.0" y="129.0" type="curve"/>
      <point x="432.0" y="110.0" type="line"/>
      <point x="568.8418038915279" y="139.96535851639294"/>
      <point x="651.0" y="225.95985401459853"/>
      <point x="651.0" y="377.0" type="curve"/>
      <point x="651.0" y="535.0988593155894"/>
      <point x="552.3224755700326" y="647.0"/>
      <point x="354.0" y="647.0" type="curve" smooth="yes"/>
      <point x="154.6883116883117" y="647.0"/>
      <point x="56.0" y="533.0456273764258"/>
      <point x="56.0" y="377.0" type="curve"/>
      <point x="56.0" y="225.95985401459853"/>
      <point x="138.14728057908056" y="138.9690497333816"/>
    </contour>
    <contour>
      <point x="432.0" y="0.0" type="line"/>
      <point x="453.0" y="0.0" type="line"/>
      <point x="453.0" y="129.0" type="line"/>
      <point x="432.0" y="129.0" type="line"/>
    </contour>
    <contour>
      <point x="619.0" y="21.0" type="line"/>
      <point x="432.0" y="21.0" type="line"/>
      <point x="432.0" y="0.0" type="line"/>
      <point x="619.0" y="0.0" type="line"/>
    </contour>
  </outline>
</glyph>
<glyph name="uni03BC" format="1">
  <advance width="553.0"/>
  <unicode hex="03BC"/>
  <outline>
    <contour>
      <point x="244.0" y="-6.0" type="curve" smooth="yes"/>
      <point x="320.0" y="-6.0"/>
      <point x="382.0" y="19.0"/>
      <point x="449.0" y="53.0" type="curve"/>
      <point x="452.0" y="0.0" type="line"/>
      <point x="468.0" y="0.0" type="line"/>
      <point x="468.0" y="494.0" type="line"/>
      <point x="448.0" y="494.0" type="line"/>
      <point x="448.0" y="72.0" type="line"/>
      <point x="382.0" y="35.0"/>
      <point x="314.0" y="13.0"/>
      <point x="251.0" y="13.0" type="curve" smooth="yes"/>
      <point x="151.0" y="13.0"/>
      <point x="105.0" y="49.0"/>
      <point x="105.0" y="156.0" type="curve" smooth="yes"/>
      <point x="105.0" y="494.0" type="line"/>
      <point x="85.0" y="494.0" type="line"/>
      <point x="85.0" y="60.0" type="line" smooth="yes"/>
      <point x="85.0" y="-14.0"/>
      <point x="85.0" y="-86.0"/>
      <point x="111.0" y="-152.0" type="curve"/>
      <point x="131.0" y="-152.0" type="line"/>
      <point x="105.0" y="-86.0"/>
      <point x="105.0" y="-14.0"/>
      <point x="105.0" y="69.0" type="curve"/>
      <point x="120.0" y="15.0"/>
      <point x="177.0" y="-6.0"/>
    </contour>
  </outline>
</glyph>
<glyph name="uni03BC" format="2">
  <advance width="553"/>
  <unicode hex="03BC"/>
  <outline>
    <contour>
      <point x="244.0" y="-6.0" type="curve" smooth="yes"/>
      <point x="320.0" y="-6.0"/>
      <point x="382.0" y="19.0"/>
      <point x="449.0" y="53.0" type="curve"/>
      <point x="452.0" y="0.0" type="line"/>
      <point x="468.0" y="0.0" type="line"/>
      <point x="468.0" y="494.0" type="line"/>
      <point x="448.0" y="494.0" type="line"/>
      <point x="448.0" y="72.0" type="line"/>
      <point x="382.0" y="35.0"/>
      <point x="314.0" y="13.0"/>
      <point x="251.0" y="13.0" type="curve" smooth="yes"/>
      <point x="151.0" y="13.0"/>
      <point x="105.0" y="49.0"/>
      <point x="105.0" y="156.0" type="curve" smooth="yes"/>
      <point x="105.0" y="494.0" type="line"/>
      <point x="85.0" y="494.0" type="line"/>
      <point x="85.0" y="60.0" type="line" smooth="yes"/>
      <point x="85.0" y="-14.0"/>
      <point x="85.0" y="-86.0"/>
      <point x="111.0" y="-152.0" type="curve"/>
      <point x="131.0" y="-152.0" type="line"/>
      <point x="105.0" y="-86.0"/>
      <point x="105.0" y="-14.0"/>
      <point x="105.0" y="69.0" type="curve"/>
      <point x="120.0" y="15.0"/>
      <point x="177.0" y="-6.0"/>
    </contour>
  </outline>
</glyph>
<glyph name="pi" format="2">
  <advance width="603"/>
  <unicode hex="03C0"/>
  <guideline x="597" y="270" angle="90.0" identifier="wwrXhpwrTH"/>
  <outline>
    <contour>
      <point x="29.0" y="494.0" type="line"/>
      <point x="29.0" y="474.0" type="line"/>
      <point x="564.0" y="474.0" type="line"/>
      <point x="564.0" y="494.0" type="line"/>
    </contour>
    <contour>
      <point x="428.0" y="145.0" type="curve" smooth="yes"/>
      <point x="428.0" y="478.0" type="line"/>
      <point x="408.0" y="478.0" type="line"/>
      <point x="408.0" y="144.0" type="line" smooth="yes"/>
      <point x="408.0" y="54.0"/>
      <point x="461.0" y="0.0"/>
      <point x="550.0" y="0.0" type="curve" smooth="yes"/>
      <point x="559.0" y="0.0" type="line"/>
      <point x="559.0" y="19.0" type="line"/>
      <point x="548.0" y="19.0" type="line" smooth="yes"/>
      <point x="474.0" y="19.0"/>
      <point x="428.0" y="67.0"/>
    </contour>
    <contour>
      <point x="90.0" y="0.0" type="line"/>
      <point x="158.0" y="144.0"/>
      <point x="184.0" y="329.0"/>
      <point x="178.0" y="478.0" type="curve"/>
      <point x="158.0" y="478.0" type="line"/>
      <point x="168.0" y="332.0"/>
      <point x="136.0" y="138.0"/>
      <point x="68.0" y="0.0" type="curve"/>
    </contour>
  </outline>
</glyph>
<glyph name="endash" format="2">
  <advance width="535"/>
  <unicode hex="2013"/>
  <outline>
    <contour>
      <point x="472.0" y="308.0" type="line"/>
      <point x="472.0" y="328.0" type="line"/>
      <point x="63.0" y="328.0" type="line"/>
      <point x="63.0" y="308.0" type="line"/>
    </contour>
  </outline>
</glyph>
<glyph name="emdash" format="2">
  <advance width="815"/>
  <unicode hex="2014"/>
  <outline>
    <contour>
      <point x="752.0" y="308.0" type="line"/>
      <point x="752.0" y="328.0" type="line"/>
      <point x="63.0" y="328.0" type="line"/>
      <point x="63.0" y="308.0" type="line"/>
    </contour>
  </outline>
</glyph>
<glyph name="quoteright" format="1">
  <advance width="157.0"/>
  <unicode hex="2019"/>
  <outline>
    <contour>
      <point x="81.0" y="493.0" type="curve" smooth="yes"/>
      <point x="101.0" y="627.0" type="line"/>
      <point x="75.0" y="627.0" type="line"/>
      <point x="65.0" y="478.0" type="line"/>
      <point x="66.0" y="478.0" type="line" smooth="yes"/>
      <point x="77.0" y="478.0"/>
      <point x="79.0" y="482.0"/>
    </contour>
  </outline>
</glyph>
<glyph name="dagger" format="2">
  <advance width="381"/>
  <unicode hex="2020"/>
  <outline>
    <contour>
      <point x="192.0" y="484.0" type="line"/>
      <point x="192.0" y="467.0" type="line"/>
      <point x="343.0" y="464.0" type="line"/>
      <point x="343.0" y="489.0" type="line"/>
    </contour>
    <contour>
      <point x="201.0" y="221.0" type="line"/>
      <point x="198.0" y="478.0" type="line"/>
      <point x="180.0" y="478.0" type="line"/>
      <point x="177.0" y="221.0" type="line"/>
    </contour>
    <contour>
      <point x="189.0" y="467.0" type="line"/>
      <point x="189.0" y="484.0" type="line"/>
      <point x="38.0" y="489.0" type="line"/>
      <point x="38.0" y="464.0" type="line"/>
    </contour>
    <contour>
      <point x="180.0" y="474.0" type="line"/>
      <point x="198.0" y="474.0" type="line"/>
      <point x="201.0" y="627.0" type="line"/>
      <point x="177.0" y="627.0" type="line"/>
    </contour>
  </outline>
</glyph>
<glyph name="daggerdbl" format="1">
  <advance width="423.0"/>
  <unicode hex="2021"/>
  <outline>
    <contour>
      <point x="213.0" y="484.0" type="line"/>
      <point x="213.0" y="467.0" type="line"/>
      <point x="364.0" y="464.0" type="line"/>
      <point x="364.0" y="489.0" type="line"/>
    </contour>
    <contour>
      <point x="219.0" y="267.0" type="line"/>
      <point x="219.0" y="478.0" type="line"/>
      <point x="201.0" y="478.0" type="line"/>
      <point x="201.0" y="267.0" type="line"/>
    </contour>
    <contour>
      <point x="210.0" y="467.0" type="line"/>
      <point x="210.0" y="484.0" type="line"/>
      <point x="59.0" y="489.0" type="line"/>
      <point x="59.0" y="464.0" type="line"/>
    </contour>
    <contour>
      <point x="201.0" y="474.0" type="line"/>
      <point x="219.0" y="474.0" type="line"/>
      <point x="222.0" y="627.0" type="line"/>
      <point x="198.0" y="627.0" type="line"/>
    </contour>
    <contour>
      <point x="210.0" y="261.0" type="line"/>
      <point x="210.0" y="278.0" type="line"/>
      <point x="59.0" y="281.0" type="line"/>
      <point x="59.0" y="256.0" type="line"/>
    </contour>
    <contour>
      <point x="213.0" y="278.0" type="line"/>
      <point x="213.0" y="261.0" type="line"/>
      <point x="364.0" y="256.0" type="line"/>
      <point x="364.0" y="281.0" type="line"/>
    </contour>
    <contour>
      <point x="219.0" y="271.0" type="line"/>
      <point x="201.0" y="271.0" type="line"/>
      <point x="198.0" y="118.0" type="line"/>
      <point x="222.0" y="118.0" type="line"/>
    </contour>
  </outline>
</glyph>
<glyph name="ellipsis" format="2">
  <advance width="350"/>
  <unicode hex="2026"/>
  <outline>
    <contour>
      <point x="163.0" y="0.0" type="line"/>
      <point x="187.0" y="0.0" type="line"/>
      <point x="187.0" y="33.0" type="line"/>
      <point x="163.0" y="33.0" type="line"/>
    </contour>
    <contour>
      <point x="53.0" y="0.0" type="line"/>
      <point x="77.0" y="0.0" type="line"/>
      <point x="77.0" y="33.0" type="line"/>
      <point x="53.0" y="33.0" type="line"/>
    </contour>
    <contour>
      <point x="273.0" y="0.0" type="line"/>
      <point x="297.0" y="0.0" type="line"/>
      <point x="297.0" y="33.0" type="line"/>
      <point x="273.0" y="33.0" type="line"/>
    </contour>
  </outline>
</glyph>
<glyph name="perthousand" format="2">
  <advance width="922"/>
  <unicode hex="2030"/>
  <outline>
    <contour>
      <point x="161.0" y="612.0" type="curve"/>
      <point x="230.0" y="612.0"/>
      <point x="255.0" y="576.0"/>
      <point x="255.0" y="475.0" type="curve"/>
      <point x="255.0" y="375.0"/>
      <point x="230.0" y="339.0"/>
      <point x="161.0" y="339.0" type="curve"/>
      <point x="92.0" y="339.0"/>
      <point x="67.0" y="375.0"/>
      <point x="67.0" y="475.0" type="curve"/>
      <point x="67.0" y="576.0"/>
      <point x="92.0" y="612.0"/>
    </contour>
    <contour>
      <point x="161.0" y="320.0" type="curve"/>
      <point x="245.0" y="320.0"/>
      <point x="276.0" y="361.0"/>
      <point x="276.0" y="475.0" type="curve"/>
      <point x="276.0" y="590.0"/>
      <point x="245.0" y="631.0"/>
      <point x="161.0" y="631.0" type="curve"/>
      <point x="77.0" y="631.0"/>
      <point x="46.0" y="590.0"/>
      <point x="46.0" y="475.0" type="curve"/>
      <point x="46.0" y="361.0"/>
      <point x="77.0" y="320.0"/>
    </contour>
    <contour>
      <point x="473.0" y="289.0" type="curve"/>
      <point x="542.0" y="289.0"/>
      <point x="567.0" y="253.0"/>
      <point x="567.0" y="152.0" type="curve"/>
      <point x="567.0" y="52.0"/>
      <point x="542.0" y="16.0"/>
      <point x="473.0" y="16.0" type="curve"/>
      <point x="404.0" y="16.0"/>
      <point x="379.0" y="52.0"/>
      <point x="379.0" y="152.0" type="curve"/>
      <point x="379.0" y="253.0"/>
      <point x="404.0" y="289.0"/>
    </contour>
    <contour>
      <point x="473.0" y="-3.0" type="curve"/>
      <point x="557.0" y="-3.0"/>
      <point x="588.0" y="38.0"/>
      <point x="588.0" y="152.0" type="curve"/>
      <point x="588.0" y="267.0"/>
      <point x="557.0" y="308.0"/>
      <point x="473.0" y="308.0" type="curve"/>
      <point x="389.0" y="308.0"/>
      <point x="358.0" y="267.0"/>
      <point x="358.0" y="152.0" type="curve"/>
      <point x="358.0" y="38.0"/>
      <point x="389.0" y="-3.0"/>
    </contour>
    <contour>
      <point x="761.0" y="289.0" type="curve"/>
      <point x="830.0" y="289.0"/>
      <point x="855.0" y="253.0"/>
      <point x="855.0" y="152.0" type="curve"/>
      <point x="855.0" y="52.0"/>
      <point x="830.0" y="16.0"/>
      <point x="761.0" y="16.0" type="curve"/>
      <point x="692.0" y="16.0"/>
      <point x="667.0" y="52.0"/>
      <point x="667.0" y="152.0" type="curve"/>
      <point x="667.0" y="253.0"/>
      <point x="692.0" y="289.0"/>
    </contour>
    <contour>
      <point x="761.0" y="-3.0" type="curve"/>
      <point x="845.0" y="-3.0"/>
      <point x="876.0" y="38.0"/>
      <point x="876.0" y="152.0" type="curve"/>
      <point x="876.0" y="267.0"/>
      <point x="845.0" y="308.0"/>
      <point x="761.0" y="308.0" type="curve"/>
      <point x="677.0" y="308.0"/>
      <point x="646.0" y="267.0"/>
      <point x="646.0" y="152.0" type="curve"/>
      <point x="646.0" y="38.0"/>
      <point x="677.0" y="-3.0"/>
    </contour>
    <component base="fraction" xOffset="253"/>
  </outline>
</glyph>
<glyph name="guilsinglleft" format="2">
  <advance width="257"/>
  <unicode hex="2039"/>
  <guideline x="220" y="409" angle="90.0" identifier="1TLmITY9Ag"/>
  <outline>
    <contour>
      <point x="207.0" y="494.0" type="line"/>
      <point x="186.0" y="494.0" type="line"/>
      <point x="37.0" y="281.0" type="line"/>
      <point x="55.0" y="276.0" type="line"/>
    </contour>
    <contour>
      <point x="186.0" y="64.0" type="line"/>
      <point x="207.0" y="64.0" type="line"/>
      <point x="55.0" y="287.0" type="line"/>
      <point x="37.0" y="281.0" type="line"/>
    </contour>
  </outline>
</glyph>
<glyph name="fraction" format="2">
  <advance width="120"/>
  <unicode hex="2044"/>
  <outline>
    <contour>
      <point x="-78.0" y="0.0" type="line"/>
      <point x="222.0" y="627.0" type="line"/>
      <point x="199.0" y="627.0" type="line"/>
      <point x="-101.0" y="0.0" type="line"/>
    </contour>
  </outline>
</glyph>
<glyph name="uni2070" format="2">
  <advance width="374"/>
  <unicode hex="2070"/>
  <guideline x="268" y="445" angle="90" identifier="hyYINPzzv1"/>
  <guideline x="2972" y="207" angle="90" identifier="CNJkRo5nNE"/>
  <guideline x="212" y="246" angle="0" identifier="AHoPvyAacz"/>
  <guideline x="8" y="252" angle="90" identifier="ixabiZViVN"/>
  <outline>
    <contour>
      <point x="187.0" y="614.0" type="curve"/>
      <point x="279.0" y="614.0"/>
      <point x="303.0" y="580.0"/>
      <point x="303.0" y="450.0" type="curve"/>
      <point x="303.0" y="325.0"/>
      <point x="275.0" y="286.0"/>
      <point x="187.0" y="286.0" type="curve"/>
      <point x="95.0" y="286.0"/>
      <point x="71.0" y="320.0"/>
      <point x="71.0" y="450.0" type="curve"/>
      <point x="71.0" y="574.0"/>
      <point x="99.0" y="614.0"/>
    </contour>
    <contour>
      <point x="187.0" y="266.0" type="curve"/>
      <point x="288.0" y="266.0"/>
      <point x="324.0" y="312.0"/>
      <point x="324.0" y="450.0" type="curve"/>
      <point x="324.0" y="594.0"/>
      <point x="294.0" y="633.0"/>
      <point x="187.0" y="633.0" type="curve"/>
      <point x="86.0" y="633.0"/>
      <point x="50.0" y="588.0"/>
      <point x="50.0" y="450.0" type="curve"/>
      <point x="50.0" y="305.0"/>
      <point x="81.0" y="266.0"/>
    </contour>
  </outline>
</glyph>
<glyph name="uni2074" format="2">
  <advance width="340"/>
  <unicode hex="2074"/>
  <guideline x="118" y="219" angle="353.741" identifier="egesvJkvb5"/>
  <outline>
    <contour>
      <point x="308.0" y="374.0" type="line"/>
      <point x="308.0" y="393.0" type="line"/>
      <point x="248.0" y="393.0" type="line"/>
      <point x="248.0" y="565.0" type="line"/>
      <point x="227.0" y="565.0" type="line"/>
      <point x="227.0" y="393.0" type="line"/>
      <point x="60.0" y="393.0" type="line"/>
      <point x="108.0" y="627.0" type="line"/>
      <point x="88.0" y="627.0" type="line"/>
      <point x="39.0" y="392.0" type="line"/>
      <point x="39.0" y="374.0" type="line"/>
      <point x="227.0" y="374.0" type="line"/>
      <point x="227.0" y="270.0" type="line"/>
      <point x="248.0" y="270.0" type="line"/>
      <point x="248.0" y="374.0" type="line"/>
    </contour>
  </outline>
</glyph>
<glyph name="uni2075" format="2">
  <advance width="306"/>
  <unicode hex="2075"/>
  <outline>
    <contour>
      <point x="141.0" y="266.0" type="curve"/>
      <point x="227.0" y="266.0"/>
      <point x="265.0" y="298.0"/>
      <point x="265.0" y="374.0" type="curve" smooth="yes"/>
      <point x="265.0" y="452.0"/>
      <point x="215.0" y="469.0"/>
      <point x="141.0" y="469.0" type="curve" smooth="yes"/>
      <point x="119.0" y="469.0"/>
      <point x="96.0" y="467.0"/>
      <point x="81.0" y="464.0" type="curve"/>
      <point x="81.0" y="608.0" type="line"/>
      <point x="241.0" y="608.0" type="line"/>
      <point x="241.0" y="627.0" type="line"/>
      <point x="61.0" y="627.0" type="line"/>
      <point x="61.0" y="444.0" type="line"/>
      <point x="85.0" y="449.0"/>
      <point x="109.0" y="451.0"/>
      <point x="136.0" y="451.0" type="curve" smooth="yes"/>
      <point x="200.0" y="451.0"/>
      <point x="244.0" y="439.0"/>
      <point x="244.0" y="374.0" type="curve" smooth="yes"/>
      <point x="244.0" y="310.0"/>
      <point x="214.0" y="286.0"/>
      <point x="138.0" y="286.0" type="curve"/>
      <point x="101.0" y="286.0"/>
      <point x="66.0" y="290.0"/>
      <point x="42.0" y="297.0" type="curve"/>
      <point x="42.0" y="277.0" type="line"/>
      <point x="62.0" y="271.0"/>
      <point x="94.0" y="266.0"/>
    </contour>
  </outline>
</glyph>
<glyph name="uni2076" format="2">
  <advance width="343"/>
  <unicode hex="2076"/>
  <outline>
    <contour>
      <point x="49.0" y="439.0" type="curve"/>
      <point x="49.0" y="312.0"/>
      <point x="88.0" y="266.0"/>
      <point x="176.0" y="266.0" type="curve"/>
      <point x="256.0" y="266.0"/>
      <point x="304.0" y="311.0"/>
      <point x="304.0" y="388.0" type="curve"/>
      <point x="304.0" y="465.0"/>
      <point x="267.0" y="494.0"/>
      <point x="197.0" y="494.0" type="curve"/>
      <point x="143.0" y="494.0"/>
      <point x="102.0" y="477.0"/>
      <point x="62.0" y="454.0" type="curve"/>
      <point x="62.0" y="436.0" type="line"/>
      <point x="101.0" y="459.0"/>
      <point x="143.0" y="475.0"/>
      <point x="189.0" y="475.0" type="curve"/>
      <point x="254.0" y="475.0"/>
      <point x="283.0" y="452.0"/>
      <point x="283.0" y="388.0" type="curve"/>
      <point x="283.0" y="323.0"/>
      <point x="247.0" y="285.0"/>
      <point x="175.0" y="285.0" type="curve"/>
      <point x="101.0" y="285.0"/>
      <point x="70.0" y="326.0"/>
      <point x="70.0" y="438.0" type="curve"/>
      <point x="70.0" y="563.0"/>
      <point x="100.0" y="614.0"/>
      <point x="208.0" y="614.0" type="curve"/>
      <point x="226.0" y="614.0"/>
      <point x="242.0" y="613.0"/>
      <point x="256.0" y="611.0" type="curve"/>
      <point x="256.0" y="629.0" type="line"/>
      <point x="248.0" y="631.0"/>
      <point x="228.0" y="633.0"/>
      <point x="208.0" y="633.0" type="curve"/>
      <point x="87.0" y="633.0"/>
      <point x="49.0" y="573.0"/>
    </contour>
  </outline>
</glyph>
<glyph name="uni2077" format="1">
  <advance width="294.0"/>
  <unicode hex="2077"/>
  <outline>
    <contour>
      <point x="266.0" y="609.0" type="line"/>
      <point x="266.0" y="627.0" type="line"/>
      <point x="34.0" y="627.0" type="line"/>
      <point x="34.0" y="608.0" type="line"/>
      <point x="243.0" y="608.0" type="line"/>
      <point x="44.0" y="270.0" type="line"/>
      <point x="67.0" y="270.0" type="line"/>
    </contour>
  </outline>
</glyph>
<glyph name="uni2078" format="2">
  <advance width="348"/>
  <unicode hex="2078"/>
  <guideline x="255" y="318" angle="0" name="mid" identifier="bDjSsYtYqX"/>
  <outline>
    <contour>
      <point x="173.0" y="266.0" type="curve"/>
      <point x="260.0" y="266.0"/>
      <point x="300.0" y="297.0"/>
      <point x="300.0" y="364.0" type="curve"/>
      <point x="300.0" y="416.0"/>
      <point x="270.0" y="448.0"/>
      <point x="213.0" y="453.0" type="curve"/>
      <point x="268.0" y="459.0"/>
      <point x="293.0" y="493.0"/>
      <point x="293.0" y="543.0" type="curve"/>
      <point x="293.0" y="604.0"/>
      <point x="256.0" y="633.0"/>
      <point x="173.0" y="633.0" type="curve"/>
      <point x="92.0" y="633.0"/>
      <point x="55.0" y="603.0"/>
      <point x="55.0" y="541.0" type="curve"/>
      <point x="55.0" y="494.0"/>
      <point x="79.0" y="458.0"/>
      <point x="133.0" y="453.0" type="curve"/>
      <point x="74.0" y="447.0"/>
      <point x="48.0" y="409.0"/>
      <point x="48.0" y="359.0" type="curve"/>
      <point x="48.0" y="296.0"/>
      <point x="86.0" y="266.0"/>
    </contour>
    <contour>
      <point x="173.0" y="615.0" type="curve"/>
      <point x="244.0" y="615.0"/>
      <point x="273.0" y="592.0"/>
      <point x="273.0" y="541.0" type="curve"/>
      <point x="273.0" y="496.0"/>
      <point x="253.0" y="461.0"/>
      <point x="172.0" y="461.0" type="curve"/>
      <point x="94.0" y="461.0"/>
      <point x="75.0" y="496.0"/>
      <point x="75.0" y="540.0" type="curve"/>
      <point x="75.0" y="591.0"/>
      <point x="103.0" y="615.0"/>
    </contour>
    <contour>
      <point x="172.0" y="443.0" type="curve"/>
      <point x="246.0" y="443.0"/>
      <point x="280.0" y="419.0"/>
      <point x="280.0" y="365.0" type="curve"/>
      <point x="280.0" y="310.0"/>
      <point x="247.0" y="285.0"/>
      <point x="173.0" y="285.0" type="curve"/>
      <point x="101.0" y="285.0"/>
      <point x="68.0" y="309.0"/>
      <point x="68.0" y="361.0" type="curve"/>
      <point x="68.0" y="417.0"/>
      <point x="101.0" y="443.0"/>
    </contour>
  </outline>
</glyph>
<glyph name="uni2079" format="1">
  <advance width="338.0"/>
  <unicode hex="2079"/>
  <outline>
    <contour>
      <point x="289.0" y="460.0" type="curve"/>
      <point x="289.0" y="590.0"/>
      <point x="253.0" y="633.0"/>
      <point x="165.0" y="633.0" type="curve"/>
      <point x="86.0" y="633.0"/>
      <point x="39.0" y="591.0"/>
      <point x="39.0" y="516.0" type="curve"/>
      <point x="39.0" y="438.0"/>
      <point x="77.0" y="408.0"/>
      <point x="150.0" y="408.0" type="curve"/>
      <point x="200.0" y="408.0"/>
      <point x="239.0" y="424.0"/>
      <point x="276.0" y="449.0" type="curve"/>
      <point x="276.0" y="466.0" type="line"/>
      <point x="240.0" y="442.0"/>
      <point x="199.0" y="427.0"/>
      <point x="158.0" y="427.0" type="curve"/>
      <point x="89.0" y="427.0"/>
      <point x="60.0" y="450.0"/>
      <point x="60.0" y="517.0" type="curve"/>
      <point x="60.0" y="578.0"/>
      <point x="96.0" y="614.0"/>
      <point x="165.0" y="614.0" type="curve"/>
      <point x="241.0" y="614.0"/>
      <point x="268.0" y="576.0"/>
      <point x="268.0" y="461.0" type="curve"/>
      <point x="268.0" y="337.0"/>
      <point x="238.0" y="285.0"/>
      <point x="130.0" y="285.0" type="curve"/>
      <point x="108.0" y="285.0"/>
      <point x="93.0" y="287.0"/>
      <point x="82.0" y="289.0" type="curve"/>
      <point x="82.0" y="270.0" type="line"/>
      <point x="91.0" y="268.0"/>
      <point x="113.0" y="266.0"/>
      <point x="130.0" y="266.0" type="curve"/>
      <point x="251.0" y="266.0"/>
      <point x="289.0" y="327.0"/>
    </contour>
  </outline>
</glyph>
<glyph name="Euro" format="2">
  <advance width="576"/>
  <unicode hex="20AC"/>
  <outline>
    <contour>
      <point x="43.0" y="394.0" type="line"/>
      <point x="43.0" y="374.0" type="line"/>
      <point x="482.0" y="374.0" type="line"/>
      <point x="482.0" y="394.0" type="line"/>
    </contour>
    <contour>
      <point x="43.0" y="264.0" type="line"/>
      <point x="43.0" y="244.0" type="line"/>
      <point x="482.0" y="244.0" type="line"/>
      <point x="482.0" y="264.0" type="line"/>
    </contour>
    <contour>
      <point x="528.0" y="54.0" type="line"/>
      <point x="481.18243190237604" y="28.202564517635768"/>
      <point x="421.60818713450294" y="14.0"/>
      <point x="367.0" y="14.0" type="curve"/>
      <point x="205.0" y="14.0"/>
      <point x="145.0" y="82.0"/>
      <point x="145.0" y="316.0" type="curve" smooth="yes"/>
      <point x="145.0" y="537.0"/>
      <point x="207.0" y="617.0"/>
      <point x="377.0" y="617.0" type="curve"/>
      <point x="425.4625850340136" y="617.0"/>
      <point x="470.05398933303815" y="612.3502150355238"/>
      <point x="514.0" y="603.0" type="curve"/>
      <point x="514.0" y="623.0" type="line"/>
      <point x="473.76990756758903" y="632.3558354493979"/>
      <point x="425.4625850340136" y="637.0"/>
      <point x="377.0" y="637.0" type="curve"/>
      <point x="200.0" y="637.0"/>
      <point x="124.0" y="552.0"/>
      <point x="124.0" y="316.0" type="curve" smooth="yes"/>
      <point x="124.0" y="77.0"/>
      <point x="194.0" y="-6.0"/>
      <point x="357.0" y="-6.0" type="curve"/>
      <point x="430.69060773480663" y="-6.0"/>
      <point x="487.8095262375424" y="11.947847076807914"/>
      <point x="528.0" y="33.0" type="curve"/>
    </contour>
  </outline>
</glyph>
